<svg width="268" height="268" viewBox="0 0 268 268" fill="none" xmlns="http://www.w3.org/2000/svg">
<g filter="url(#filter0_d_144_167)">
<circle cx="133.535" cy="129.535" r="119.535" fill="#E6F3FA"/>
<mask id="mask0_144_167" style="mask-type:alpha" maskUnits="userSpaceOnUse" x="14" y="10" width="240" height="240">
<circle cx="133.535" cy="129.535" r="119.535" fill="#E9E8E8"/>
</mask>
<g mask="url(#mask0_144_167)">
<path d="M133.535 127.4L115.391 -3.87462L199.706 13.2018L249.868 52.6911L274.416 127.4V169.024L231.725 264.012H90.8441L-34.2017 175.191L133.535 127.4Z" fill="#41AF46" stroke="white" stroke-width="2"/>
</g>
<circle cx="133.535" cy="129.535" r="98.7463" fill="#003D68"/>
<path d="M72.6993 150.441V154.975H71.2128V144.793H72.6794V148.582H72.7739C72.9528 148.171 73.2263 147.844 73.5942 147.602C73.9621 147.36 74.4427 147.24 75.0359 147.24C75.5596 147.24 76.017 147.347 76.4081 147.563C76.8025 147.778 77.1074 148.1 77.3229 148.527C77.5416 148.951 77.651 149.482 77.651 150.118V154.975H76.1645V150.297C76.1645 149.737 76.0203 149.303 75.732 148.994C75.4436 148.683 75.0426 148.527 74.5288 148.527C74.1775 148.527 73.8626 148.602 73.5842 148.751C73.3091 148.9 73.092 149.119 72.933 149.407C72.7772 149.692 72.6993 150.037 72.6993 150.441ZM81.857 155.144C81.3731 155.144 80.9356 155.055 80.5445 154.876C80.1534 154.694 79.8435 154.43 79.6148 154.085C79.3894 153.741 79.2767 153.318 79.2767 152.818C79.2767 152.387 79.3596 152.032 79.5253 151.754C79.691 151.475 79.9147 151.255 80.1964 151.092C80.4782 150.93 80.793 150.807 81.1411 150.725C81.4891 150.642 81.8437 150.579 82.205 150.536C82.6624 150.483 83.0336 150.44 83.3186 150.406C83.6036 150.37 83.8108 150.312 83.9401 150.232C84.0693 150.153 84.1339 150.024 84.1339 149.845V149.81C84.1339 149.376 84.0113 149.039 83.7661 148.801C83.5241 148.562 83.1628 148.443 82.6822 148.443C82.1818 148.443 81.7874 148.554 81.499 148.776C81.214 148.994 81.0168 149.238 80.9074 149.507L79.5104 149.188C79.6761 148.724 79.918 148.35 80.2362 148.065C80.5577 147.776 80.9273 147.568 81.3449 147.438C81.7625 147.306 82.2017 147.24 82.6624 147.24C82.9673 147.24 83.2904 147.276 83.6318 147.349C83.9765 147.418 84.298 147.548 84.5963 147.737C84.8979 147.926 85.1448 148.196 85.3371 148.547C85.5293 148.895 85.6254 149.347 85.6254 149.904V154.975H84.1737V153.931H84.1141C84.0179 154.123 83.8738 154.312 83.6815 154.498C83.4893 154.684 83.2424 154.838 82.9408 154.96C82.6392 155.083 82.2779 155.144 81.857 155.144ZM82.1801 153.951C82.5911 153.951 82.9424 153.87 83.2341 153.708C83.5291 153.545 83.7528 153.333 83.9053 153.071C84.061 152.806 84.1389 152.523 84.1389 152.221V151.237C84.0859 151.29 83.9831 151.339 83.8307 151.386C83.6815 151.429 83.5108 151.467 83.3186 151.5C83.1264 151.53 82.9391 151.558 82.7568 151.585C82.5745 151.608 82.4221 151.628 82.2994 151.644C82.0111 151.681 81.7476 151.742 81.5089 151.828C81.2736 151.914 81.0847 152.039 80.9422 152.201C80.803 152.36 80.7334 152.572 80.7334 152.838C80.7334 153.205 80.8693 153.484 81.1411 153.673C81.4128 153.858 81.7592 153.951 82.1801 153.951ZM93.8646 147.339L91.0954 154.975H89.5045L86.7304 147.339H88.3262L90.2602 153.215H90.3397L92.2687 147.339H93.8646ZM98.293 155.129C97.5407 155.129 96.8927 154.969 96.3491 154.647C95.8089 154.322 95.3913 153.867 95.0963 153.28C94.8046 152.69 94.6588 151.999 94.6588 151.207C94.6588 150.425 94.8046 149.735 95.0963 149.139C95.3913 148.542 95.8023 148.076 96.3293 147.742C96.8596 147.407 97.4794 147.24 98.1886 147.24C98.6195 147.24 99.0371 147.311 99.4415 147.453C99.8458 147.596 100.209 147.82 100.53 148.124C100.852 148.429 101.105 148.825 101.291 149.313C101.477 149.797 101.569 150.385 101.569 151.078V151.605H95.499V150.491H100.113C100.113 150.1 100.033 149.753 99.874 149.452C99.7149 149.147 99.4912 148.907 99.2028 148.731C98.9178 148.555 98.583 148.467 98.1986 148.467C97.781 148.467 97.4164 148.57 97.1048 148.776C96.7966 148.978 96.558 149.243 96.3889 149.571C96.2232 149.896 96.1403 150.249 96.1403 150.63V151.5C96.1403 152.011 96.2298 152.445 96.4088 152.803C96.5911 153.161 96.8446 153.434 97.1695 153.623C97.4943 153.809 97.8738 153.901 98.308 153.901C98.5897 153.901 98.8465 153.862 99.0786 153.782C99.3106 153.699 99.5111 153.577 99.6801 153.414C99.8491 153.252 99.9784 153.051 100.068 152.813L101.475 153.066C101.362 153.481 101.16 153.843 100.868 154.155C100.58 154.463 100.217 154.704 99.7795 154.876C99.3454 155.045 98.8499 155.129 98.293 155.129ZM106.924 154.975V147.339H108.41V154.975H106.924ZM107.674 146.161C107.416 146.161 107.194 146.074 107.008 145.902C106.826 145.726 106.735 145.518 106.735 145.276C106.735 145.03 106.826 144.822 107.008 144.649C107.194 144.474 107.416 144.386 107.674 144.386C107.933 144.386 108.153 144.474 108.336 144.649C108.521 144.822 108.614 145.03 108.614 145.276C108.614 145.518 108.521 145.726 108.336 145.902C108.153 146.074 107.933 146.161 107.674 146.161ZM116.132 149.203L114.785 149.442C114.729 149.27 114.639 149.106 114.517 148.95C114.397 148.794 114.235 148.666 114.029 148.567C113.824 148.467 113.567 148.418 113.259 148.418C112.838 148.418 112.487 148.512 112.205 148.701C111.923 148.887 111.782 149.127 111.782 149.422C111.782 149.677 111.877 149.883 112.066 150.039C112.255 150.194 112.559 150.322 112.98 150.421L114.193 150.7C114.896 150.862 115.42 151.112 115.764 151.45C116.109 151.789 116.281 152.228 116.281 152.768C116.281 153.225 116.149 153.633 115.884 153.991C115.622 154.346 115.256 154.624 114.785 154.826C114.318 155.028 113.776 155.129 113.159 155.129C112.304 155.129 111.607 154.947 111.066 154.583C110.526 154.215 110.195 153.693 110.072 153.016L111.509 152.798C111.598 153.172 111.782 153.456 112.061 153.648C112.339 153.837 112.702 153.931 113.149 153.931C113.637 153.931 114.026 153.83 114.318 153.628C114.609 153.423 114.755 153.172 114.755 152.877C114.755 152.639 114.666 152.438 114.487 152.276C114.311 152.113 114.041 151.991 113.676 151.908L112.384 151.624C111.671 151.462 111.144 151.204 110.803 150.849C110.465 150.494 110.296 150.045 110.296 149.502C110.296 149.051 110.422 148.656 110.674 148.318C110.925 147.98 111.273 147.717 111.718 147.528C112.162 147.336 112.67 147.24 113.244 147.24C114.069 147.24 114.719 147.418 115.193 147.776C115.667 148.131 115.98 148.607 116.132 149.203ZM123.638 149.203L122.291 149.442C122.235 149.27 122.145 149.106 122.022 148.95C121.903 148.794 121.741 148.666 121.535 148.567C121.33 148.467 121.073 148.418 120.765 148.418C120.344 148.418 119.992 148.512 119.711 148.701C119.429 148.887 119.288 149.127 119.288 149.422C119.288 149.677 119.383 149.883 119.571 150.039C119.76 150.194 120.065 150.322 120.486 150.421L121.699 150.7C122.402 150.862 122.926 151.112 123.27 151.45C123.615 151.789 123.787 152.228 123.787 152.768C123.787 153.225 123.655 153.633 123.39 153.991C123.128 154.346 122.762 154.624 122.291 154.826C121.824 155.028 121.282 155.129 120.665 155.129C119.81 155.129 119.112 154.947 118.572 154.583C118.032 154.215 117.7 153.693 117.578 153.016L119.015 152.798C119.104 153.172 119.288 153.456 119.566 153.648C119.845 153.837 120.208 153.931 120.655 153.931C121.142 153.931 121.532 153.83 121.824 153.628C122.115 153.423 122.261 153.172 122.261 152.877C122.261 152.639 122.172 152.438 121.993 152.276C121.817 152.113 121.547 151.991 121.182 151.908L119.89 151.624C119.177 151.462 118.65 151.204 118.309 150.849C117.971 150.494 117.802 150.045 117.802 149.502C117.802 149.051 117.928 148.656 118.179 148.318C118.431 147.98 118.779 147.717 119.223 147.528C119.668 147.336 120.176 147.24 120.75 147.24C121.575 147.24 122.225 147.418 122.699 147.776C123.173 148.131 123.486 148.607 123.638 149.203ZM130.259 151.808V147.339H131.751V154.975H130.289V153.653H130.209C130.034 154.061 129.752 154.4 129.364 154.672C128.98 154.94 128.501 155.075 127.927 155.075C127.437 155.075 127.003 154.967 126.625 154.752C126.25 154.533 125.955 154.21 125.74 153.782C125.528 153.355 125.422 152.826 125.422 152.196V147.339H126.908V152.017C126.908 152.538 127.052 152.952 127.341 153.26C127.629 153.568 128.004 153.722 128.464 153.722C128.743 153.722 129.02 153.653 129.295 153.514C129.573 153.374 129.803 153.164 129.986 152.882C130.171 152.601 130.262 152.243 130.259 151.808ZM137.039 155.129C136.287 155.129 135.639 154.969 135.095 154.647C134.555 154.322 134.137 153.867 133.842 153.28C133.551 152.69 133.405 151.999 133.405 151.207C133.405 150.425 133.551 149.735 133.842 149.139C134.137 148.542 134.548 148.076 135.075 147.742C135.606 147.407 136.225 147.24 136.935 147.24C137.366 147.24 137.783 147.311 138.188 147.453C138.592 147.596 138.955 147.82 139.276 148.124C139.598 148.429 139.851 148.825 140.037 149.313C140.223 149.797 140.315 150.385 140.315 151.078V151.605H134.245V150.491H138.859C138.859 150.1 138.779 149.753 138.62 149.452C138.461 149.147 138.237 148.907 137.949 148.731C137.664 148.555 137.329 148.467 136.945 148.467C136.527 148.467 136.162 148.57 135.851 148.776C135.543 148.978 135.304 149.243 135.135 149.571C134.969 149.896 134.886 150.249 134.886 150.63V151.5C134.886 152.011 134.976 152.445 135.155 152.803C135.337 153.161 135.591 153.434 135.916 153.623C136.24 153.809 136.62 153.901 137.054 153.901C137.336 153.901 137.593 153.862 137.825 153.782C138.057 153.699 138.257 153.577 138.426 153.414C138.595 153.252 138.725 153.051 138.814 152.813L140.221 153.066C140.108 153.481 139.906 153.843 139.614 154.155C139.326 154.463 138.963 154.704 138.526 154.876C138.091 155.045 137.596 155.129 137.039 155.129ZM147.687 149.203L146.34 149.442C146.283 149.27 146.194 149.106 146.071 148.95C145.952 148.794 145.79 148.666 145.584 148.567C145.379 148.467 145.122 148.418 144.813 148.418C144.393 148.418 144.041 148.512 143.759 148.701C143.478 148.887 143.337 149.127 143.337 149.422C143.337 149.677 143.431 149.883 143.62 150.039C143.809 150.194 144.114 150.322 144.535 150.421L145.748 150.7C146.451 150.862 146.974 151.112 147.319 151.45C147.664 151.789 147.836 152.228 147.836 152.768C147.836 153.225 147.704 153.633 147.438 153.991C147.177 154.346 146.81 154.624 146.34 154.826C145.872 155.028 145.331 155.129 144.714 155.129C143.859 155.129 143.161 154.947 142.621 154.583C142.081 154.215 141.749 153.693 141.627 153.016L143.063 152.798C143.153 153.172 143.337 153.456 143.615 153.648C143.894 153.837 144.257 153.931 144.704 153.931C145.191 153.931 145.581 153.83 145.872 153.628C146.164 153.423 146.31 153.172 146.31 152.877C146.31 152.639 146.22 152.438 146.041 152.276C145.866 152.113 145.596 151.991 145.231 151.908L143.938 151.624C143.226 151.462 142.699 151.204 142.357 150.849C142.019 150.494 141.85 150.045 141.85 149.502C141.85 149.051 141.976 148.656 142.228 148.318C142.48 147.98 142.828 147.717 143.272 147.528C143.716 147.336 144.225 147.24 144.799 147.24C145.624 147.24 146.273 147.418 146.747 147.776C147.221 148.131 147.535 148.607 147.687 149.203ZM151.405 153.583L151.33 154.125C151.28 154.523 151.196 154.937 151.076 155.368C150.96 155.802 150.839 156.205 150.713 156.576C150.591 156.947 150.49 157.242 150.41 157.461H149.356C149.399 157.256 149.459 156.977 149.535 156.626C149.611 156.278 149.686 155.888 149.759 155.458C149.832 155.027 149.887 154.588 149.923 154.14L149.973 153.583H151.405ZM158.7 154.975L156.453 147.339H157.989L159.486 152.947H159.56L161.062 147.339H162.598L164.09 152.922H164.164L165.651 147.339H167.187L164.945 154.975H163.428L161.877 149.462H161.763L160.212 154.975H158.7ZM168.598 154.975V147.339H170.034V148.552H170.114C170.253 148.141 170.498 147.818 170.85 147.583C171.204 147.344 171.605 147.225 172.053 147.225C172.146 147.225 172.255 147.228 172.381 147.235C172.51 147.241 172.611 147.249 172.684 147.259V148.681C172.625 148.665 172.518 148.646 172.366 148.627C172.214 148.603 172.061 148.592 171.909 148.592C171.557 148.592 171.244 148.666 170.969 148.815C170.697 148.961 170.482 149.165 170.323 149.427C170.164 149.686 170.084 149.981 170.084 150.312V154.975H168.598ZM176.914 155.129C176.198 155.129 175.573 154.965 175.039 154.637C174.506 154.309 174.092 153.85 173.797 153.26C173.502 152.67 173.354 151.981 173.354 151.192C173.354 150.4 173.502 149.707 173.797 149.114C174.092 148.521 174.506 148.06 175.039 147.732C175.573 147.404 176.198 147.24 176.914 147.24C177.63 147.24 178.254 147.404 178.788 147.732C179.322 148.06 179.736 148.521 180.031 149.114C180.326 149.707 180.473 150.4 180.473 151.192C180.473 151.981 180.326 152.67 180.031 153.26C179.736 153.85 179.322 154.309 178.788 154.637C178.254 154.965 177.63 155.129 176.914 155.129ZM176.919 153.882C177.383 153.882 177.767 153.759 178.072 153.514C178.377 153.268 178.602 152.942 178.748 152.534C178.897 152.127 178.972 151.677 178.972 151.187C178.972 150.7 178.897 150.252 178.748 149.845C178.602 149.434 178.377 149.104 178.072 148.855C177.767 148.607 177.383 148.482 176.919 148.482C176.451 148.482 176.064 148.607 175.755 148.855C175.45 149.104 175.223 149.434 175.074 149.845C174.928 150.252 174.856 150.7 174.856 151.187C174.856 151.677 174.928 152.127 175.074 152.534C175.223 152.942 175.45 153.268 175.755 153.514C176.064 153.759 176.451 153.882 176.919 153.882ZM187.855 149.203L186.508 149.442C186.451 149.27 186.362 149.106 186.239 148.95C186.12 148.794 185.958 148.666 185.752 148.567C185.547 148.467 185.29 148.418 184.981 148.418C184.56 148.418 184.209 148.512 183.927 148.701C183.646 148.887 183.505 149.127 183.505 149.422C183.505 149.677 183.599 149.883 183.788 150.039C183.977 150.194 184.282 150.322 184.703 150.421L185.916 150.7C186.619 150.862 187.142 151.112 187.487 151.45C187.832 151.789 188.004 152.228 188.004 152.768C188.004 153.225 187.872 153.633 187.606 153.991C187.345 154.346 186.978 154.624 186.508 154.826C186.04 155.028 185.498 155.129 184.882 155.129C184.027 155.129 183.329 154.947 182.789 154.583C182.249 154.215 181.917 153.693 181.795 153.016L183.231 152.798C183.321 153.172 183.505 153.456 183.783 153.648C184.062 153.837 184.425 153.931 184.872 153.931C185.359 153.931 185.749 153.83 186.04 153.628C186.332 153.423 186.478 153.172 186.478 152.877C186.478 152.639 186.388 152.438 186.209 152.276C186.034 152.113 185.764 151.991 185.399 151.908L184.106 151.624C183.394 151.462 182.867 151.204 182.525 150.849C182.187 150.494 182.018 150.045 182.018 149.502C182.018 149.051 182.144 148.656 182.396 148.318C182.648 147.98 182.996 147.717 183.44 147.528C183.884 147.336 184.393 147.24 184.967 147.24C185.792 147.24 186.441 147.418 186.915 147.776C187.389 148.131 187.703 148.607 187.855 149.203ZM192.93 155.129C192.177 155.129 191.529 154.969 190.986 154.647C190.446 154.322 190.028 153.867 189.733 153.28C189.441 152.69 189.296 151.999 189.296 151.207C189.296 150.425 189.441 149.735 189.733 149.139C190.028 148.542 190.439 148.076 190.966 147.742C191.496 147.407 192.116 147.24 192.825 147.24C193.256 147.24 193.674 147.311 194.078 147.453C194.483 147.596 194.845 147.82 195.167 148.124C195.488 148.429 195.742 148.825 195.928 149.313C196.113 149.797 196.206 150.385 196.206 151.078V151.605H190.136V150.491H194.749C194.749 150.1 194.67 149.753 194.511 149.452C194.352 149.147 194.128 148.907 193.84 148.731C193.555 148.555 193.22 148.467 192.835 148.467C192.418 148.467 192.053 148.57 191.742 148.776C191.433 148.978 191.195 149.243 191.026 149.571C190.86 149.896 190.777 150.249 190.777 150.63V151.5C190.777 152.011 190.867 152.445 191.046 152.803C191.228 153.161 191.481 153.434 191.806 153.623C192.131 153.809 192.51 153.901 192.945 153.901C193.226 153.901 193.483 153.862 193.715 153.782C193.947 153.699 194.148 153.577 194.317 153.414C194.486 153.252 194.615 153.051 194.705 152.813L196.112 153.066C195.999 153.481 195.797 153.843 195.505 154.155C195.217 154.463 194.854 154.704 194.416 154.876C193.982 155.045 193.487 155.129 192.93 155.129ZM94.3214 163.339V164.532H90.1502V163.339H94.3214ZM91.2688 161.509H92.7553V168.733C92.7553 169.021 92.7984 169.239 92.8846 169.384C92.9707 169.527 93.0818 169.625 93.2177 169.678C93.3569 169.727 93.5077 169.752 93.6701 169.752C93.7894 169.752 93.8938 169.744 93.9833 169.727C94.0728 169.711 94.1424 169.698 94.1921 169.688L94.4606 170.916C94.3744 170.949 94.2518 170.982 94.0927 171.015C93.9336 171.052 93.7347 171.071 93.4961 171.075C93.105 171.081 92.7404 171.012 92.4023 170.866C92.0643 170.72 91.7908 170.495 91.582 170.19C91.3732 169.885 91.2688 169.502 91.2688 169.041V161.509ZM97.6163 166.441V170.975H96.1298V160.793H97.5964V164.582H97.6909C97.8698 164.171 98.1433 163.844 98.5112 163.602C98.8791 163.36 99.3597 163.24 99.9529 163.24C100.477 163.24 100.934 163.347 101.325 163.563C101.72 163.778 102.024 164.1 102.24 164.527C102.459 164.951 102.568 165.482 102.568 166.118V170.975H101.081V166.297C101.081 165.737 100.937 165.303 100.649 164.994C100.361 164.683 99.9596 164.527 99.4458 164.527C99.0945 164.527 98.7796 164.602 98.5012 164.751C98.2261 164.9 98.009 165.119 97.8499 165.407C97.6942 165.692 97.6163 166.037 97.6163 166.441ZM106.774 171.144C106.29 171.144 105.853 171.055 105.461 170.876C105.07 170.694 104.76 170.43 104.532 170.085C104.306 169.741 104.194 169.318 104.194 168.818C104.194 168.387 104.277 168.032 104.442 167.754C104.608 167.475 104.832 167.255 105.113 167.092C105.395 166.93 105.71 166.807 106.058 166.725C106.406 166.642 106.761 166.579 107.122 166.536C107.579 166.483 107.951 166.44 108.236 166.406C108.521 166.37 108.728 166.312 108.857 166.232C108.986 166.153 109.051 166.024 109.051 165.845V165.81C109.051 165.376 108.928 165.039 108.683 164.801C108.441 164.562 108.08 164.443 107.599 164.443C107.099 164.443 106.704 164.554 106.416 164.776C106.131 164.994 105.934 165.238 105.824 165.507L104.427 165.188C104.593 164.724 104.835 164.35 105.153 164.065C105.475 163.776 105.844 163.568 106.262 163.438C106.679 163.306 107.119 163.24 107.579 163.24C107.884 163.24 108.207 163.276 108.549 163.349C108.894 163.418 109.215 163.548 109.513 163.737C109.815 163.926 110.062 164.196 110.254 164.547C110.446 164.895 110.542 165.347 110.542 165.904V170.975H109.091V169.931H109.031C108.935 170.123 108.791 170.312 108.599 170.498C108.406 170.684 108.159 170.838 107.858 170.96C107.556 171.083 107.195 171.144 106.774 171.144ZM107.097 169.951C107.508 169.951 107.859 169.87 108.151 169.708C108.446 169.545 108.67 169.333 108.822 169.071C108.978 168.806 109.056 168.523 109.056 168.221V167.237C109.003 167.29 108.9 167.339 108.748 167.386C108.599 167.429 108.428 167.467 108.236 167.5C108.043 167.53 107.856 167.558 107.674 167.585C107.492 167.608 107.339 167.628 107.216 167.644C106.928 167.681 106.665 167.742 106.426 167.828C106.191 167.914 106.002 168.039 105.859 168.201C105.72 168.36 105.65 168.572 105.65 168.838C105.65 169.205 105.786 169.484 106.058 169.673C106.33 169.858 106.676 169.951 107.097 169.951ZM114.009 166.441V170.975H112.522V163.339H113.949V164.582H114.044C114.219 164.177 114.494 163.853 114.869 163.607C115.247 163.362 115.722 163.24 116.296 163.24C116.816 163.24 117.272 163.349 117.663 163.568C118.054 163.783 118.357 164.105 118.573 164.532C118.788 164.96 118.896 165.488 118.896 166.118V170.975H117.409V166.297C117.409 165.744 117.265 165.311 116.977 164.999C116.689 164.685 116.292 164.527 115.789 164.527C115.444 164.527 115.137 164.602 114.869 164.751C114.604 164.9 114.393 165.119 114.238 165.407C114.085 165.692 114.009 166.037 114.009 166.441ZM126.817 171.144C126.333 171.144 125.896 171.055 125.504 170.876C125.113 170.694 124.803 170.43 124.575 170.085C124.349 169.741 124.237 169.318 124.237 168.818C124.237 168.387 124.32 168.032 124.485 167.754C124.651 167.475 124.875 167.255 125.156 167.092C125.438 166.93 125.753 166.807 126.101 166.725C126.449 166.642 126.804 166.579 127.165 166.536C127.622 166.483 127.994 166.44 128.279 166.406C128.564 166.37 128.771 166.312 128.9 166.232C129.029 166.153 129.094 166.024 129.094 165.845V165.81C129.094 165.376 128.971 165.039 128.726 164.801C128.484 164.562 128.123 164.443 127.642 164.443C127.142 164.443 126.747 164.554 126.459 164.776C126.174 164.994 125.977 165.238 125.867 165.507L124.47 165.188C124.636 164.724 124.878 164.35 125.196 164.065C125.518 163.776 125.887 163.568 126.305 163.438C126.722 163.306 127.162 163.24 127.622 163.24C127.927 163.24 128.25 163.276 128.592 163.349C128.936 163.418 129.258 163.548 129.556 163.737C129.858 163.926 130.105 164.196 130.297 164.547C130.489 164.895 130.585 165.347 130.585 165.904V170.975H129.134V169.931H129.074C128.978 170.123 128.834 170.312 128.641 170.498C128.449 170.684 128.202 170.838 127.901 170.96C127.599 171.083 127.238 171.144 126.817 171.144ZM127.14 169.951C127.551 169.951 127.902 169.87 128.194 169.708C128.489 169.545 128.713 169.333 128.865 169.071C129.021 168.806 129.099 168.523 129.099 168.221V167.237C129.046 167.29 128.943 167.339 128.791 167.386C128.641 167.429 128.471 167.467 128.279 167.5C128.086 167.53 127.899 167.558 127.717 167.585C127.534 167.608 127.382 167.628 127.259 167.644C126.971 167.681 126.708 167.742 126.469 167.828C126.234 167.914 126.045 168.039 125.902 168.201C125.763 168.36 125.693 168.572 125.693 168.838C125.693 169.205 125.829 169.484 126.101 169.673C126.373 169.858 126.719 169.951 127.14 169.951ZM138.825 163.339L136.055 170.975H134.464L131.69 163.339H133.286L135.22 169.215H135.3L137.229 163.339H138.825ZM143.253 171.129C142.501 171.129 141.853 170.969 141.309 170.647C140.769 170.322 140.351 169.867 140.056 169.28C139.765 168.69 139.619 167.999 139.619 167.207C139.619 166.425 139.765 165.735 140.056 165.139C140.351 164.542 140.762 164.076 141.289 163.742C141.82 163.407 142.439 163.24 143.149 163.24C143.579 163.24 143.997 163.311 144.401 163.453C144.806 163.596 145.169 163.82 145.49 164.124C145.812 164.429 146.065 164.825 146.251 165.313C146.436 165.797 146.529 166.385 146.529 167.078V167.605H140.459V166.491H145.073C145.073 166.1 144.993 165.753 144.834 165.452C144.675 165.147 144.451 164.907 144.163 164.731C143.878 164.555 143.543 164.467 143.159 164.467C142.741 164.467 142.376 164.57 142.065 164.776C141.757 164.978 141.518 165.243 141.349 165.571C141.183 165.896 141.1 166.249 141.1 166.63V167.5C141.1 168.011 141.19 168.445 141.369 168.803C141.551 169.161 141.805 169.434 142.129 169.623C142.454 169.809 142.834 169.901 143.268 169.901C143.55 169.901 143.807 169.862 144.039 169.782C144.271 169.699 144.471 169.577 144.64 169.414C144.809 169.252 144.938 169.051 145.028 168.813L146.435 169.066C146.322 169.481 146.12 169.843 145.828 170.155C145.54 170.463 145.177 170.704 144.74 170.876C144.305 171.045 143.81 171.129 143.253 171.129ZM148.179 170.975V163.339H149.615V164.552H149.695C149.834 164.141 150.079 163.818 150.431 163.583C150.785 163.344 151.186 163.225 151.634 163.225C151.727 163.225 151.836 163.228 151.962 163.235C152.091 163.241 152.192 163.249 152.265 163.259V164.681C152.206 164.665 152.1 164.646 151.947 164.627C151.795 164.603 151.642 164.592 151.49 164.592C151.138 164.592 150.825 164.666 150.55 164.815C150.278 164.961 150.063 165.165 149.904 165.427C149.745 165.686 149.665 165.981 149.665 166.312V170.975H148.179ZM155.706 171.144C155.222 171.144 154.784 171.055 154.393 170.876C154.002 170.694 153.692 170.43 153.463 170.085C153.238 169.741 153.125 169.318 153.125 168.818C153.125 168.387 153.208 168.032 153.374 167.754C153.54 167.475 153.763 167.255 154.045 167.092C154.327 166.93 154.642 166.807 154.99 166.725C155.338 166.642 155.692 166.579 156.054 166.536C156.511 166.483 156.882 166.44 157.167 166.406C157.452 166.37 157.659 166.312 157.789 166.232C157.918 166.153 157.983 166.024 157.983 165.845V165.81C157.983 165.376 157.86 165.039 157.615 164.801C157.373 164.562 157.011 164.443 156.531 164.443C156.03 164.443 155.636 164.554 155.348 164.776C155.063 164.994 154.865 165.238 154.756 165.507L153.359 165.188C153.525 164.724 153.767 164.35 154.085 164.065C154.406 163.776 154.776 163.568 155.194 163.438C155.611 163.306 156.05 163.24 156.511 163.24C156.816 163.24 157.139 163.276 157.48 163.349C157.825 163.418 158.147 163.548 158.445 163.737C158.747 163.926 158.993 164.196 159.186 164.547C159.378 164.895 159.474 165.347 159.474 165.904V170.975H158.022V169.931H157.963C157.867 170.123 157.722 170.312 157.53 170.498C157.338 170.684 157.091 170.838 156.789 170.96C156.488 171.083 156.127 171.144 155.706 171.144ZM156.029 169.951C156.44 169.951 156.791 169.87 157.083 169.708C157.378 169.545 157.601 169.333 157.754 169.071C157.91 168.806 157.988 168.523 157.988 168.221V167.237C157.935 167.29 157.832 167.339 157.679 167.386C157.53 167.429 157.359 167.467 157.167 167.5C156.975 167.53 156.788 167.558 156.605 167.585C156.423 167.608 156.271 167.628 156.148 167.644C155.86 167.681 155.596 167.742 155.358 167.828C155.122 167.914 154.933 168.039 154.791 168.201C154.652 168.36 154.582 168.572 154.582 168.838C154.582 169.205 154.718 169.484 154.99 169.673C155.261 169.858 155.608 169.951 156.029 169.951ZM164.656 173.998C164.049 173.998 163.527 173.918 163.09 173.759C162.655 173.6 162.301 173.39 162.026 173.128C161.751 172.866 161.545 172.579 161.409 172.268L162.687 171.741C162.776 171.887 162.896 172.041 163.045 172.203C163.197 172.369 163.403 172.51 163.661 172.626C163.923 172.742 164.26 172.8 164.671 172.8C165.234 172.8 165.7 172.662 166.068 172.387C166.436 172.115 166.619 171.681 166.619 171.085V169.583H166.525C166.436 169.746 166.306 169.926 166.137 170.125C165.972 170.324 165.743 170.496 165.451 170.642C165.159 170.788 164.78 170.861 164.313 170.861C163.709 170.861 163.166 170.72 162.682 170.438C162.201 170.153 161.82 169.734 161.539 169.181C161.26 168.624 161.121 167.939 161.121 167.127C161.121 166.315 161.258 165.619 161.534 165.039C161.812 164.459 162.193 164.015 162.677 163.707C163.161 163.395 163.709 163.24 164.323 163.24C164.797 163.24 165.179 163.319 165.471 163.478C165.763 163.634 165.99 163.816 166.152 164.025C166.318 164.234 166.445 164.418 166.535 164.577H166.644V163.339H168.101V171.144C168.101 171.801 167.949 172.339 167.644 172.76C167.339 173.181 166.926 173.493 166.406 173.695C165.889 173.897 165.305 173.998 164.656 173.998ZM164.641 169.628C165.068 169.628 165.43 169.529 165.725 169.33C166.023 169.128 166.248 168.839 166.401 168.465C166.557 168.087 166.634 167.634 166.634 167.107C166.634 166.594 166.558 166.141 166.406 165.75C166.253 165.359 166.03 165.054 165.735 164.835C165.44 164.613 165.075 164.502 164.641 164.502C164.193 164.502 163.82 164.618 163.522 164.85C163.224 165.079 162.999 165.391 162.846 165.785C162.697 166.179 162.622 166.62 162.622 167.107C162.622 167.608 162.699 168.047 162.851 168.425C163.003 168.803 163.229 169.098 163.527 169.31C163.829 169.522 164.2 169.628 164.641 169.628ZM173.386 171.129C172.633 171.129 171.985 170.969 171.442 170.647C170.902 170.322 170.484 169.867 170.189 169.28C169.897 168.69 169.752 167.999 169.752 167.207C169.752 166.425 169.897 165.735 170.189 165.139C170.484 164.542 170.895 164.076 171.422 163.742C171.952 163.407 172.572 163.24 173.281 163.24C173.712 163.24 174.13 163.311 174.534 163.453C174.939 163.596 175.302 163.82 175.623 164.124C175.945 164.429 176.198 164.825 176.384 165.313C176.569 165.797 176.662 166.385 176.662 167.078V167.605H170.592V166.491H175.205C175.205 166.1 175.126 165.753 174.967 165.452C174.808 165.147 174.584 164.907 174.296 164.731C174.011 164.555 173.676 164.467 173.291 164.467C172.874 164.467 172.509 164.57 172.198 164.776C171.889 164.978 171.651 165.243 171.482 165.571C171.316 165.896 171.233 166.249 171.233 166.63V167.5C171.233 168.011 171.323 168.445 171.502 168.803C171.684 169.161 171.937 169.434 172.262 169.623C172.587 169.809 172.967 169.901 173.401 169.901C173.682 169.901 173.939 169.862 174.171 169.782C174.403 169.699 174.604 169.577 174.773 169.414C174.942 169.252 175.071 169.051 175.161 168.813L176.568 169.066C176.455 169.481 176.253 169.843 175.961 170.155C175.673 170.463 175.31 170.704 174.872 170.876C174.438 171.045 173.943 171.129 173.386 171.129Z" fill="white"/>
<path d="M96.6575 128.236C93.8684 128.236 91.3872 127.784 89.2139 126.878C87.0527 125.96 85.3563 124.711 84.1248 123.129C82.8933 121.547 82.2775 119.754 82.2775 117.75C82.2775 116.205 82.6276 114.786 83.3279 113.494C84.0403 112.19 85.0062 111.11 86.2256 110.252C87.4451 109.383 88.8095 108.828 90.3187 108.586V108.333C88.3386 107.934 86.7327 106.974 85.5012 105.453C84.2697 103.92 83.6539 102.139 83.6539 100.11C83.6539 98.1905 84.2153 96.4821 85.3382 94.9849C86.4611 93.4757 88.0005 92.2924 89.9565 91.4352C91.9245 90.5659 94.1582 90.1312 96.6575 90.1312C99.1568 90.1312 101.384 90.5659 103.34 91.4352C105.308 92.3045 106.854 93.4938 107.977 95.003C109.1 96.5002 109.667 98.2026 109.679 100.11C109.667 102.151 109.039 103.932 107.796 105.453C106.552 106.974 104.958 107.934 103.014 108.333V108.586C104.499 108.828 105.846 109.383 107.053 110.252C108.273 111.11 109.238 112.19 109.951 113.494C110.675 114.786 111.043 116.205 111.056 117.75C111.043 119.754 110.422 121.547 109.19 123.129C107.959 124.711 106.256 125.96 104.083 126.878C101.922 127.784 99.4465 128.236 96.6575 128.236ZM96.6575 122.477C97.9011 122.477 98.9877 122.254 99.9174 121.807C100.847 121.348 101.572 120.72 102.091 119.923C102.622 119.115 102.888 118.185 102.888 117.134C102.888 116.06 102.616 115.112 102.073 114.291C101.529 113.458 100.793 112.806 99.8631 112.335C98.9334 111.852 97.8648 111.611 96.6575 111.611C95.4622 111.611 94.3936 111.852 93.4519 112.335C92.5101 112.806 91.7675 113.458 91.2242 114.291C90.693 115.112 90.4273 116.06 90.4273 117.134C90.4273 118.185 90.6869 119.115 91.2061 119.923C91.7253 120.72 92.4558 121.348 93.3975 121.807C94.3393 122.254 95.4259 122.477 96.6575 122.477ZM96.6575 105.906C97.6958 105.906 98.6195 105.694 99.4284 105.272C100.237 104.849 100.871 104.264 101.33 103.515C101.789 102.767 102.018 101.903 102.018 100.925C102.018 99.9594 101.789 99.1142 101.33 98.3898C100.871 97.6532 100.243 97.0797 99.4465 96.6692C98.6497 96.2466 97.72 96.0353 96.6575 96.0353C95.607 96.0353 94.6773 96.2466 93.8684 96.6692C93.0595 97.0797 92.4256 97.6532 91.9668 98.3898C91.52 99.1142 91.2967 99.9594 91.2967 100.925C91.2967 101.903 91.5261 102.767 91.9849 103.515C92.4437 104.264 93.0776 104.849 93.8865 105.272C94.6955 105.694 95.6191 105.906 96.6575 105.906ZM130.085 128.236C127.526 128.236 125.244 127.765 123.24 126.824C121.247 125.882 119.666 124.584 118.495 122.93C117.323 121.276 116.714 119.38 116.665 117.243H124.272C124.356 118.68 124.96 119.845 126.083 120.738C127.206 121.632 128.54 122.079 130.085 122.079C131.317 122.079 132.404 121.807 133.345 121.264C134.299 120.708 135.042 119.942 135.573 118.964C136.116 117.974 136.388 116.839 136.388 115.559C136.388 114.255 136.11 113.108 135.555 112.118C135.012 111.128 134.257 110.355 133.291 109.8C132.325 109.244 131.22 108.96 129.977 108.948C128.89 108.948 127.834 109.172 126.807 109.618C125.793 110.065 125.002 110.675 124.435 111.448L117.462 110.198L119.219 90.6383H141.894V97.0496H125.685L124.725 106.34H124.942C125.594 105.423 126.578 104.662 127.894 104.058C129.21 103.455 130.683 103.153 132.313 103.153C134.547 103.153 136.539 103.678 138.29 104.729C140.04 105.779 141.423 107.222 142.437 109.057C143.451 110.88 143.952 112.981 143.94 115.36C143.952 117.859 143.373 120.08 142.202 122.024C141.042 123.956 139.419 125.477 137.33 126.588C135.253 127.687 132.838 128.236 130.085 128.236ZM169.712 120.775V118.819C169.712 117.334 170.026 115.969 170.654 114.726C171.294 113.47 172.217 112.468 173.425 111.719C174.644 110.959 176.129 110.578 177.88 110.578C179.655 110.578 181.146 110.953 182.353 111.701C183.573 112.45 184.49 113.452 185.106 114.708C185.734 115.951 186.048 117.322 186.048 118.819V120.775C186.048 122.26 185.734 123.63 185.106 124.886C184.478 126.129 183.555 127.126 182.335 127.874C181.116 128.635 179.631 129.015 177.88 129.015C176.105 129.015 174.614 128.635 173.406 127.874C172.199 127.126 171.281 126.129 170.654 124.886C170.026 123.63 169.712 122.26 169.712 120.775ZM174.982 118.819V120.775C174.982 121.632 175.187 122.441 175.598 123.202C176.02 123.962 176.781 124.343 177.88 124.343C178.979 124.343 179.727 123.968 180.126 123.22C180.536 122.471 180.741 121.656 180.741 120.775V118.819C180.741 117.937 180.548 117.116 180.162 116.356C179.775 115.595 179.015 115.215 177.88 115.215C176.793 115.215 176.039 115.595 175.616 116.356C175.193 117.116 174.982 117.937 174.982 118.819ZM150.677 99.5488V97.5929C150.677 96.0957 150.997 94.7253 151.637 93.4817C152.277 92.226 153.201 91.2239 154.408 90.4753C155.628 89.7268 157.101 89.3525 158.827 89.3525C160.614 89.3525 162.111 89.7268 163.319 90.4753C164.526 91.2239 165.444 92.226 166.072 93.4817C166.699 94.7253 167.013 96.0957 167.013 97.5929V99.5488C167.013 101.046 166.693 102.416 166.054 103.66C165.426 104.904 164.502 105.9 163.283 106.648C162.075 107.385 160.59 107.753 158.827 107.753C157.065 107.753 155.573 107.379 154.354 106.63C153.147 105.87 152.229 104.873 151.601 103.642C150.985 102.398 150.677 101.034 150.677 99.5488ZM155.984 97.5929V99.5488C155.984 100.43 156.189 101.245 156.6 101.994C157.022 102.742 157.765 103.117 158.827 103.117C159.938 103.117 160.693 102.742 161.091 101.994C161.502 101.245 161.707 100.43 161.707 99.5488V97.5929C161.707 96.7115 161.514 95.8905 161.127 95.1298C160.741 94.3692 159.974 93.9888 158.827 93.9888C157.753 93.9888 157.01 94.3752 156.6 95.1479C156.189 95.9206 155.984 96.7356 155.984 97.5929ZM153.068 127.729L178.568 90.6383H183.313L157.813 127.729H153.068Z" fill="white"/>
</g>
<defs>
<filter id="filter0_d_144_167" x="0" y="0" width="267.07" height="267.07" filterUnits="userSpaceOnUse" color-interpolation-filters="sRGB">
<feFlood flood-opacity="0" result="BackgroundImageFix"/>
<feColorMatrix in="SourceAlpha" type="matrix" values="0 0 0 0 0 0 0 0 0 0 0 0 0 0 0 0 0 0 127 0" result="hardAlpha"/>
<feOffset dy="4"/>
<feGaussianBlur stdDeviation="7"/>
<feComposite in2="hardAlpha" operator="out"/>
<feColorMatrix type="matrix" values="0 0 0 0 0 0 0 0 0 0 0 0 0 0 0 0 0 0 0.15 0"/>
<feBlend mode="normal" in2="BackgroundImageFix" result="effect1_dropShadow_144_167"/>
<feBlend mode="normal" in="SourceGraphic" in2="effect1_dropShadow_144_167" result="shape"/>
</filter>
</defs>
</svg>
