<svg width="21" height="21" viewBox="0 0 21 21" fill="none" xmlns="http://www.w3.org/2000/svg">
<path d="M10.5 2.625C12.0413 2.625 13.548 3.08205 14.8295 3.93835C16.1111 4.79466 17.1099 6.01175 17.6998 7.43573C18.2896 8.85971 18.4439 10.4266 18.1432 11.9383C17.8425 13.45 17.1003 14.8386 16.0105 15.9284C14.9206 17.0183 13.532 17.7605 12.0203 18.0612C10.5087 18.3619 8.94174 18.2076 7.51776 17.6177C6.09379 17.0279 4.87669 16.0291 4.02039 14.7475C3.16409 13.466 2.70704 11.9593 2.70704 10.418C2.70921 8.35181 3.53095 6.3709 4.99194 4.90991C6.45294 3.44891 8.43385 2.62717 10.5 2.625ZM10.5 1.55859C8.74779 1.55859 7.03492 2.07819 5.578 3.05167C4.12108 4.02515 2.98555 5.40879 2.31501 7.02763C1.64446 8.64647 1.46902 10.4278 1.81086 12.1463C2.1527 13.8649 2.99647 15.4435 4.23548 16.6825C5.47449 17.9215 7.05308 18.7653 8.77163 19.1071C10.4902 19.449 12.2715 19.2735 13.8903 18.603C15.5092 17.9324 16.8928 16.7969 17.8663 15.34C18.8398 13.8831 19.3594 12.1702 19.3594 10.418C19.3594 8.06832 18.426 5.8149 16.7645 4.15345C15.1031 2.49199 12.8497 1.55859 10.5 1.55859Z" fill="black"/>
<path d="M10.6772 2.625C11.0201 2.625 11.6255 3.22547 12.1423 4.54289C12.751 6.09492 13.0857 8.1818 13.0857 10.418C13.0857 12.6541 12.7575 14.741 12.1423 16.293C11.6255 17.6055 11.0218 18.2109 10.6772 18.2109C10.3327 18.2109 9.72896 17.6105 9.21216 16.293C8.60513 14.741 8.2688 12.6541 8.2688 10.418C8.2688 8.1818 8.59692 6.09492 9.21216 4.54289C9.7306 3.22383 10.336 2.625 10.6772 2.625ZM10.6772 1.55859C8.75771 1.55859 7.20239 5.52562 7.20239 10.418C7.20239 15.3103 8.75771 19.2773 10.6772 19.2773C12.5968 19.2773 14.1521 15.3103 14.1521 10.418C14.1521 5.52562 12.5968 1.55859 10.6772 1.55859Z" fill="black"/>
<path d="M2.89746 13.1857H18.4571" stroke="black" stroke-width="1.5" stroke-miterlimit="10"/>
<path d="M2.89746 7.64859H18.4571" stroke="black" stroke-width="1.5" stroke-miterlimit="10"/>
</svg>
