<svg width="405" height="393" viewBox="0 0 405 393" fill="none" xmlns="http://www.w3.org/2000/svg">
<path d="M195.743 349.856C196.338 350.272 196.934 350.688 197.53 351.105C204.041 355.66 210.553 360.22 217.064 364.776C225.38 370.595 233.697 376.419 242.01 382.246C244.844 384.235 247.679 386.221 250.51 388.211C251.246 388.73 251.983 389.246 252.716 389.769C253.813 390.544 255.09 390.846 256.239 391.529C257.079 392.026 258.02 392.839 259.112 392.152C259.55 391.877 259.887 391.735 259.864 391.143C259.83 390.269 259.773 389.395 259.721 388.524C259.716 388.44 259.739 388.413 259.811 388.371C260.072 388.218 260.333 388.066 260.595 387.913C260.801 387.795 261.161 387.936 261.328 388.066C261.928 388.52 262.526 388.974 263.125 389.429C263.716 389.108 264.307 388.787 264.898 388.467C265.232 388.287 265.844 388.631 266.29 388.898C272.695 385.156 279.098 381.414 285.503 377.675C289.088 375.579 292.673 373.486 296.258 371.389C297.194 370.843 297.974 370.538 298.514 369.564C298.863 368.934 298.89 368.537 299.489 368.193C300.536 367.59 301.582 366.983 302.627 366.379C303.505 365.871 304.389 365.367 305.257 364.844C305.923 364.439 305.695 363.366 305.695 362.721C305.695 362.545 306.478 362.175 306.626 362.076C306.837 361.938 307.129 362.022 307.335 362.129C308.569 362.775 309.382 362.954 310.61 362.164C311.33 361.702 311.222 358.513 310.566 358.123C310.499 358.085 310.349 357.986 310.387 357.883C310.694 357.058 304.402 354.289 303.58 353.866C303.481 353.816 303.401 353.736 303.401 353.625C303.401 352.392 302.515 352.281 301.568 351.815C301.074 351.574 299.444 350.425 298.908 350.837C298.714 350.986 298.392 350.883 298.199 350.78C284.142 343.295 270.087 335.811 256.038 328.315C253.569 326.997 251.101 325.676 248.634 324.355C247.449 323.721 245.438 322.129 244.011 322.671C229.338 328.869 214.662 335.059 200.014 341.314C198.766 341.848 197.519 342.379 196.274 342.921C195.383 343.307 193.988 343.681 194.057 344.873C194.151 346.484 194.328 348.867 195.743 349.856Z" fill="#EDF7FF"/>
<path d="M15.7235 167.049C15.7235 167.049 58.5224 279.192 76.3999 306.278C94.2778 333.367 121.365 326.055 149.807 316.031C178.249 306.01 291.205 278.107 320.458 266.731C349.713 255.356 361.631 216.348 345.379 181.949C329.127 147.547 285.787 65.4721 265.472 31.3407C245.156 -2.79056 201.815 -8.20926 171.207 11.0254C140.597 30.2562 66.9197 79.2842 40.6442 100.684C14.369 122.084 8.13922 147.818 15.7235 167.049Z" fill="#EDF7FF"/>
<path d="M274.802 46.7029C267.009 46.7029 260.669 53.0418 260.669 60.8358C260.669 68.6297 267.009 74.9687 274.802 74.9687C282.594 74.9687 288.934 68.6297 288.934 60.8358C288.934 53.0418 282.594 46.7029 274.802 46.7029ZM274.802 76.1143C266.377 76.1143 259.523 69.2598 259.523 60.8358C259.523 52.4118 266.377 45.5573 274.802 45.5573C283.226 45.5573 290.08 52.4118 290.08 60.8358C290.08 69.2598 283.226 76.1143 274.802 76.1143Z" fill="#77BAFA"/>
<path d="M274.801 43.7244C265.365 43.7244 257.689 51.4 257.689 60.8359C257.689 70.2719 265.365 77.9474 274.801 77.9474C284.237 77.9474 291.914 70.2719 291.914 60.8359C291.914 51.4 284.237 43.7244 274.801 43.7244ZM274.801 79.093C264.734 79.093 256.544 70.9019 256.544 60.8359C256.544 50.7699 264.734 42.5788 274.801 42.5788C284.869 42.5788 293.059 50.7699 293.059 60.8359C293.059 70.9019 284.869 79.093 274.801 79.093ZM268.192 89.7089H281.411V83.4806C281.411 83.2286 281.573 83.0071 281.811 82.9346C283.065 82.5374 284.297 82.0257 285.469 81.4186C285.691 81.3002 285.961 81.3422 286.138 81.5217L290.545 85.9284L299.892 76.5803L295.485 72.1736C295.309 71.9979 295.267 71.7268 295.382 71.5053C295.991 70.333 296.501 69.1033 296.899 67.847C296.975 67.6064 297.195 67.446 297.445 67.446H303.676V54.2258H297.445C297.195 54.2258 296.975 54.0654 296.899 53.8286C296.501 52.5723 295.991 51.3388 295.382 50.1665C295.267 49.945 295.309 49.6739 295.485 49.4982L299.892 45.0915L290.545 35.7434L286.139 40.1501C285.962 40.3296 285.691 40.3716 285.47 40.2571C284.297 39.6461 283.066 39.1344 281.811 38.7372C281.573 38.6647 281.411 38.4432 281.411 38.1912V31.9629H268.192V38.1912C268.192 38.4432 268.03 38.6647 267.792 38.7372C266.537 39.1344 265.305 39.6461 264.134 40.2571C263.912 40.3716 263.641 40.3296 263.464 40.1501L259.057 35.7434L249.71 45.0915L254.118 49.4982C254.294 49.6739 254.336 49.945 254.221 50.1665C253.612 51.3388 253.101 52.5723 252.703 53.8286C252.628 54.0654 252.407 54.2258 252.157 54.2258H245.927V67.446H252.157C252.407 67.446 252.628 67.6064 252.703 67.847C253.101 69.0995 253.612 70.333 254.221 71.5053C254.336 71.7268 254.294 71.9979 254.118 72.1736L249.71 76.5803L259.057 85.9284L263.464 81.5217C263.641 81.3422 263.912 81.3002 264.134 81.4186C265.305 82.0257 266.537 82.5374 267.792 82.9346C268.03 83.0071 268.192 83.2286 268.192 83.4806V89.7089ZM281.984 90.8545H267.619C267.303 90.8545 267.046 90.5986 267.046 90.2817V83.8969C265.999 83.5418 264.971 83.1179 263.981 82.6252L259.462 87.1428C259.239 87.3643 258.876 87.3643 258.652 87.1428L248.496 76.9851C248.388 76.8782 248.328 76.733 248.328 76.5803C248.328 76.4275 248.388 76.2825 248.496 76.1755L253.014 71.658C252.521 70.6652 252.094 69.6379 251.742 68.5916H245.354C245.037 68.5916 244.781 68.3358 244.781 68.0188V53.653C244.781 53.336 245.037 53.0802 245.354 53.0802H251.742C252.094 52.0339 252.521 51.0066 253.014 50.0138L248.496 45.4963C248.388 45.3894 248.328 45.2443 248.328 45.0915C248.328 44.9388 248.388 44.7936 248.496 44.6867L258.652 34.529C258.876 34.3076 259.239 34.3076 259.462 34.529L263.981 39.0466C264.971 38.554 265.999 38.1301 267.046 37.7749V31.3901C267.046 31.0732 267.303 30.8173 267.619 30.8173H281.984C282.3 30.8173 282.556 31.0732 282.556 31.3901V37.7749C283.603 38.1301 284.631 38.554 285.622 39.0466L290.14 34.529C290.355 34.3152 290.735 34.3152 290.95 34.529L301.107 44.6867C301.214 44.7936 301.275 44.9388 301.275 45.0915C301.275 45.2443 301.214 45.3894 301.107 45.4963L296.589 50.0138C297.082 51.0066 297.508 52.0339 297.86 53.0802H304.249C304.565 53.0802 304.822 53.336 304.822 53.653V68.0188C304.822 68.3358 304.565 68.5916 304.249 68.5916H297.86C297.508 69.6379 297.082 70.6652 296.589 71.658L301.107 76.1755C301.214 76.2825 301.275 76.4275 301.275 76.5803C301.275 76.733 301.214 76.8782 301.107 76.9851L290.95 87.1428C290.726 87.3643 290.364 87.3643 290.14 87.1428L285.622 82.6252C284.631 83.1179 283.603 83.5418 282.556 83.8969V90.2817C282.556 90.5986 282.3 90.8545 281.984 90.8545Z" fill="#77BAFA"/>
<path d="M333.812 67.5299C339.742 67.5299 344.569 72.353 344.569 78.2834C344.569 84.2138 339.742 89.0405 333.812 89.0405C327.882 89.0405 323.059 84.2138 323.059 78.2834C323.059 72.353 327.882 67.5299 333.812 67.5299Z" fill="#1591FB"/>
<path d="M333.813 90.3465C340.465 90.3465 345.876 84.9355 345.876 78.2833C345.876 71.6312 340.465 66.2239 333.813 66.2239C327.165 66.2239 321.754 71.6312 321.754 78.2833C321.754 84.9355 327.165 90.3465 333.813 90.3465ZM313.73 83.1827V73.3839H318.37C318.653 72.498 319.008 71.6427 319.432 70.8293L316.149 67.5452L323.075 60.6181L326.359 63.9022C327.172 63.4783 328.028 63.1232 328.914 62.8406V58.2009H338.712V62.8406C339.602 63.1232 340.457 63.4783 341.271 63.9022L344.551 60.6181L351.478 67.5452L348.198 70.8293C348.622 71.6427 348.977 72.498 349.256 73.3839H353.899V83.1827H349.256C348.977 84.0686 348.622 84.924 348.198 85.7412L351.478 89.0214L344.551 95.9485L341.271 92.6683C340.454 93.0883 339.602 93.4473 338.712 93.726V98.3657H328.914V93.726C328.028 93.4473 327.172 93.0883 326.359 92.6683L323.075 95.9485L316.149 89.0214L319.432 85.7374C319.008 84.924 318.653 84.0686 318.37 83.1827H313.73Z" fill="#1591FB"/>
<path d="M309.985 272.001C303.187 272.372 296.388 272.742 289.589 273.109C272.941 274.014 256.293 274.919 239.645 275.824C218.768 276.954 197.892 278.084 177.016 279.215C157.533 280.269 138.051 281.323 118.568 282.369C106.101 283.041 93.6337 283.713 81.1653 284.366C78.3754 284.511 75.2777 284.946 72.5145 284.442C69.8815 283.961 68.5698 282.266 68.6103 279.703C68.6324 278.313 68.6546 276.92 68.6763 275.53C68.9146 260.557 69.1525 245.58 69.3904 230.607C69.725 209.562 70.0599 188.514 70.3951 167.469C70.6365 152.316 70.8767 137.164 71.1211 122.011C71.1444 120.549 71.168 119.082 71.1921 117.62C71.2646 113.255 73.0888 109.578 77.2019 107.726C80.1759 106.385 83.5501 106.569 86.7402 106.504C98.6438 106.267 110.547 106.03 122.451 105.793C141.794 105.408 161.138 105.022 180.482 104.64C201.442 104.224 222.402 103.811 243.363 103.399C260.116 103.071 276.869 102.742 293.622 102.421C298.601 102.326 303.579 102.231 308.559 102.143C311.495 102.089 314.641 101.784 317.508 102.513C322.029 103.67 324.381 107.722 324.148 112.255C324.094 113.305 324.041 114.355 323.988 115.405C323.697 121.03 323.411 126.659 323.121 132.287C322.124 151.717 321.131 171.15 320.135 190.583C319.165 209.619 318.191 228.652 317.222 247.688C316.986 252.339 316.75 256.99 316.517 261.641C316.464 262.703 316.411 263.764 316.36 264.826C316.288 266.342 316.148 267.946 315.377 269.29C314.231 271.287 312.162 271.879 309.985 272.001C309.199 272.047 308.057 270.901 309.304 270.829C310.663 270.752 311.966 270.512 312.971 269.527C314.217 268.301 314.41 266.277 314.506 264.639C314.528 264.276 314.54 263.917 314.558 263.558C314.641 261.851 314.727 260.144 314.814 258.437C315.147 251.816 315.484 245.198 315.821 238.576C316.846 218.444 317.874 198.312 318.905 178.184C319.829 160.164 320.749 142.143 321.673 124.123C321.876 120.144 322.082 116.165 322.284 112.186C322.472 108.585 321.219 104.862 317.515 103.67C316.055 103.201 314.547 103.223 313.039 103.25C303.092 103.407 293.144 103.617 283.197 103.808C264.762 104.167 246.327 104.526 227.892 104.892C206.792 105.308 185.694 105.725 164.595 106.141C146.655 106.5 128.716 106.855 110.776 107.21C101.821 107.39 92.8657 107.569 83.9102 107.749C81.1455 107.802 78.4052 108.363 76.214 110.166C73.6139 112.3 73.0812 115.447 73.0296 118.597C72.9548 123.21 72.8811 127.823 72.8078 132.436C72.5145 150.735 72.2231 169.038 71.9321 187.337C71.6072 207.763 71.2822 228.19 70.9576 248.612C70.7896 259.193 70.6216 269.775 70.4535 280.356C70.4322 281.697 70.8224 282.831 72.2117 283.243C73.2271 283.545 74.336 283.499 75.3877 283.45C76.3572 283.408 77.326 283.354 78.2948 283.304C82.6363 283.083 86.977 282.85 91.318 282.621C107.153 281.777 122.986 280.922 138.82 280.07C159.505 278.951 180.189 277.832 200.874 276.713C220.788 275.633 240.702 274.556 260.616 273.471C274.137 272.738 287.659 272.005 301.181 271.272C303.889 271.123 306.597 270.974 309.304 270.829C310.09 270.787 311.233 271.932 309.985 272.001Z" fill="#1790F9"/>
<path d="M79.7253 120.208C86.4072 120.052 93.0876 119.895 99.7692 119.739C116.183 119.353 132.597 118.967 149.01 118.582C169.712 118.097 190.413 117.608 211.115 117.123C230.66 116.665 250.204 116.206 269.749 115.748C282.692 115.443 295.634 115.137 308.577 114.835C310.913 114.778 313.249 114.725 315.587 114.671C315.934 114.664 317.12 114.79 317.093 115.328C316.608 125.211 316.123 135.094 315.638 144.976C314.648 165.139 313.659 185.302 312.669 205.468C311.873 221.682 311.077 237.896 310.282 254.11C310.173 256.329 310.064 258.547 309.955 260.766C309.948 260.888 309.697 260.927 309.622 260.93C302.838 261.274 296.054 261.618 289.27 261.961C272.684 262.802 256.099 263.642 239.514 264.486C218.775 265.536 198.038 266.586 177.3 267.64C158.059 268.617 138.818 269.591 119.577 270.565C107.483 271.18 95.3884 271.794 83.2939 272.405C81.6854 272.489 80.077 272.57 78.4678 272.654C78.107 272.669 76.9522 272.528 76.961 271.993C77.1149 262.393 77.2684 252.789 77.4227 243.185C77.7442 223.148 78.0653 203.112 78.3869 183.079C78.6641 165.773 78.9417 148.47 79.2197 131.168C79.2774 127.567 79.3351 123.97 79.3931 120.373C79.3988 119.983 81.2413 120.285 81.2326 120.865C81.0787 130.469 80.924 140.073 80.7709 149.677C80.4486 169.71 80.1274 189.746 79.8067 209.783C79.5283 227.085 79.2514 244.388 78.9734 261.694C78.9161 265.291 78.8585 268.888 78.8004 272.486C78.2983 272.268 77.7957 272.05 77.294 271.829C84.0771 271.485 90.8613 271.141 97.6456 270.798C114.231 269.958 130.817 269.118 147.402 268.274C168.14 267.224 188.878 266.17 209.616 265.119C228.856 264.146 248.097 263.168 267.338 262.194C279.433 261.58 291.527 260.965 303.621 260.354C304.866 260.289 306.112 260.228 307.356 260.163C307.651 260.148 307.946 260.132 308.241 260.117C308.683 260.094 308.119 260.19 308.117 260.228C308.271 257.096 308.425 253.969 308.578 250.838C309.42 233.684 310.262 216.531 311.104 199.381C312.077 179.558 313.05 159.739 314.022 139.917C314.433 131.558 314.843 123.195 315.254 114.835C315.756 115.053 316.259 115.271 316.76 115.492C310.079 115.649 303.398 115.805 296.717 115.962C280.303 116.348 263.89 116.733 247.476 117.119C226.774 117.604 206.073 118.089 185.371 118.578C165.826 119.036 146.282 119.494 126.737 119.953C113.794 120.258 100.852 120.56 87.9091 120.865C85.5725 120.919 83.2362 120.976 80.8999 121.029C80.4665 121.041 78.7825 120.231 79.7253 120.208Z" fill="#1790F9"/>
<path d="M76.136 284.591C75.268 284.614 74.3832 284.755 73.5699 285.064C71.9809 285.672 72.4888 287.669 72.4995 289.032C72.5144 290.827 72.9245 291.232 74.0659 292.056C77.0975 294.248 80.1555 296.402 83.2063 298.567C91.7055 304.601 100.225 310.608 108.673 316.714C112.028 319.138 115.413 322.442 119.668 322.839C121.323 322.995 123.015 322.797 124.676 322.694C127.95 322.491 131.223 322.285 134.498 322.079C148.659 321.193 162.819 320.303 176.98 319.41C197.07 318.146 217.159 316.878 237.249 315.606C258.202 314.285 279.155 312.956 300.107 311.623C316.858 310.562 333.609 309.492 350.358 308.416C357.835 307.934 365.338 307.576 372.804 306.93C375.691 306.682 378.513 305.655 380.838 303.921C382.16 302.936 382.232 301.859 380.548 301.099C380.277 300.973 380.002 300.851 379.731 300.725C377.077 299.518 374.427 298.311 371.773 297.101C362.421 292.835 353.073 288.562 343.728 284.282C337.825 281.574 331.921 278.871 326.029 276.14C324.387 275.38 322.741 274.617 321.107 273.838C317.666 272.199 314.194 271.737 310.379 271.921C309.674 271.955 308.421 270.924 309.666 270.867C313.433 270.683 317.461 270.901 320.893 272.608C321.454 272.883 320.79 272.558 321.141 272.73C321.267 272.791 321.393 272.852 321.515 272.913C321.928 273.112 322.34 273.307 322.756 273.501C325.807 274.941 328.874 276.35 331.936 277.759C341.468 282.151 351.015 286.516 360.557 290.876C367.297 293.954 374.033 297.036 380.777 300.099C381.888 300.603 383.901 301.359 383.763 302.84C383.561 305.067 379.506 306.586 377.768 307.133C375.943 307.709 374.098 307.95 372.208 308.083C362.688 308.752 353.161 309.336 343.637 309.947C325.758 311.096 307.875 312.23 289.995 313.368C268.823 314.713 247.652 316.049 226.481 317.39C207.084 318.615 187.688 319.837 168.292 321.059C155.736 321.846 143.181 322.636 130.625 323.423C128.495 323.557 126.366 323.698 124.236 323.816C121.528 323.973 118.771 324.065 116.193 323.06C114.235 322.3 112.667 321.048 111.01 319.814C107.783 317.409 104.496 315.083 101.222 312.746C93.2276 307.033 85.2027 301.366 77.1976 295.673C75.3104 294.329 73.3709 293.03 71.5475 291.602C70.8613 291.064 70.7459 290.078 70.6768 289.28C70.5764 288.119 70.3904 286.47 70.7536 285.332C71.2519 283.778 74.101 283.571 75.4238 283.533C76.1253 283.514 77.3817 284.553 76.136 284.591Z" fill="#1790F9"/>
<path d="M375.601 304.055C369.258 304.444 362.915 304.83 356.572 305.216C340.744 306.182 324.919 307.144 309.094 308.11C288.594 309.355 268.094 310.604 247.594 311.849C227.227 313.09 206.86 314.327 186.494 315.564C171.068 316.5 155.642 317.435 140.217 318.36C135.859 318.623 131.501 318.886 127.143 319.142C123.108 319.383 118.825 319.841 115.103 317.871C112.859 316.687 110.841 314.938 108.803 313.441C104.955 310.619 101.117 307.782 97.2794 304.948C90.0563 299.61 82.8394 294.26 75.6256 288.91C75.1165 288.532 74.6067 288.154 74.0973 287.776C73.2782 287.169 75.1291 287.222 75.5561 287.539C88.2837 296.983 100.977 306.48 113.803 315.79C114.818 316.527 115.459 317.046 116.444 317.5C118.325 318.367 120.594 318.501 122.636 318.394C123.438 318.352 124.24 318.302 125.042 318.256C128.925 318.031 132.809 317.794 136.692 317.561C151.477 316.675 166.261 315.778 181.045 314.881C201.179 313.663 221.313 312.437 241.446 311.215C262.122 309.955 282.797 308.698 303.473 307.438C319.883 306.441 336.291 305.441 352.7 304.44C360.04 303.994 367.375 303.547 374.711 303.1C374.764 303.096 374.814 303.092 374.864 303.089C375.513 303.05 376.842 303.982 375.601 304.055Z" fill="#1790F9"/>
<path d="M274.758 295.891C261.011 296.708 247.263 297.529 233.515 298.35C217.939 299.278 202.362 300.206 186.787 301.134C186.61 301.145 186.433 301.157 186.257 301.168C186.357 300.794 186.457 300.42 186.558 300.045C192.196 303.7 197.835 307.351 203.473 311.005C203.164 310.921 202.854 310.841 202.544 310.757C215.941 309.917 229.337 309.077 242.733 308.233C259.547 307.179 276.362 306.125 293.176 305.067C293.864 305.025 294.553 304.979 295.24 304.937C295.208 305.353 295.175 305.77 295.142 306.186C288.105 302.711 281.069 299.236 274.032 295.765C272.906 295.207 273.912 294.176 274.856 294.642C281.893 298.117 288.93 301.588 295.967 305.063C296.564 305.357 296.707 306.255 295.869 306.308C282.473 307.148 269.076 307.992 255.68 308.832C238.866 309.886 222.052 310.944 205.237 311.998C204.561 312.04 203.885 312.082 203.209 312.124C201.922 312.208 200.182 310.543 199.194 309.901C194.572 306.908 189.95 303.914 185.328 300.92C184.796 300.572 185.002 299.832 185.629 299.797C199.376 298.976 213.124 298.155 226.872 297.338C242.448 296.406 258.024 295.478 273.6 294.55C273.777 294.539 273.954 294.527 274.13 294.52C275.046 294.463 276.003 295.814 274.758 295.891Z" fill="#1790F9"/>
<path d="M337.879 288.857C330.853 285.473 323.83 282.09 316.804 278.706C314.271 277.484 311.737 276.266 309.203 275.044C309.825 275.346 310.166 275.17 309.552 275.205C309.191 275.224 308.829 275.243 308.468 275.262C298.421 275.797 288.374 276.331 278.326 276.866C259.85 277.847 241.375 278.829 222.9 279.81C202.059 280.917 181.219 282.029 160.379 283.136C143.237 284.045 126.096 284.958 108.954 285.87C101.575 286.26 94.1952 286.653 86.8156 287.046C86.8087 287.046 86.8011 287.046 86.7946 287.046C86.8687 286.768 86.9431 286.493 87.0172 286.214C93.47 290.747 99.9232 295.283 106.376 299.816C107.31 300.473 108.244 301.13 109.177 301.787C109.141 301.76 107.824 301.611 108.59 301.565C109.46 301.512 110.329 301.462 111.2 301.408C122.214 300.752 133.229 300.099 144.243 299.442C163.023 298.323 181.802 297.208 200.582 296.089C221.406 294.848 242.231 293.611 263.055 292.37C280.205 291.35 297.354 290.331 314.503 289.307C322.257 288.849 330.012 288.387 337.764 287.925C337.81 287.921 337.852 287.921 337.894 287.917C338.62 287.871 339.846 288.925 338.601 288.998C331.78 289.406 324.964 289.811 318.144 290.216C301.501 291.205 284.858 292.198 268.215 293.187C247.468 294.424 226.72 295.658 205.973 296.891C186.842 298.033 167.71 299.171 148.579 300.309C136.784 301.011 124.989 301.714 113.193 302.413C111.662 302.504 109.137 303.15 107.779 302.195C100.953 297.399 94.128 292.603 87.3025 287.806C86.8232 287.47 86.3444 287.134 85.8655 286.798C85.3771 286.455 85.4615 285.996 86.0885 285.966C93.0813 285.592 100.075 285.221 107.068 284.851C124.005 283.949 140.941 283.048 157.879 282.147C178.696 281.04 199.513 279.936 220.331 278.829C238.966 277.836 257.6 276.847 276.235 275.854C286.623 275.304 297.012 274.75 307.4 274.2C307.999 274.166 308.597 274.136 309.195 274.105C309.775 274.074 310.332 274.433 310.836 274.678C312.268 275.365 313.701 276.056 315.133 276.747C322.841 280.459 330.547 284.171 338.257 287.883C338.375 287.944 338.497 288.001 338.616 288.058C339.765 288.612 338.715 289.261 337.879 288.857Z" fill="#1790F9"/>
<path d="M143.826 185.065C144.788 185.065 145.739 184.633 146.368 183.809C157.396 169.389 172.744 172.387 173.392 172.521C175.118 172.88 176.814 171.776 177.179 170.054C177.544 168.331 176.453 166.636 174.731 166.266C173.925 166.09 154.839 162.203 141.287 179.925C140.214 181.326 140.481 183.335 141.885 184.408C142.465 184.851 143.148 185.065 143.826 185.065Z" fill="#1790F9"/>
<path d="M255.189 168.553C255.947 168.553 256.709 168.282 257.318 167.74C258.636 166.564 258.75 164.54 257.573 163.222C242.711 146.581 223.976 151.915 223.186 152.148C221.493 152.652 220.528 154.436 221.032 156.127C221.535 157.819 223.308 158.781 225 158.285C225.662 158.094 240.72 153.958 252.802 167.484C253.434 168.19 254.309 168.553 255.189 168.553Z" fill="#1790F9"/>
<path d="M158.934 205.083C160.819 205.083 162.347 203.555 162.347 201.669C162.347 199.786 160.819 198.259 158.934 198.259C157.05 198.259 155.523 199.786 155.523 201.669C155.523 203.555 157.05 205.083 158.934 205.083ZM165.9 187.631C174.644 187.372 181.734 194.249 181.734 202.994C181.734 211.739 174.644 219.036 165.9 219.3C157.155 219.559 150.066 212.682 150.066 203.937C150.066 195.192 157.155 187.891 165.9 187.631Z" fill="#1790F9"/>
<path d="M223.124 201.669C225.009 201.669 226.537 200.141 226.537 198.258C226.537 196.372 225.009 194.845 223.124 194.845C221.24 194.845 219.713 196.372 219.713 198.258C219.713 200.141 221.24 201.669 223.124 201.669ZM230.673 185.699C239.418 185.435 246.507 192.313 246.507 201.058C246.507 209.802 239.418 217.104 230.673 217.363C221.929 217.627 214.84 210.749 214.84 202.005C214.84 193.26 221.929 185.958 230.673 185.699Z" fill="#1790F9"/>
<path d="M225.578 241.654C225.578 241.654 198.708 229.178 169.918 244.533C169.918 244.533 197.108 217.344 225.578 241.654Z" fill="#1790F9"/>
<path d="M89.1054 120.384C93.9116 128.545 98.7178 136.701 103.524 144.862C103.608 145.007 103.613 145.152 103.509 145.286C102.342 146.802 101.175 148.322 100.007 149.838C99.5762 150.395 99.1451 150.957 98.7151 151.514C98.9083 151.266 98.6017 150.953 98.8465 151.266C98.9939 151.457 99.1417 151.648 99.2891 151.839C102.018 155.352 104.747 158.865 107.476 162.378C108.746 164.013 110.015 165.647 111.285 167.281C111.63 167.728 112.416 168.362 112.235 168.981C111.161 172.635 110.087 176.29 109.013 179.944C107.895 183.751 106.777 187.555 105.659 191.362C105.571 191.66 105.483 191.961 105.395 192.259C105.468 192.011 105.033 191.698 105.549 192.191C106.57 193.164 107.59 194.138 108.61 195.112C113.984 200.237 119.357 205.361 124.73 210.486C124.856 210.608 125.021 210.902 124.831 211.055C122.948 212.556 121.064 214.06 119.181 215.565C117.934 216.558 116.688 217.554 115.442 218.547C115.053 218.856 114.662 219.17 114.273 219.479C113.843 219.823 114.035 219.257 114.116 219.364C117.192 223.408 120.268 227.456 123.344 231.5C123.884 232.21 122.014 232.122 121.615 231.595C118.512 227.517 115.409 223.435 112.306 219.353C112.226 219.25 112.203 219.024 112.32 218.929C115.924 216.053 119.528 213.178 123.131 210.303C123.165 210.493 123.199 210.681 123.233 210.872C116.726 204.666 110.219 198.457 103.713 192.252C103.601 192.145 103.493 191.977 103.542 191.813C105.724 184.381 107.907 176.954 110.091 169.523C110.202 169.145 110.314 168.767 110.425 168.389C110.495 168.148 110.582 168.702 110.472 168.557C110.368 168.423 110.264 168.29 110.159 168.156C109.106 166.8 108.054 165.445 107 164.089C104.092 160.347 101.183 156.601 98.2748 152.854C97.8467 152.305 97.4187 151.751 96.9906 151.201C96.8913 151.075 96.9119 150.899 97.0047 150.777C97.9315 149.574 98.8587 148.367 99.7847 147.165C100.353 146.428 100.92 145.691 101.488 144.954C101.592 144.82 101.696 144.682 101.8 144.549C101.631 144.766 101.891 145.122 101.712 144.82C100.3 142.422 98.8881 140.024 97.4752 137.626C94.1098 131.913 90.7436 126.196 87.3771 120.48C86.9047 119.678 88.7663 119.808 89.1054 120.384Z" fill="#1790F9"/>
<path d="M108.898 179.887C106.538 181.193 104.177 182.499 101.817 183.805C101.094 184.202 99.6458 183.679 98.9107 183.56C97.57 183.343 96.2296 183.125 94.8892 182.911C95.1497 182.839 95.4094 182.766 95.6702 182.697C94.6025 186.432 93.5348 190.171 92.4667 193.909C92.4063 194.119 92.0886 194.138 91.9168 194.138C89.8482 194.138 87.7789 194.138 85.7103 194.138C85.0802 194.138 83.7315 193.184 84.971 193.184C87.04 193.184 89.1089 193.184 91.1775 193.184C90.9942 193.26 90.8105 193.336 90.6276 193.416C91.6953 189.678 92.763 185.939 93.8303 182.205C93.9098 181.922 94.4046 181.957 94.6112 181.987C95.8519 182.19 97.0915 182.388 98.3322 182.591C99.0069 182.697 99.6828 182.808 100.358 182.915C101.309 183.068 99.8302 183.244 100.543 182.85C102.836 181.586 105.128 180.318 107.421 179.051C107.898 178.787 109.604 179.497 108.898 179.887Z" fill="#1790F9"/>
<path d="M102.247 157.437C107.656 156.7 113.064 155.963 118.473 155.226C119.128 155.138 119.795 154.97 120.448 155.146C121.35 155.39 122.208 156.066 122.998 156.528C125.428 157.956 127.857 159.381 130.286 160.809C129.763 160.709 129.24 160.614 128.717 160.519C131.72 157.582 134.723 154.645 137.726 151.709C138.064 151.377 139.732 152.064 139.461 152.327C136.457 155.264 133.454 158.201 130.451 161.137C130.144 161.439 129.165 161.015 128.881 160.847C125.811 159.045 122.742 157.246 119.672 155.443C120.158 155.554 120.645 155.665 121.131 155.772C115.342 156.562 109.552 157.349 103.761 158.139C103.332 158.197 101.765 157.502 102.247 157.437Z" fill="#1790F9"/>
<path d="M128.72 181.498C127.025 178.596 125.332 175.69 123.637 172.788C122.956 171.619 123.122 171.455 123.709 170.187C124.427 168.641 125.144 167.09 125.862 165.54C126.122 165.796 126.382 166.052 126.641 166.311C125.307 165.926 123.972 165.54 122.637 165.154C122.263 165.047 121.655 164.719 121.928 164.253C123.062 162.321 124.197 160.385 125.331 158.452C125.679 157.861 127.46 158.475 127.03 159.209C125.896 161.141 124.761 163.073 123.627 165.009C123.391 164.707 123.154 164.406 122.918 164.108C124.253 164.494 125.587 164.879 126.922 165.261C127.162 165.33 127.88 165.647 127.702 166.032C127.022 167.499 126.344 168.965 125.665 170.432C125.412 170.978 125.16 171.524 124.907 172.066C124.989 171.89 124.779 171.676 124.984 172.028C125.146 172.303 125.307 172.582 125.468 172.856C127.129 175.705 128.789 178.55 130.45 181.395C130.922 182.208 129.06 182.082 128.72 181.498Z" fill="#1790F9"/>
<path d="M294.707 261.183C292.239 257.623 289.769 254.061 287.3 250.502C287.707 250.658 288.114 250.819 288.521 250.975C285.318 250.708 282.115 250.444 278.911 250.177C278.587 250.147 277.695 250.024 277.621 249.581C276.62 243.525 275.619 237.469 274.619 231.412C275.049 231.611 275.478 231.809 275.908 232.008C271.637 232.008 267.366 232.008 263.095 232.008C262.675 232.008 262.002 231.836 261.806 231.412C258.936 225.256 256.067 219.101 253.197 212.945C252.986 212.494 254.776 212.682 255.026 213.216C257.895 219.372 260.765 225.528 263.635 231.683C263.205 231.485 262.775 231.29 262.345 231.091C266.616 231.091 270.887 231.091 275.158 231.091C275.478 231.091 276.377 231.259 276.448 231.683C277.448 237.74 278.449 243.796 279.45 249.852C279.021 249.654 278.591 249.459 278.161 249.261C280.277 249.436 282.392 249.612 284.508 249.791C285.655 249.887 288.364 249.631 289.13 250.735C291.553 254.229 293.976 257.727 296.4 261.221C296.831 261.843 295.005 261.614 294.707 261.183Z" fill="#1790F9"/>
<path d="M277.264 242.104C274.781 241.715 272.299 241.329 269.818 240.943C270.069 240.863 270.319 240.783 270.57 240.703C269.169 242.112 267.767 243.521 266.366 244.926C266.104 245.19 265.709 245.22 265.363 245.121C264.162 244.781 262.961 244.441 261.759 244.101C262.05 244.075 262.341 244.048 262.632 244.021C257.494 248.226 252.356 252.43 247.218 256.634C246.921 256.879 246.419 256.749 246.107 256.627C240.234 254.358 234.36 252.09 228.487 249.822C227.303 249.363 228.36 248.458 229.28 248.814C235.153 251.086 241.027 253.354 246.9 255.622C246.53 255.618 246.159 255.618 245.789 255.615C249.196 252.827 252.603 250.039 256.01 247.252C257.637 245.919 259.265 244.586 260.893 243.254C262.055 242.303 264.418 243.586 265.679 243.945C265.345 244.01 265.01 244.075 264.676 244.14C265.556 243.254 266.436 242.371 267.316 241.486C267.829 240.97 268.778 239.542 269.649 239.679C272.126 240.065 274.602 240.451 277.078 240.836C278.054 240.989 278.517 242.299 277.264 242.104Z" fill="#1790F9"/>
<path d="M237.558 241.314C241.28 241.314 245.001 241.314 248.723 241.314C250.146 241.314 251.617 243.265 252.576 244.121C254.026 245.415 255.475 246.71 256.925 248.004C257.754 248.745 255.942 248.898 255.417 248.428C253.062 246.328 250.708 244.228 248.353 242.123C248.716 242.253 249.08 242.379 249.444 242.509C245.708 242.509 241.97 242.509 238.233 242.509C237.445 242.509 236.313 241.314 237.558 241.314Z" fill="#1790F9"/>
<path d="M258.357 223.68C261.373 221.121 264.388 218.563 267.403 216.004C267.815 215.657 268.227 215.305 268.638 214.958C268.633 214.962 268.605 213.491 268.605 213.144C268.605 211.109 268.605 209.069 268.605 207.03C268.605 206.877 268.86 206.824 268.955 206.797C271.712 206.068 274.468 205.342 277.225 204.613C278.907 204.166 280.591 203.723 282.274 203.276C282.628 203.185 282.982 203.089 283.336 202.998C282.912 203.108 283.008 203.273 283.134 202.692C284.43 196.735 285.726 190.778 287.023 184.821C287.153 184.225 288.999 184.687 288.863 185.313C287.528 191.446 286.194 197.579 284.859 203.712C284.825 203.868 284.634 203.91 284.508 203.941C281.356 204.777 278.203 205.61 275.051 206.442C273.53 206.843 272.008 207.248 270.487 207.649C269.813 207.824 270.444 207.32 270.444 207.901C270.444 208.794 270.444 209.692 270.444 210.585C270.444 212.227 270.444 213.869 270.444 215.515C270.444 216.042 268.348 217.36 267.989 217.665C265.349 219.903 262.71 222.144 260.07 224.382C259.596 224.787 257.891 224.077 258.357 223.68Z" fill="#1790F9"/>
<path d="M73.2621 312.735C72.7638 313.079 72.267 313.422 71.769 313.762C71.5174 313.938 71.8725 314.308 72.0608 314.667C72.6256 315.744 73.1907 316.821 73.7555 317.898C73.8349 318.051 73.0009 317.883 72.8887 317.772C71.792 316.676 70.6949 315.576 69.5977 314.48C69.8807 314.545 70.1641 314.61 70.4466 314.675C69.8834 315.064 69.3205 315.45 68.7573 315.84C68.6137 315.939 67.9087 315.794 67.8702 315.599C67.6896 314.69 67.714 313.644 68.1753 312.819C69.1097 311.146 71.6346 311.96 72.9826 312.494C73.5936 312.735 73.0101 312.807 72.6722 312.674C71.1455 312.07 69.3457 311.86 68.8191 313.743C68.6438 314.369 68.6622 315.198 68.7756 315.771C68.48 315.691 68.1841 315.614 67.8885 315.534C68.4518 315.145 69.0146 314.759 69.5779 314.369C69.76 314.243 70.287 314.427 70.4268 314.564C71.5235 315.66 72.6202 316.76 73.7173 317.856C73.4283 317.814 73.1396 317.772 72.8505 317.73C72.1368 316.366 71.4223 315.007 70.709 313.644C70.6929 313.617 70.6987 313.594 70.7269 313.579C71.2822 313.197 71.8378 312.811 72.3926 312.429C72.5985 312.288 73.3675 312.662 73.2621 312.735Z" fill="#1790F9"/>
<path d="M181.811 328.8C181.314 329.143 180.816 329.487 180.318 329.831C180.042 330.018 180.153 329.56 180.299 329.838C180.42 330.068 180.542 330.3 180.663 330.533C181.228 331.61 181.794 332.687 182.358 333.764C182.589 334.203 181.723 334.066 181.55 333.89C180.452 332.794 179.356 331.698 178.259 330.602C178.505 330.648 178.75 330.694 178.996 330.74C178.433 331.129 177.87 331.519 177.306 331.904C177.079 332.061 176.54 331.904 176.483 331.618C176.307 330.728 176.324 329.64 176.773 328.838C177.761 327.07 180.149 327.75 181.641 328.338C182.235 328.571 181.699 328.956 181.259 328.784C179.806 328.212 177.962 327.86 177.442 329.72C177.265 330.354 177.281 331.072 177.408 331.713C177.133 331.618 176.858 331.519 176.584 331.423C177.147 331.037 177.711 330.648 178.274 330.258C178.479 330.117 178.851 330.239 179.011 330.4C180.107 331.496 181.204 332.592 182.301 333.691C182.031 333.733 181.762 333.775 181.492 333.817C180.778 332.458 180.065 331.099 179.351 329.735C179.293 329.625 179.323 329.537 179.423 329.468C179.978 329.086 180.533 328.704 181.089 328.319C181.372 328.124 182.209 328.529 181.811 328.8Z" fill="#1790F9"/>
<path d="M84.2611 323.759C84.0125 323.133 83.7647 322.507 83.5165 321.88C83.7513 321.964 83.9858 322.052 84.221 322.14C82.7344 322.53 81.2482 322.919 79.7616 323.312C79.4736 323.385 78.6732 323.015 79.1464 322.717C80.4615 321.896 81.7763 321.071 83.0914 320.25C83.0617 320.361 83.0319 320.471 83.0025 320.582C82.7504 319.948 82.4992 319.31 82.2471 318.677C82.1379 318.398 82.4163 318.257 82.6523 318.264C83.6188 318.295 84.6369 318.581 85.4201 319.154C87.1121 320.395 86.0505 322.556 85.1226 323.908C84.8751 324.267 84.0026 323.901 84.2825 323.496C85.0432 322.388 86.1735 320.399 84.5857 319.452C84.0419 319.131 83.3557 318.986 82.726 318.967C82.8616 318.829 82.996 318.692 83.1312 318.554C83.3828 319.188 83.6341 319.826 83.8857 320.46C83.9323 320.578 83.9128 320.723 83.7964 320.796C82.4816 321.617 81.1661 322.442 79.8513 323.263C79.6466 323.064 79.4415 322.866 79.2361 322.671C80.7223 322.278 82.2089 321.888 83.6952 321.499C83.9369 321.434 84.2939 321.491 84.3997 321.758C84.6479 322.385 84.8961 323.015 85.1444 323.641C85.3437 324.145 84.4188 324.16 84.2611 323.759Z" fill="#1790F9"/>
<path d="M321.693 322.209C321.445 321.578 321.197 320.952 320.949 320.326C321.197 320.429 321.445 320.532 321.689 320.635C320.204 321.025 318.718 321.418 317.231 321.808C317.019 321.861 316.192 321.575 316.585 321.326C317.626 320.677 318.665 320.024 319.707 319.375C319.933 319.234 320.154 319.096 320.38 318.955C320.616 318.806 320.464 319.096 320.357 318.829C320.131 318.26 319.906 317.691 319.681 317.122C319.62 316.973 319.868 316.908 319.963 316.912C320.926 316.943 321.938 317.191 322.747 317.725C324.553 318.917 323.545 321.04 322.583 322.445C322.403 322.705 321.51 322.399 321.728 322.083C322.465 321.006 323.595 319.047 322.174 318.008C321.674 317.641 320.742 317.458 320.318 317.443C320.414 317.374 320.506 317.305 320.601 317.233C320.853 317.871 321.105 318.504 321.357 319.142C321.388 319.219 321.315 319.276 321.262 319.31C319.948 320.131 318.631 320.956 317.316 321.777C317.1 321.62 316.885 321.46 316.67 321.3C318.157 320.91 319.643 320.521 321.128 320.127C321.376 320.062 321.77 320.188 321.869 320.437C322.117 321.067 322.365 321.693 322.613 322.319C322.736 322.629 321.815 322.514 321.693 322.209Z" fill="#1790F9"/>
<path d="M334.321 324.393C334.569 323.767 334.817 323.137 335.066 322.511C335.142 322.32 335.436 322.354 335.589 322.396C337.074 322.786 338.564 323.179 340.049 323.568C339.931 323.694 339.812 323.82 339.698 323.95C338.38 323.125 337.067 322.304 335.753 321.48C335.677 321.438 335.535 321.323 335.577 321.216C335.829 320.578 336.081 319.944 336.333 319.307C336.547 319.437 336.757 319.566 336.971 319.7C336.269 319.719 335.547 319.914 334.943 320.277C333.29 321.262 334.417 323.347 335.211 324.504C335.455 324.859 334.527 324.787 334.352 324.531C333.435 323.198 332.396 321.143 334.046 319.937C334.76 319.414 335.742 319.188 336.616 319.162C336.765 319.158 337.361 319.288 337.254 319.555C337.002 320.189 336.75 320.827 336.498 321.46C336.44 321.373 336.383 321.285 336.326 321.193C337.639 322.018 338.957 322.839 340.271 323.664C340.702 323.931 340.217 324.122 339.919 324.046C338.434 323.656 336.948 323.263 335.463 322.873C335.635 322.835 335.81 322.797 335.986 322.759C335.738 323.385 335.49 324.011 335.241 324.641C335.108 324.97 334.199 324.699 334.321 324.393Z" fill="#1790F9"/>
<path d="M53.1633 306.079C52.9155 305.448 52.6672 304.822 52.4186 304.196C52.6657 304.299 52.9124 304.402 53.1591 304.505C51.6729 304.899 50.1862 305.288 48.7004 305.678C48.4858 305.735 47.6587 305.441 48.0554 305.196C49.096 304.543 50.1374 303.894 51.1772 303.241C51.4013 303.1 51.6255 302.963 51.8497 302.821C52.0891 302.672 51.9333 302.97 51.8264 302.699C51.6011 302.13 51.3754 301.561 51.1497 300.992C51.0901 300.839 51.338 300.774 51.433 300.778C52.398 300.809 53.4069 301.057 54.2172 301.592C56.025 302.783 55.0157 304.91 54.0507 306.315C53.8694 306.579 52.9785 306.269 53.1973 305.949C53.9369 304.872 55.0634 302.917 53.6425 301.878C53.2809 301.615 52.8379 301.489 52.4049 301.393C52.2552 301.362 51.6965 301.313 51.7874 301.313C51.8817 301.244 51.9761 301.172 52.0711 301.103C52.3224 301.737 52.5744 302.374 52.8261 303.008C52.8566 303.085 52.7845 303.146 52.7306 303.18C51.4155 304.005 50.1003 304.826 48.7852 305.647C48.5706 305.487 48.3556 305.326 48.1406 305.166C49.6264 304.776 51.1127 304.387 52.5993 303.994C52.849 303.929 53.2397 304.055 53.3393 304.307C53.5883 304.933 53.8357 305.559 54.0847 306.189C54.2081 306.499 53.2866 306.388 53.1633 306.079Z" fill="#1790F9"/>
<path d="M364.48 292.805C377.682 291.384 390.883 289.96 404.084 288.539C404.057 288.853 404.03 289.17 404.004 289.486C390.81 284.133 377.613 278.779 364.415 273.425C364.916 273.627 365.114 273.494 364.66 273.543C364.297 273.585 363.938 273.627 363.579 273.669C362.288 273.818 360.998 273.971 359.707 274.12C355.602 274.594 351.497 275.067 347.392 275.544C341.435 276.232 335.478 276.923 329.52 277.61C328.822 277.694 328.123 276.679 329.055 276.572C336.566 275.701 344.077 274.834 351.589 273.964C355.472 273.513 359.356 273.066 363.239 272.616C364.801 272.436 365.634 272.81 367.096 273.406C379.606 278.481 392.116 283.556 404.626 288.631C405.13 288.833 405.138 289.513 404.55 289.578C391.349 291.002 378.151 292.423 364.95 293.847C364.247 293.92 363.549 292.904 364.48 292.805Z" fill="#1790F9"/>
<path d="M405.004 289.242C405.004 290.021 405.004 290.796 405.004 291.572C405.004 291.675 404.813 291.724 404.744 291.732C392.696 292.904 380.645 294.077 368.593 295.249C368.203 295.287 366.978 294.626 367.734 294.554C374.283 293.916 380.836 293.278 387.385 292.645C391.52 292.24 395.66 291.839 399.799 291.438C400.964 291.323 402.132 291.209 403.297 291.094C403.488 291.079 403.679 291.06 403.87 291.041C403.45 291.083 403.625 290.72 403.625 290.197C403.625 289.754 403.625 289.315 403.625 288.872C403.625 288.505 405.004 288.746 405.004 289.242Z" fill="#1790F9"/>
<path d="M338.832 281.345C343.648 279.879 348.845 279.646 353.843 279.818C357.991 279.959 362.577 280.371 366.369 282.204C368.076 283.029 369.622 284.782 367.606 286.271C364.356 288.669 359.407 288.959 355.539 289.223C355.161 289.246 354.565 288.707 355.188 288.665C358.838 288.413 362.92 288.047 366.197 286.256C367.018 285.809 368.041 284.961 367.56 283.923C367.029 282.785 365.28 282.261 364.204 281.903C360.274 280.589 355.913 280.348 351.8 280.329C347.65 280.306 343.376 280.658 339.39 281.876C339.073 281.971 338.305 281.505 338.832 281.345Z" fill="#1790F9"/>
<path d="M251.138 320.479C236.465 326.677 221.789 332.867 207.141 339.122C205.893 339.656 204.646 340.187 203.401 340.729C202.51 341.111 201.115 341.489 201.184 342.681C201.278 344.292 201.455 346.675 202.87 347.664C203.465 348.08 204.061 348.497 204.657 348.913C211.169 353.469 217.68 358.028 224.191 362.584C232.508 368.403 240.824 374.227 249.138 380.054C251.971 382.044 254.806 384.029 257.637 386.019C258.373 386.538 259.11 387.054 259.844 387.577C260.94 388.352 262.217 388.654 263.367 389.337C264.206 389.834 265.147 390.643 266.239 389.96C266.677 389.685 267.014 389.544 266.991 388.952C266.957 388.077 266.9 387.203 266.848 386.332C266.843 386.248 266.867 386.221 266.938 386.179C267.199 386.027 267.461 385.874 267.722 385.721C267.928 385.599 268.288 385.744 268.456 385.874C269.196 386.435 269.935 386.997 270.675 387.554C270.43 387.504 270.185 387.455 269.941 387.405C270.635 387.027 271.33 386.653 272.025 386.275C272.482 386.03 273.467 386.767 273.822 386.943C273.606 386.912 273.389 386.882 273.173 386.851C279.658 383.059 286.144 379.271 292.63 375.479C296.215 373.387 299.8 371.294 303.385 369.198C304.321 368.652 305.101 368.346 305.641 367.372C305.99 366.742 306.018 366.345 306.616 366.001C307.663 365.398 308.709 364.791 309.754 364.188C310.633 363.68 311.516 363.176 312.385 362.652C313.05 362.248 312.823 361.175 312.823 360.529C312.823 360.354 313.606 359.983 313.754 359.884C313.964 359.746 314.257 359.83 314.463 359.937C315.696 360.583 316.509 360.762 317.737 359.972C318.458 359.51 318.348 356.321 317.695 355.932C317.626 355.893 317.477 355.794 317.514 355.691C317.821 354.866 311.529 352.098 310.707 351.674C310.608 351.624 310.528 351.544 310.528 351.433C310.528 350.2 309.643 350.089 308.695 349.623C308.201 349.383 306.571 348.233 306.036 348.646C305.841 348.794 305.519 348.691 305.326 348.588C291.27 341.104 277.214 333.619 263.166 326.123C260.697 324.802 258.228 323.484 255.761 322.163C254.577 321.529 252.565 319.937 251.138 320.479C250.878 320.578 250.039 320.189 250.401 320.051C252.386 319.299 254.494 320.945 256.183 321.85C259.491 323.622 262.802 325.39 266.114 327.154C275.105 331.954 284.099 336.743 293.094 341.535C297.359 343.807 301.623 346.079 305.888 348.352C305.652 348.332 305.415 348.313 305.179 348.294C305.957 347.699 306.731 348.153 307.509 348.531C308.666 349.096 309.833 349.642 310.975 350.238C311.498 350.505 311.448 350.983 311.448 351.479C311.448 351.51 311.149 351.372 311.431 351.517C311.643 351.628 311.856 351.739 312.069 351.849C313.467 352.571 314.861 353.297 316.25 354.034C316.944 354.404 318.283 354.885 318.455 355.752C318.5 355.989 318.848 355.924 318.943 356.306C319.115 356.978 319.035 357.726 319.035 358.414C319.035 359.796 318.817 360.537 317.4 361.087C316.122 361.583 315.014 360.758 313.901 360.178C314.138 360.197 314.374 360.216 314.611 360.235C314.439 360.346 313.743 360.663 313.743 360.873C313.743 361.484 313.843 362.145 313.559 362.702C313.272 363.26 312.059 363.703 311.565 363.989C310.489 364.615 309.41 365.238 308.332 365.86C307.419 366.387 307.12 366.467 306.72 367.307C306.206 368.388 305.677 368.717 304.722 369.274C303.374 370.061 302.027 370.847 300.679 371.638C292.592 376.358 284.507 381.085 276.42 385.809C275.666 386.248 274.911 386.691 274.156 387.13C273.463 387.539 272.753 386.928 272.113 386.611C272.33 386.641 272.546 386.672 272.762 386.702C272.068 387.077 271.373 387.455 270.678 387.829C270.466 387.944 270.116 387.81 269.944 387.68C269.204 387.119 268.465 386.557 267.725 385.996C267.97 386.046 268.215 386.095 268.459 386.149C268.184 386.309 267.765 386.458 267.775 386.622C267.807 387.168 267.838 387.714 267.867 388.257C267.918 389.2 268.042 389.715 267.207 390.239C266.228 390.853 265.27 390.804 264.216 390.418C263.61 390.193 263.038 389.715 262.484 389.387C262.322 389.288 261.751 389.127 262.247 389.192C261.921 389.15 261.605 389.047 261.294 388.952C259.577 388.406 257.864 386.817 256.411 385.794C249.422 380.883 242.423 375.983 235.425 371.084C227.289 365.387 219.153 359.693 211.015 353.999C208.52 352.25 206.025 350.505 203.53 348.76C203.025 348.409 202.521 348.054 202.016 347.702C200.429 346.591 200.532 344.277 200.267 342.555C199.989 340.741 204.124 339.672 205.323 339.16C209.182 337.506 213.045 335.868 216.91 334.226C225.975 330.381 235.045 326.543 244.116 322.709C246.211 321.823 248.306 320.937 250.401 320.051C250.657 319.944 251.501 320.326 251.138 320.479Z" fill="#1790F9"/>
<path d="M264.459 346.052C268.424 346.106 275.785 347.313 276.435 352.33C276.703 354.408 274.965 356.023 273.388 357.02C270.89 358.601 267.719 359.059 264.824 359.093C260.867 359.147 253.489 357.764 252.848 352.815C252.579 350.742 254.318 349.127 255.895 348.13C258.392 346.549 261.563 346.091 264.459 346.052C264.787 346.049 265.445 346.541 264.824 346.549C261.109 346.599 254.769 347.641 253.806 352.094C253.376 354.079 255.033 355.725 256.545 356.684C258.857 358.142 261.779 358.562 264.459 358.601C268.16 358.646 274.529 357.444 275.477 353.056C275.907 351.07 274.25 349.424 272.738 348.466C270.426 347.003 267.503 346.583 264.824 346.549C264.498 346.545 263.838 346.045 264.459 346.052Z" fill="#1790F9"/>
<path d="M261.461 354.4C260.063 353.514 259.593 352.208 260.914 351.013C262.359 349.711 264.914 349.818 266.652 350.261C267.937 350.585 269.337 351.517 269.172 352.984C268.976 354.729 266.082 355.13 264.799 355.176C264.36 355.191 263.855 354.534 264.478 354.515C265.628 354.477 266.695 354.278 267.654 353.606C269.156 352.556 267.606 351.261 266.486 350.88C265.228 350.456 263.793 350.601 262.56 351.017C261.061 351.525 260.437 352.957 262.069 353.988C262.596 354.32 261.833 354.637 261.461 354.4Z" fill="#1790F9"/>
<path d="M264.912 349.795C262.789 349.871 259.216 352.079 257.657 349.52C256.478 347.588 264.527 346.996 265.146 347.007C266.057 347.026 272.76 347.458 272.354 349.509C272.13 350.643 270.416 351.002 269.428 350.96C267.808 350.891 266.477 349.86 264.795 349.795C264.307 349.776 264.058 349.184 264.69 349.211C266.234 349.272 267.392 349.856 268.814 350.341C268.967 350.394 272.516 349.917 271.096 348.836C270.781 348.596 270.256 348.455 269.9 348.336C268.634 347.916 267.294 347.741 265.971 347.626C263.73 347.435 261.233 347.733 259.194 348.73C259.397 349.199 259.6 349.669 259.803 350.139C260.224 350.173 260.638 350.135 261.044 350.028C261.33 349.963 261.613 349.825 261.885 349.719C262.761 349.375 263.638 349.241 264.572 349.207C264.965 349.192 265.536 349.772 264.912 349.795Z" fill="#1790F9"/>
<path d="M267.394 346.591C267.347 346.893 267.3 347.194 267.254 347.496C267.215 347.744 266.289 347.538 266.334 347.248C266.381 346.946 266.428 346.645 266.474 346.343C266.512 346.095 267.438 346.301 267.394 346.591Z" fill="#1790F9"/>
<path d="M264.059 346.392C264.042 346.694 264.025 346.996 264.008 347.297C263.995 347.523 263.794 347.595 263.589 347.576C263.429 347.561 263.067 347.435 263.078 347.217C263.096 346.916 263.112 346.614 263.13 346.312C263.142 346.087 263.344 346.014 263.548 346.033C263.709 346.049 264.071 346.175 264.059 346.392Z" fill="#1790F9"/>
<path d="M276.083 332.947C274.343 332.424 271.732 334.356 270.247 335.085C268.991 335.7 268.084 335.975 266.655 335.944C259.884 335.803 252.935 336.811 246.543 339.076C244.79 339.698 243.194 340.687 241.283 340.305C240.29 340.103 239.306 339.748 238.371 339.362C237.437 338.976 235.656 339.759 234.575 339.744C232.983 339.725 231.477 338.43 230.191 337.628C228.816 336.773 227.445 335.91 226.076 335.043C226.028 335.013 225.961 334.948 225.975 334.883C226.365 333.122 224.203 333.604 223.174 333.329C222.656 333.191 222.183 332.725 221.749 332.431C221.346 332.156 222.275 332.221 222.467 332.351C222.765 332.553 223.063 332.756 223.361 332.958C223.891 333.321 222.551 332.97 223.198 332.909C223.447 332.882 223.704 332.882 223.955 332.878C224.697 332.863 226.052 332.981 226.544 333.653C226.769 333.963 226.952 334.238 226.941 334.646C226.927 335.143 226.702 334.906 227.038 335.12C227.94 335.689 228.842 336.258 229.745 336.823C230.771 337.468 231.798 338.11 232.833 338.74C233.659 339.24 234.591 339.389 235.548 339.171C236.093 339.041 236.574 338.713 237.158 338.74C238.355 338.797 239.411 339.389 240.547 339.733C242.188 340.233 243.487 339.637 244.996 338.996C251.348 336.296 258.854 335.456 265.691 335.502C266.581 335.509 267.529 335.662 268.351 335.257C269.116 334.879 269.881 334.505 270.647 334.131C272.396 333.275 274.162 331.981 276.179 332.588C276.714 332.748 276.624 333.107 276.083 332.947Z" fill="#1790F9"/>
<path d="M259.054 324.003C258.089 323.389 256.255 324.897 255.208 325.027C254.302 325.141 252.907 325.183 252.237 324.412C250.642 322.571 253.92 321.953 255.195 321.445C255.551 321.304 256.271 321.815 255.737 322.025C255.231 322.228 254.725 322.43 254.22 322.629C253.891 322.762 253.562 322.892 253.234 323.026C252.978 324.057 253.241 324.538 254.023 324.462C254.448 324.5 254.891 324.416 255.298 324.309C256.8 323.904 258.099 322.644 259.651 323.629C260.178 323.965 259.404 324.225 259.054 324.003Z" fill="#1790F9"/>
<path d="M202.11 342.787C214.854 351.635 227.599 360.483 240.343 369.331C245.725 373.066 251.107 376.804 256.488 380.539C256.226 380.493 255.964 380.447 255.702 380.401C256.688 379.798 257.677 379.198 258.666 378.599C259.298 378.217 259.877 377.885 260.041 377.11C260.341 375.693 257.826 375.441 256.705 375.765C256.105 375.937 255.546 376.319 255.004 376.621C253.919 377.22 252.855 377.136 251.874 376.468C249.679 374.971 247.494 373.459 245.305 371.954C237.102 366.307 228.902 360.651 220.703 354.996C216.228 351.91 211.754 348.821 207.279 345.735C207.181 345.667 207.125 345.586 207.257 345.533C208.199 345.132 209.137 344.681 209.955 344.063C210.656 342.814 209.97 342.36 207.894 342.703C207.49 342.787 207.1 342.917 206.728 343.101C206.162 343.36 205.613 343.65 205.045 343.902C204.792 344.017 204.063 343.635 204.179 343.586C205.536 342.986 206.676 342.329 208.18 342.199C208.994 342.131 210.435 342.341 210.943 343.104C211.793 344.391 209.695 345.117 208.799 345.548C208.355 345.758 208.253 345.877 207.996 345.697C208.047 345.735 208.098 345.77 208.149 345.804C210.106 347.156 212.063 348.504 214.019 349.856C222.132 355.45 230.247 361.048 238.362 366.643C242.803 369.701 247.242 372.764 251.689 375.815C252.071 376.079 252.452 376.342 252.836 376.598C253.366 376.957 254.373 376.178 254.851 375.899C255.615 375.452 256.557 375.101 257.454 375.155C258.778 375.235 261.284 375.83 260.902 377.633C260.727 378.461 259.526 378.92 258.898 379.302C258.119 379.771 257.343 380.245 256.566 380.718C256.362 380.844 255.957 380.703 255.78 380.581C243.036 371.733 230.291 362.885 217.547 354.037C212.165 350.303 206.783 346.564 201.402 342.829C201.016 342.562 201.94 342.669 202.11 342.787Z" fill="#1790F9"/>
<path d="M317.577 356.47C316.528 357.092 315.477 357.718 314.427 358.341C313.699 358.772 312.471 357.68 311.882 357.352C310.53 356.603 309.336 356.47 308.002 357.218C306.885 357.841 305.77 358.471 304.655 359.097C300.103 361.659 295.555 364.229 291.008 366.799C290.802 366.914 290.539 366.849 290.351 366.731C289.462 366.169 288.605 365.493 287.466 365.745C285.751 366.123 288.007 367.693 288.422 367.914C288.576 367.995 288.851 368.258 288.585 368.403C281.402 372.313 274.22 376.224 267.037 380.134C267.017 379.989 266.997 379.848 266.976 379.703C267.792 380.23 268.609 380.757 269.424 381.284C269.206 381.261 268.987 381.238 268.768 381.215C268.887 381.146 269.006 381.081 269.125 381.012C269.332 380.894 269.59 380.963 269.781 381.077C270.224 381.345 271.684 381.952 271.662 382.639C271.627 383.705 270.364 384.159 269.552 384.606C267.208 385.885 265.42 386.977 262.939 385.457C261.8 384.759 260.698 383.987 259.601 383.223C258.81 382.674 257.921 382.177 257.634 381.203C257.392 380.386 259.005 379.829 259.476 379.538C261.005 378.595 262.49 377.205 260.363 375.731C259.849 375.376 260.618 375.132 260.958 375.368C262.19 376.22 262.903 377.446 261.874 378.778C261.391 379.405 260.524 379.832 259.867 380.241C259.536 380.443 259.198 380.634 258.852 380.81C257.843 381.322 259.912 382.658 260.196 382.861C262.034 384.151 264.313 386.339 266.624 385.236C267.609 384.766 268.575 384.254 269.527 383.724C269.966 383.475 271.357 382.868 270.352 382.173C269.976 381.914 269.578 381.681 269.186 381.444C269.405 381.467 269.623 381.49 269.842 381.509C269.724 381.578 269.604 381.646 269.486 381.715C269.282 381.83 269.015 381.768 268.829 381.646C268.013 381.119 267.197 380.592 266.381 380.065C266.239 379.974 266.123 379.745 266.32 379.634C273.502 375.724 280.685 371.817 287.867 367.907C287.922 368.067 287.976 368.231 288.03 368.395C287.094 367.899 285.29 366.788 286.212 365.566C287.343 364.069 289.917 365.715 290.946 366.364C290.728 366.345 290.508 366.322 290.29 366.299C294.997 363.637 299.706 360.98 304.419 358.326C305.849 357.524 308.372 355.465 310.157 355.908C310.933 356.099 311.578 356.489 312.272 356.871C312.654 357.085 313.035 357.298 313.417 357.508C313.564 357.589 313.711 357.673 313.859 357.753C314.34 358.024 313.942 357.703 313.626 357.89C314.705 357.253 315.783 356.611 316.861 355.97C317.174 355.786 318.001 356.218 317.577 356.47Z" fill="#1790F9"/>
<path d="M304.06 364.123C302.963 363.428 301.866 362.729 300.77 362.034C300.987 362.064 301.203 362.095 301.42 362.122C295.209 365.639 288.997 369.152 282.786 372.665C279.526 374.51 276.267 376.354 273.007 378.198C272.663 378.393 272.318 378.588 271.973 378.783C271.638 378.974 271.69 378.569 272.147 378.89C273.642 379.947 275.137 381.005 276.632 382.063C277.051 382.357 276.123 382.353 275.9 382.197C274.276 381.047 272.652 379.902 271.029 378.752C270.912 378.668 270.903 378.542 271.028 378.47C280.914 372.875 290.799 367.285 300.685 361.69C300.862 361.591 301.178 361.683 301.335 361.782C302.431 362.477 303.528 363.176 304.624 363.875C305.149 364.207 304.342 364.302 304.06 364.123Z" fill="#1790F9"/>
<path d="M276.388 382.876C280.257 380.608 284.126 378.34 287.994 376.068C289.552 375.155 291.11 374.239 292.668 373.326C292.571 373.383 292.624 372.803 292.624 372.436C292.624 372.108 292.624 371.783 292.624 371.459C292.624 371.596 292.795 371.6 292.43 371.359C291.482 370.741 290.534 370.118 289.585 369.496C289.063 369.156 289.859 369.011 290.16 369.209C291.109 369.832 292.057 370.45 293.005 371.073C293.864 371.634 293.546 372.547 293.546 373.521C293.546 373.834 293.01 374.006 292.778 374.143C291.826 374.701 290.874 375.262 289.922 375.819C285.654 378.325 281.386 380.826 277.118 383.331C276.849 383.487 276.003 383.102 276.388 382.876Z" fill="#1790F9"/>
<path d="M291.885 368.297C292.921 368.946 293.956 369.591 294.991 370.24C295.644 370.649 295.323 371.741 295.323 372.44C295.025 372.348 294.727 372.257 294.429 372.165C296.698 370.867 298.969 369.572 301.238 368.274C301.623 368.056 302.008 367.835 302.392 367.617C302.576 367.51 302.42 366.513 302.556 366.605C301.551 365.929 300.547 365.253 299.543 364.577C299.167 364.325 300.088 364.463 300.243 364.566C301.065 365.119 301.887 365.673 302.71 366.227C303.494 366.754 303.394 366.834 303.394 367.831C303.385 367.842 303.376 367.854 303.368 367.861C300.677 369.4 297.987 370.935 295.297 372.47C295.135 372.566 294.403 372.432 294.403 372.195C294.403 371.691 294.403 371.183 294.403 370.679C294.403 370.194 294.48 370.374 293.943 370.034C293.023 369.461 292.104 368.885 291.185 368.308C290.805 368.071 291.728 368.197 291.885 368.297Z" fill="#1790F9"/>
<path d="M252.953 352.059C251.151 350.956 249.349 349.856 247.547 348.756C247.82 348.783 248.093 348.814 248.366 348.844C248.065 349.344 247.765 349.845 247.465 350.345C247.354 350.528 246.989 350.406 246.837 350.356C245.741 349.978 244.644 349.604 243.547 349.23C242.62 348.917 242.108 348.493 241.34 347.855C241.604 347.897 241.867 347.939 242.131 347.985C241.096 349.283 240.062 350.585 239.027 351.888C238.903 352.044 238.451 351.88 238.324 351.807C234.62 349.776 230.917 347.74 227.212 345.701C226.673 345.407 227.514 345.396 227.757 345.529C231.46 347.565 235.164 349.6 238.868 351.636C238.633 351.609 238.399 351.582 238.165 351.559C239.199 350.257 240.233 348.955 241.268 347.653C241.405 347.481 241.932 347.679 242.057 347.782C242.981 348.554 243.068 348.687 244.132 349.05C245.145 349.394 246.158 349.741 247.171 350.089C246.962 350.089 246.753 350.093 246.544 350.097C246.845 349.596 247.145 349.096 247.445 348.596C247.588 348.359 248.099 348.584 248.263 348.684C250.065 349.787 251.867 350.887 253.669 351.987C254.074 352.235 253.142 352.174 252.953 352.059Z" fill="#1790F9"/>
<path d="M244.822 349.703C244.29 349.902 243.76 350.096 243.228 350.295C242.932 350.406 242.636 350.516 242.34 350.627C242.278 350.65 242.338 350.665 242.219 351.066C241.979 351.872 241.946 351.754 242.439 352.43C242.774 352.892 243.11 353.354 243.446 353.816C243.548 353.957 243.409 354.091 243.283 354.133C241.719 354.648 240.155 355.16 238.591 355.672C238.599 355.519 238.607 355.366 238.615 355.21C239.553 355.924 240.492 356.634 241.43 357.348C241.928 357.726 241.166 357.955 240.837 357.707C239.898 356.993 238.96 356.279 238.022 355.569C237.834 355.423 237.779 355.191 238.046 355.103C239.115 354.755 240.184 354.404 241.253 354.053C241.74 353.892 242.228 353.732 242.714 353.571C242.34 353.697 242.614 353.934 242.237 353.419C242.014 353.113 241.792 352.804 241.57 352.502C241.059 351.8 240.827 351.021 241.498 350.203C241.965 349.634 243.588 349.39 244.277 349.134C244.624 349.008 245.357 349.505 244.822 349.703Z" fill="#1790F9"/>
<path d="M6.27057 287.054L11.5514 270.397L16.4599 261.507L17.2084 252.552L20.7628 241.341L25.8672 232.768L26.4202 223.496L29.975 212.281L30.7265 211.746H37.5199L38.2493 212.281L41.8041 223.496L42.3609 232.848L47.4618 241.341L51.0159 252.552L51.882 262.485L56.6733 270.397L61.9537 287.054C62.1817 287.772 62.053 288.559 61.6062 289.166C61.1606 289.777 60.4503 290.136 59.6953 290.136H8.52932C7.77398 290.136 7.06409 289.777 6.61807 289.166C6.17128 288.559 6.04298 287.772 6.27057 287.054Z" fill="#1591FB"/>
<path d="M17.2078 252.552H51.0152L56.6726 270.397H11.5508L17.2078 252.552ZM31.8531 206.354C32.1659 205.369 33.0789 204.701 34.1115 204.701C35.1441 204.701 36.0571 205.369 36.3699 206.354L38.2487 212.281H29.9743L31.8531 206.354ZM26.4196 223.496H41.8035L47.4612 241.341H20.7622L26.4196 223.496Z" fill="#A5DFFF"/>
<path d="M0 295.031H68.2218V284.767H0V295.031Z" fill="#0C72E6"/>
<path d="M326.315 260.636L329.747 249.807L332.94 244.025L333.425 238.202L335.739 230.912L339.057 225.336L339.416 219.307L341.727 212.017L342.215 211.666H346.634L347.107 212.017L349.421 219.307L349.78 225.39L353.099 230.912L355.409 238.202L355.974 244.659L359.09 249.807L362.523 260.636C362.672 261.102 362.588 261.614 362.298 262.011C362.008 262.408 361.546 262.641 361.053 262.641H327.781C327.292 262.641 326.83 262.408 326.54 262.011C326.25 261.614 326.166 261.102 326.315 260.636Z" fill="#1591FB"/>
<path d="M333.427 238.202H355.411L359.093 249.807H329.75L333.427 238.202ZM342.951 208.16C343.157 207.522 343.749 207.087 344.421 207.087C345.093 207.087 345.685 207.522 345.888 208.16L347.11 212.017H341.729L342.951 208.16ZM339.419 219.307H349.424L353.101 230.912H335.742L339.419 219.307Z" fill="#A5DFFF"/>
<path d="M322.234 265.826H366.596V259.151H322.234V265.826Z" fill="#0C72E6"/>
<path d="M142.021 68.916C123.812 68.916 109.051 83.6791 109.051 101.886C109.051 120.098 123.812 134.857 142.021 134.857C160.23 134.857 174.991 120.098 174.991 101.886C174.991 83.6791 160.23 68.916 142.021 68.916Z" fill="#1591FB"/>
<path d="M118.898 96.2768V107.496H165.148V96.2768H118.898Z" fill="#A5DFFF"/>
<path d="M236.667 60.5801C236.35 60.5801 236.094 60.3242 236.094 60.0073V52.8778C236.094 52.5609 236.35 52.305 236.667 52.305C236.983 52.305 237.239 52.5609 237.239 52.8778V60.0073C237.239 60.3242 236.983 60.5801 236.667 60.5801Z" fill="#77BAFA"/>
<path d="M240.228 57.0132H233.1C232.784 57.0132 232.527 56.7573 232.527 56.4404C232.527 56.1234 232.784 55.8676 233.1 55.8676H240.228C240.545 55.8676 240.801 56.1234 240.801 56.4404C240.801 56.7573 240.545 57.0132 240.228 57.0132Z" fill="#77BAFA"/>
<path d="M225.069 40.001C224.753 40.001 224.496 39.7451 224.496 39.4282V32.3025C224.496 31.9856 224.753 31.7297 225.069 31.7297C225.385 31.7297 225.642 31.9856 225.642 32.3025V39.4282C225.642 39.7451 225.385 40.001 225.069 40.001Z" fill="#77BAFA"/>
<path d="M228.635 36.4385H221.506C221.19 36.4385 220.934 36.1826 220.934 35.8657C220.934 35.5487 221.19 35.2929 221.506 35.2929H228.635C228.951 35.2929 229.208 35.5487 229.208 35.8657C229.208 36.1826 228.951 36.4385 228.635 36.4385Z" fill="#77BAFA"/>
<path d="M197.143 153.366C196.827 153.366 196.57 153.11 196.57 152.793V145.667C196.57 145.35 196.827 145.094 197.143 145.094C197.46 145.094 197.716 145.35 197.716 145.667V152.793C197.716 153.11 197.46 153.366 197.143 153.366Z" fill="#77BAFA"/>
<path d="M200.709 149.803H193.581C193.264 149.803 193.008 149.547 193.008 149.23C193.008 148.913 193.264 148.658 193.581 148.658H200.709C201.025 148.658 201.282 148.913 201.282 149.23C201.282 149.547 201.025 149.803 200.709 149.803Z" fill="#77BAFA"/>
<path d="M348.354 128.167C348.037 128.167 347.781 127.911 347.781 127.594V120.464C347.781 120.147 348.037 119.891 348.354 119.891C348.671 119.891 348.927 120.147 348.927 120.464V127.594C348.927 127.911 348.671 128.167 348.354 128.167Z" fill="#77BAFA"/>
<path d="M351.917 124.6H344.788C344.475 124.6 344.215 124.344 344.215 124.027C344.215 123.714 344.475 123.454 344.788 123.454H351.917C352.234 123.454 352.49 123.714 352.49 124.027C352.49 124.344 352.234 124.6 351.917 124.6Z" fill="#77BAFA"/>
<path d="M336.901 143.628C336.584 143.628 336.328 143.373 336.328 143.056V135.93C336.328 135.613 336.584 135.357 336.901 135.357C337.218 135.357 337.474 135.613 337.474 135.93V143.056C337.474 143.373 337.218 143.628 336.901 143.628Z" fill="#77BAFA"/>
<path d="M340.464 140.065H333.338C333.021 140.065 332.766 139.81 332.766 139.493C332.766 139.176 333.021 138.92 333.338 138.92H340.464C340.781 138.92 341.037 139.176 341.037 139.493C341.037 139.81 340.781 140.065 340.464 140.065Z" fill="#77BAFA"/>
<path d="M198.288 81.7695C197.971 81.7695 197.715 81.5137 197.715 81.1967V74.0711C197.715 73.7541 197.971 73.4983 198.288 73.4983C198.604 73.4983 198.86 73.7541 198.86 74.0711V81.1967C198.86 81.5137 198.604 81.7695 198.288 81.7695Z" fill="#77BAFA"/>
<path d="M201.853 78.207H194.725C194.409 78.207 194.152 77.9512 194.152 77.6342C194.152 77.3173 194.409 77.0614 194.725 77.0614H201.853C202.17 77.0614 202.426 77.3173 202.426 77.6342C202.426 77.9512 202.17 78.207 201.853 78.207Z" fill="#77BAFA"/>
<path d="M354.085 212.937C353.768 212.937 353.512 212.677 353.512 212.364V205.235C353.512 204.918 353.768 204.662 354.085 204.662C354.401 204.662 354.657 204.918 354.657 205.235V212.364C354.657 212.677 354.401 212.937 354.085 212.937Z" fill="#77BAFA"/>
<path d="M357.648 209.371H350.518C350.205 209.371 349.945 209.115 349.945 208.798C349.945 208.481 350.205 208.225 350.518 208.225H357.648C357.965 208.225 358.22 208.481 358.22 208.798C358.22 209.115 357.965 209.371 357.648 209.371Z" fill="#77BAFA"/>
<path d="M145.022 341.237C144.706 341.237 144.449 340.981 144.449 340.665V333.535C144.449 333.218 144.706 332.962 145.022 332.962C145.339 332.962 145.595 333.218 145.595 333.535V340.665C145.595 340.981 145.339 341.237 145.022 341.237Z" fill="#77BAFA"/>
<path d="M148.584 337.674H141.456C141.139 337.674 140.883 337.415 140.883 337.102C140.883 336.785 141.139 336.529 141.456 336.529H148.584C148.9 336.529 149.157 336.785 149.157 337.102C149.157 337.415 148.9 337.674 148.584 337.674Z" fill="#77BAFA"/>
<path d="M61.397 148.21C61.0805 148.21 60.8242 147.955 60.8242 147.638V140.512C60.8242 140.195 61.0805 139.939 61.397 139.939C61.7132 139.939 61.9698 140.195 61.9698 140.512V147.638C61.9698 147.955 61.7132 148.21 61.397 148.21Z" fill="#77BAFA"/>
<path d="M64.9589 144.648H57.8306C57.514 144.648 57.2578 144.393 57.2578 144.076C57.2578 143.759 57.514 143.503 57.8306 143.503H64.9589C65.2751 143.503 65.5317 143.759 65.5317 144.076C65.5317 144.393 65.2751 144.648 64.9589 144.648Z" fill="#77BAFA"/>
</svg>
