<svg width="154" height="154" viewBox="0 0 154 154" fill="none" xmlns="http://www.w3.org/2000/svg">
<circle cx="76.5217" cy="76.5217" r="76.5217" fill="#E6F3FA"/>
<mask id="mask0_144_203" style="mask-type:alpha" maskUnits="userSpaceOnUse" x="0" y="0" width="154" height="154">
<circle cx="76.5217" cy="76.5217" r="76.5217" fill="#E9E8E8"/>
</mask>
<g mask="url(#mask0_144_203)">
<path d="M76.522 75.1553V-9.5H117.5L143 2.04969L164 28L195 89L188.5 163L158 42L111 2.04969L76.522 75.1553Z" fill="#D61821" stroke="white" stroke-width="2"/>
</g>
<circle cx="77.5231" cy="76.5231" r="66.215" fill="white"/>
<path d="M31.1703 94.7452V98.3546H30.2485V90.3546H31.1703V93.2921H31.2485C31.3891 92.9822 31.6 92.7361 31.8813 92.5538C32.1651 92.3689 32.5427 92.2765 33.0141 92.2765C33.4229 92.2765 33.781 92.3585 34.0883 92.5226C34.3956 92.684 34.6339 92.9327 34.8031 93.2686C34.975 93.602 35.061 94.0265 35.061 94.5421V98.3546H34.1391V94.6046C34.1391 94.128 34.0154 93.7595 33.768 93.4991C33.5232 93.2361 33.1833 93.1046 32.7485 93.1046C32.4464 93.1046 32.1755 93.1684 31.936 93.296C31.699 93.4236 31.5115 93.6098 31.3735 93.8546C31.238 94.0994 31.1703 94.3963 31.1703 94.7452ZM38.5131 98.4952C38.1329 98.4952 37.7878 98.4236 37.4779 98.2804C37.168 98.1345 36.922 97.9249 36.7397 97.6515C36.5574 97.3754 36.4662 97.0421 36.4662 96.6515C36.4662 96.3077 36.5339 96.0291 36.6693 95.8155C36.8048 95.5994 36.9858 95.4301 37.2123 95.3077C37.4389 95.1853 37.6889 95.0942 37.9623 95.0343C38.2384 94.9718 38.5157 94.9223 38.7943 94.8858C39.1589 94.839 39.4545 94.8038 39.6811 94.7804C39.9102 94.7543 40.0769 94.7114 40.1811 94.6515C40.2878 94.5916 40.3412 94.4874 40.3412 94.339V94.3077C40.3412 93.9223 40.2358 93.6228 40.0248 93.4093C39.8165 93.1957 39.5001 93.089 39.0756 93.089C38.6355 93.089 38.2904 93.1853 38.0404 93.378C37.7904 93.5707 37.6147 93.7765 37.5131 93.9952L36.6381 93.6827C36.7943 93.3181 37.0027 93.0343 37.2631 92.8311C37.5261 92.6254 37.8126 92.4822 38.1225 92.4015C38.435 92.3181 38.7423 92.2765 39.0443 92.2765C39.2371 92.2765 39.4584 92.2999 39.7084 92.3468C39.961 92.391 40.2045 92.4835 40.4389 92.6241C40.6759 92.7647 40.8725 92.977 41.0287 93.2608C41.185 93.5447 41.2631 93.9249 41.2631 94.4015V98.3546H40.3412V97.5421H40.2943C40.2318 97.6723 40.1277 97.8116 39.9818 97.9601C39.836 98.1085 39.642 98.2348 39.3998 98.339C39.1576 98.4431 38.8621 98.4952 38.5131 98.4952ZM38.6537 97.6671C39.0183 97.6671 39.3256 97.5955 39.5756 97.4522C39.8282 97.309 40.0183 97.1241 40.1459 96.8976C40.2761 96.671 40.3412 96.4327 40.3412 96.1827V95.339C40.3022 95.3858 40.2162 95.4288 40.0834 95.4679C39.9532 95.5043 39.8022 95.5369 39.6303 95.5655C39.461 95.5916 39.2957 95.615 39.1342 95.6358C38.9753 95.6541 38.8464 95.6697 38.7475 95.6827C38.5079 95.714 38.2839 95.7647 38.0756 95.8351C37.8699 95.9028 37.7032 96.0056 37.5756 96.1436C37.4506 96.2791 37.3881 96.464 37.3881 96.6983C37.3881 97.0186 37.5066 97.2608 37.7436 97.4249C37.9832 97.5864 38.2865 97.6671 38.6537 97.6671ZM47.6371 92.3546L45.4184 98.3546H44.4809L42.2621 92.3546H43.2621L44.9184 97.1358H44.9809L46.6371 92.3546H47.6371ZM51.1547 98.4796C50.5766 98.4796 50.0779 98.352 49.6586 98.0968C49.2419 97.839 48.9203 97.4796 48.6938 97.0186C48.4698 96.5551 48.3578 96.016 48.3578 95.4015C48.3578 94.7869 48.4698 94.2452 48.6938 93.7765C48.9203 93.3051 49.2354 92.9379 49.6391 92.6749C50.0453 92.4093 50.5193 92.2765 51.061 92.2765C51.3735 92.2765 51.682 92.3285 51.9867 92.4327C52.2914 92.5369 52.5688 92.7061 52.8188 92.9405C53.0688 93.1723 53.268 93.4796 53.4164 93.8624C53.5649 94.2452 53.6391 94.7166 53.6391 95.2765V95.6671H49.0141V94.8702H52.7016C52.7016 94.5317 52.6339 94.2296 52.4985 93.964C52.3656 93.6983 52.1755 93.4887 51.9281 93.3351C51.6833 93.1814 51.3943 93.1046 51.061 93.1046C50.6938 93.1046 50.3761 93.1957 50.1078 93.378C49.8422 93.5577 49.6378 93.7921 49.4945 94.0811C49.3513 94.3702 49.2797 94.6801 49.2797 95.0108V95.5421C49.2797 95.9952 49.3578 96.3793 49.5141 96.6944C49.6729 97.0069 49.893 97.2452 50.1742 97.4093C50.4555 97.5707 50.7823 97.6515 51.1547 97.6515C51.3969 97.6515 51.6156 97.6176 51.811 97.5499C52.0089 97.4796 52.1794 97.3754 52.3227 97.2374C52.4659 97.0968 52.5766 96.9223 52.6547 96.714L53.5453 96.964C53.4516 97.266 53.294 97.5317 53.0727 97.7608C52.8513 97.9874 52.5779 98.1645 52.2524 98.2921C51.9268 98.4171 51.561 98.4796 51.1547 98.4796ZM58.1352 98.3546V92.3546H59.057V98.3546H58.1352ZM58.6039 91.3546C58.4242 91.3546 58.2693 91.2934 58.1391 91.171C58.0115 91.0486 57.9477 90.9015 57.9477 90.7296C57.9477 90.5577 58.0115 90.4106 58.1391 90.2882C58.2693 90.1658 58.4242 90.1046 58.6039 90.1046C58.7836 90.1046 58.9373 90.1658 59.0649 90.2882C59.1951 90.4106 59.2602 90.5577 59.2602 90.7296C59.2602 90.9015 59.1951 91.0486 59.0649 91.171C58.9373 91.2934 58.7836 91.3546 58.6039 91.3546ZM64.9955 93.6983L64.1674 93.9327C64.1153 93.7947 64.0385 93.6606 63.9369 93.5304C63.838 93.3976 63.7026 93.2882 63.5307 93.2022C63.3588 93.1163 63.1388 93.0733 62.8705 93.0733C62.5033 93.0733 62.1973 93.158 61.9526 93.3272C61.7104 93.4939 61.5893 93.7061 61.5893 93.964C61.5893 94.1931 61.6726 94.3741 61.8393 94.5069C62.0059 94.6397 62.2664 94.7504 62.6205 94.839L63.5111 95.0577C64.0476 95.1879 64.4473 95.3871 64.7104 95.6554C64.9734 95.921 65.1049 96.2634 65.1049 96.6827C65.1049 97.0265 65.0059 97.3338 64.808 97.6046C64.6127 97.8754 64.3393 98.089 63.9877 98.2452C63.6361 98.4015 63.2273 98.4796 62.7611 98.4796C62.1492 98.4796 61.6427 98.3468 61.2416 98.0811C60.8406 97.8155 60.5867 97.4275 60.4799 96.9171L61.3549 96.6983C61.4382 97.0213 61.5958 97.2634 61.8276 97.4249C62.0619 97.5864 62.3679 97.6671 62.7455 97.6671C63.1752 97.6671 63.5164 97.5759 63.769 97.3936C64.0242 97.2088 64.1518 96.9874 64.1518 96.7296C64.1518 96.5213 64.0789 96.3468 63.933 96.2061C63.7872 96.0629 63.5632 95.9561 63.2611 95.8858L62.2611 95.6515C61.7117 95.5213 61.308 95.3194 61.0502 95.046C60.795 94.7699 60.6674 94.4249 60.6674 94.0108C60.6674 93.6723 60.7624 93.3728 60.9526 93.1124C61.1453 92.852 61.407 92.6476 61.7377 92.4991C62.071 92.3507 62.4486 92.2765 62.8705 92.2765C63.4643 92.2765 63.9304 92.4067 64.269 92.6671C64.6101 92.9275 64.8523 93.2713 64.9955 93.6983ZM70.7426 93.6983L69.9145 93.9327C69.8624 93.7947 69.7856 93.6606 69.684 93.5304C69.585 93.3976 69.4496 93.2882 69.2777 93.2022C69.1059 93.1163 68.8858 93.0733 68.6176 93.0733C68.2504 93.0733 67.9444 93.158 67.6996 93.3272C67.4574 93.4939 67.3363 93.7061 67.3363 93.964C67.3363 94.1931 67.4197 94.3741 67.5863 94.5069C67.753 94.6397 68.0134 94.7504 68.3676 94.839L69.2582 95.0577C69.7947 95.1879 70.1944 95.3871 70.4574 95.6554C70.7205 95.921 70.852 96.2634 70.852 96.6827C70.852 97.0265 70.753 97.3338 70.5551 97.6046C70.3598 97.8754 70.0863 98.089 69.7348 98.2452C69.3832 98.4015 68.9744 98.4796 68.5082 98.4796C67.8962 98.4796 67.3897 98.3468 66.9887 98.0811C66.5876 97.8155 66.3337 97.4275 66.227 96.9171L67.102 96.6983C67.1853 97.0213 67.3429 97.2634 67.5746 97.4249C67.809 97.5864 68.115 97.6671 68.4926 97.6671C68.9223 97.6671 69.2634 97.5759 69.516 97.3936C69.7712 97.2088 69.8988 96.9874 69.8988 96.7296C69.8988 96.5213 69.8259 96.3468 69.6801 96.2061C69.5343 96.0629 69.3103 95.9561 69.0082 95.8858L68.0082 95.6515C67.4587 95.5213 67.0551 95.3194 66.7973 95.046C66.5421 94.7699 66.4145 94.4249 66.4145 94.0108C66.4145 93.6723 66.5095 93.3728 66.6996 93.1124C66.8923 92.852 67.1541 92.6476 67.4848 92.4991C67.8181 92.3507 68.1957 92.2765 68.6176 92.2765C69.2113 92.2765 69.6775 92.4067 70.016 92.6671C70.3572 92.9275 70.5994 93.2713 70.7426 93.6983ZM76.0209 95.9015V92.3546H76.9428V98.3546H76.0209V97.339H75.9584C75.8178 97.6436 75.599 97.9028 75.3022 98.1163C75.0053 98.3272 74.6303 98.4327 74.1772 98.4327C73.8022 98.4327 73.4688 98.3507 73.1772 98.1866C72.8855 98.0199 72.6563 97.7699 72.4897 97.4366C72.323 97.1007 72.2397 96.6775 72.2397 96.1671V92.3546H73.1615V96.1046C73.1615 96.5421 73.2839 96.891 73.5287 97.1515C73.7761 97.4119 74.0912 97.5421 74.474 97.5421C74.7032 97.5421 74.9363 97.4835 75.1733 97.3663C75.4128 97.2491 75.6134 97.0694 75.7748 96.8272C75.9389 96.5851 76.0209 96.2765 76.0209 95.9015ZM81.1469 98.4796C80.5688 98.4796 80.0701 98.352 79.6508 98.0968C79.2341 97.839 78.9125 97.4796 78.686 97.0186C78.462 96.5551 78.35 96.016 78.35 95.4015C78.35 94.7869 78.462 94.2452 78.686 93.7765C78.9125 93.3051 79.2276 92.9379 79.6313 92.6749C80.0375 92.4093 80.5115 92.2765 81.0531 92.2765C81.3656 92.2765 81.6742 92.3285 81.9789 92.4327C82.2836 92.5369 82.561 92.7061 82.811 92.9405C83.061 93.1723 83.2602 93.4796 83.4086 93.8624C83.557 94.2452 83.6313 94.7166 83.6313 95.2765V95.6671H79.0063V94.8702H82.6938C82.6938 94.5317 82.6261 94.2296 82.4906 93.964C82.3578 93.6983 82.1677 93.4887 81.9203 93.3351C81.6755 93.1814 81.3865 93.1046 81.0531 93.1046C80.686 93.1046 80.3682 93.1957 80.1 93.378C79.8344 93.5577 79.63 93.7921 79.4867 94.0811C79.3435 94.3702 79.2719 94.6801 79.2719 95.0108V95.5421C79.2719 95.9952 79.35 96.3793 79.5063 96.6944C79.6651 97.0069 79.8852 97.2452 80.1664 97.4093C80.4477 97.5707 80.7745 97.6515 81.1469 97.6515C81.3891 97.6515 81.6078 97.6176 81.8031 97.5499C82.0011 97.4796 82.1716 97.3754 82.3149 97.2374C82.4581 97.0968 82.5688 96.9223 82.6469 96.714L83.5375 96.964C83.4438 97.266 83.2862 97.5317 83.0649 97.7608C82.8435 97.9874 82.5701 98.1645 82.2445 98.2921C81.919 98.4171 81.5531 98.4796 81.1469 98.4796ZM89.2836 93.6983L88.4555 93.9327C88.4034 93.7947 88.3266 93.6606 88.225 93.5304C88.1261 93.3976 87.9906 93.2882 87.8188 93.2022C87.6469 93.1163 87.4268 93.0733 87.1586 93.0733C86.7914 93.0733 86.4854 93.158 86.2406 93.3272C85.9985 93.4939 85.8774 93.7061 85.8774 93.964C85.8774 94.1931 85.9607 94.3741 86.1274 94.5069C86.294 94.6397 86.5544 94.7504 86.9086 94.839L87.7992 95.0577C88.3357 95.1879 88.7354 95.3871 88.9985 95.6554C89.2615 95.921 89.393 96.2634 89.393 96.6827C89.393 97.0265 89.294 97.3338 89.0961 97.6046C88.9008 97.8754 88.6274 98.089 88.2758 98.2452C87.9242 98.4015 87.5154 98.4796 87.0492 98.4796C86.4373 98.4796 85.9307 98.3468 85.5297 98.0811C85.1287 97.8155 84.8748 97.4275 84.768 96.9171L85.643 96.6983C85.7263 97.0213 85.8839 97.2634 86.1156 97.4249C86.35 97.5864 86.656 97.6671 87.0336 97.6671C87.4633 97.6671 87.8044 97.5759 88.057 97.3936C88.3123 97.2088 88.4399 96.9874 88.4399 96.7296C88.4399 96.5213 88.3669 96.3468 88.2211 96.2061C88.0753 96.0629 87.8513 95.9561 87.5492 95.8858L86.5492 95.6515C85.9998 95.5213 85.5961 95.3194 85.3383 95.046C85.0831 94.7699 84.9555 94.4249 84.9555 94.0108C84.9555 93.6723 85.0505 93.3728 85.2406 93.1124C85.4333 92.852 85.6951 92.6476 86.0258 92.4991C86.3591 92.3507 86.7367 92.2765 87.1586 92.2765C87.7524 92.2765 88.2185 92.4067 88.557 92.6671C88.8982 92.9275 89.1404 93.2713 89.2836 93.6983ZM93.9994 98.3546V90.3546H94.9213V93.3077H94.9994C95.0671 93.2035 95.1609 93.0707 95.2807 92.9093C95.4031 92.7452 95.5776 92.5994 95.8041 92.4718C96.0333 92.3416 96.3432 92.2765 96.7338 92.2765C97.239 92.2765 97.6843 92.4028 98.0697 92.6554C98.4552 92.908 98.7559 93.266 98.9721 93.7296C99.1882 94.1931 99.2963 94.74 99.2963 95.3702C99.2963 96.0056 99.1882 96.5564 98.9721 97.0226C98.7559 97.4861 98.4565 97.8455 98.0736 98.1007C97.6908 98.3533 97.2494 98.4796 96.7494 98.4796C96.364 98.4796 96.0554 98.4158 95.8236 98.2882C95.5919 98.158 95.4135 98.0108 95.2885 97.8468C95.1635 97.6801 95.0671 97.5421 94.9994 97.4327H94.8901V98.3546H93.9994ZM94.9057 95.3546C94.9057 95.8077 94.9721 96.2074 95.1049 96.5538C95.2377 96.8976 95.4317 97.1671 95.6869 97.3624C95.9421 97.5551 96.2546 97.6515 96.6244 97.6515C97.0098 97.6515 97.3315 97.5499 97.5893 97.3468C97.8497 97.141 98.045 96.865 98.1752 96.5186C98.308 96.1697 98.3744 95.7817 98.3744 95.3546C98.3744 94.9327 98.3093 94.5525 98.1791 94.214C98.0515 93.8728 97.8575 93.6033 97.5971 93.4054C97.3393 93.2048 97.0151 93.1046 96.6244 93.1046C96.2494 93.1046 95.9343 93.1996 95.6791 93.3897C95.4239 93.5772 95.2312 93.8403 95.101 94.1788C94.9708 94.5147 94.9057 94.9067 94.9057 95.3546ZM103.222 98.4796C102.644 98.4796 102.145 98.352 101.726 98.0968C101.309 97.839 100.988 97.4796 100.761 97.0186C100.537 96.5551 100.425 96.016 100.425 95.4015C100.425 94.7869 100.537 94.2452 100.761 93.7765C100.988 93.3051 101.303 92.9379 101.706 92.6749C102.113 92.4093 102.587 92.2765 103.128 92.2765C103.441 92.2765 103.749 92.3285 104.054 92.4327C104.359 92.5369 104.636 92.7061 104.886 92.9405C105.136 93.1723 105.335 93.4796 105.484 93.8624C105.632 94.2452 105.706 94.7166 105.706 95.2765V95.6671H101.081V94.8702H104.769C104.769 94.5317 104.701 94.2296 104.566 93.964C104.433 93.6983 104.243 93.4887 103.996 93.3351C103.751 93.1814 103.462 93.1046 103.128 93.1046C102.761 93.1046 102.443 93.1957 102.175 93.378C101.91 93.5577 101.705 93.7921 101.562 94.0811C101.419 94.3702 101.347 94.6801 101.347 95.0108V95.5421C101.347 95.9952 101.425 96.3793 101.581 96.6944C101.74 97.0069 101.96 97.2452 102.242 97.4093C102.523 97.5707 102.85 97.6515 103.222 97.6515C103.464 97.6515 103.683 97.6176 103.878 97.5499C104.076 97.4796 104.247 97.3754 104.39 97.2374C104.533 97.0968 104.644 96.9223 104.722 96.714L105.613 96.964C105.519 97.266 105.361 97.5317 105.14 97.7608C104.919 97.9874 104.645 98.1645 104.32 98.2921C103.994 98.4171 103.628 98.4796 103.222 98.4796ZM109.718 92.3546V93.1358H106.609V92.3546H109.718ZM107.515 90.9171H108.437V96.6358C108.437 96.8963 108.475 97.0916 108.55 97.2218C108.628 97.3494 108.727 97.4353 108.847 97.4796C108.969 97.5213 109.098 97.5421 109.234 97.5421C109.335 97.5421 109.419 97.5369 109.484 97.5265C109.549 97.5134 109.601 97.503 109.64 97.4952L109.828 98.3233C109.765 98.3468 109.678 98.3702 109.566 98.3936C109.454 98.4197 109.312 98.4327 109.14 98.4327C108.88 98.4327 108.624 98.3767 108.374 98.2647C108.127 98.1528 107.921 97.9822 107.757 97.753C107.596 97.5239 107.515 97.2348 107.515 96.8858V90.9171ZM113.714 92.3546V93.1358H110.605V92.3546H113.714ZM111.511 90.9171H112.433V96.6358C112.433 96.8963 112.471 97.0916 112.546 97.2218C112.624 97.3494 112.723 97.4353 112.843 97.4796C112.966 97.5213 113.094 97.5421 113.23 97.5421C113.331 97.5421 113.415 97.5369 113.48 97.5265C113.545 97.5134 113.597 97.503 113.636 97.4952L113.824 98.3233C113.761 98.3468 113.674 98.3702 113.562 98.3936C113.45 98.4197 113.308 98.4327 113.136 98.4327C112.876 98.4327 112.621 98.3767 112.371 98.2647C112.123 98.1528 111.917 97.9822 111.753 97.753C111.592 97.5239 111.511 97.2348 111.511 96.8858V90.9171ZM117.552 98.4796C116.974 98.4796 116.475 98.352 116.056 98.0968C115.639 97.839 115.318 97.4796 115.091 97.0186C114.867 96.5551 114.755 96.016 114.755 95.4015C114.755 94.7869 114.867 94.2452 115.091 93.7765C115.318 93.3051 115.633 92.9379 116.037 92.6749C116.443 92.4093 116.917 92.2765 117.458 92.2765C117.771 92.2765 118.08 92.3285 118.384 92.4327C118.689 92.5369 118.966 92.7061 119.216 92.9405C119.466 93.1723 119.665 93.4796 119.814 93.8624C119.962 94.2452 120.037 94.7166 120.037 95.2765V95.6671H115.412V94.8702H119.099C119.099 94.5317 119.031 94.2296 118.896 93.964C118.763 93.6983 118.573 93.4887 118.326 93.3351C118.081 93.1814 117.792 93.1046 117.458 93.1046C117.091 93.1046 116.774 93.1957 116.505 93.378C116.24 93.5577 116.035 93.7921 115.892 94.0811C115.749 94.3702 115.677 94.6801 115.677 95.0108V95.5421C115.677 95.9952 115.755 96.3793 115.912 96.6944C116.07 97.0069 116.29 97.2452 116.572 97.4093C116.853 97.5707 117.18 97.6515 117.552 97.6515C117.794 97.6515 118.013 97.6176 118.208 97.5499C118.406 97.4796 118.577 97.3754 118.72 97.2374C118.863 97.0968 118.974 96.9223 119.052 96.714L119.943 96.964C119.849 97.266 119.691 97.5317 119.47 97.7608C119.249 97.9874 118.975 98.1645 118.65 98.2921C118.324 98.4171 117.958 98.4796 117.552 98.4796ZM121.439 98.3546V92.3546H122.33V93.2608H122.392C122.501 92.964 122.699 92.7231 122.986 92.5382C123.272 92.3533 123.595 92.2608 123.955 92.2608C124.022 92.2608 124.107 92.2621 124.208 92.2647C124.31 92.2673 124.387 92.2713 124.439 92.2765V93.214C124.408 93.2061 124.336 93.1944 124.224 93.1788C124.115 93.1606 123.999 93.1515 123.876 93.1515C123.585 93.1515 123.324 93.2127 123.095 93.3351C122.869 93.4548 122.689 93.6215 122.556 93.8351C122.426 94.046 122.361 94.2869 122.361 94.5577V98.3546H121.439ZM46.4789 105.355V106.136H43.3695V105.355H46.4789ZM44.2758 103.917H45.1977V109.636C45.1977 109.896 45.2354 110.092 45.311 110.222C45.3891 110.349 45.488 110.435 45.6078 110.48C45.7302 110.521 45.8591 110.542 45.9945 110.542C46.0961 110.542 46.1794 110.537 46.2445 110.526C46.3096 110.513 46.3617 110.503 46.4008 110.495L46.5883 111.323C46.5258 111.347 46.4386 111.37 46.3266 111.394C46.2146 111.42 46.0727 111.433 45.9008 111.433C45.6404 111.433 45.3852 111.377 45.1352 111.265C44.8878 111.153 44.682 110.982 44.518 110.753C44.3565 110.524 44.2758 110.235 44.2758 109.886V103.917ZM48.9164 107.745V111.355H47.9945V103.355H48.9164V106.292H48.9945C49.1352 105.982 49.3461 105.736 49.6274 105.554C49.9112 105.369 50.2888 105.276 50.7602 105.276C51.169 105.276 51.5271 105.358 51.8344 105.523C52.1417 105.684 52.38 105.933 52.5492 106.269C52.7211 106.602 52.807 107.026 52.807 107.542V111.355H51.8852V107.605C51.8852 107.128 51.7615 106.76 51.5141 106.499C51.2693 106.236 50.9294 106.105 50.4945 106.105C50.1925 106.105 49.9216 106.168 49.682 106.296C49.4451 106.424 49.2576 106.61 49.1195 106.855C48.9841 107.099 48.9164 107.396 48.9164 107.745ZM56.2592 111.495C55.879 111.495 55.5339 111.424 55.224 111.28C54.9141 111.135 54.668 110.925 54.4858 110.651C54.3035 110.375 54.2123 110.042 54.2123 109.651C54.2123 109.308 54.28 109.029 54.4154 108.816C54.5509 108.599 54.7318 108.43 54.9584 108.308C55.185 108.185 55.435 108.094 55.7084 108.034C55.9845 107.972 56.2618 107.922 56.5404 107.886C56.905 107.839 57.2006 107.804 57.4272 107.78C57.6563 107.754 57.823 107.711 57.9272 107.651C58.0339 107.592 58.0873 107.487 58.0873 107.339V107.308C58.0873 106.922 57.9818 106.623 57.7709 106.409C57.5626 106.196 57.2462 106.089 56.8217 106.089C56.3816 106.089 56.0365 106.185 55.7865 106.378C55.5365 106.571 55.3608 106.776 55.2592 106.995L54.3842 106.683C54.5404 106.318 54.7488 106.034 55.0092 105.831C55.2722 105.625 55.5587 105.482 55.8686 105.401C56.1811 105.318 56.4884 105.276 56.7904 105.276C56.9832 105.276 57.2045 105.3 57.4545 105.347C57.7071 105.391 57.9506 105.483 58.185 105.624C58.422 105.765 58.6186 105.977 58.7748 106.261C58.9311 106.545 59.0092 106.925 59.0092 107.401V111.355H58.0873V110.542H58.0404C57.9779 110.672 57.8738 110.812 57.7279 110.96C57.5821 111.108 57.3881 111.235 57.1459 111.339C56.9037 111.443 56.6082 111.495 56.2592 111.495ZM56.3998 110.667C56.7644 110.667 57.0717 110.595 57.3217 110.452C57.5743 110.309 57.7644 110.124 57.892 109.898C58.0222 109.671 58.0873 109.433 58.0873 109.183V108.339C58.0483 108.386 57.9623 108.429 57.8295 108.468C57.6993 108.504 57.5483 108.537 57.3764 108.566C57.2071 108.592 57.0417 108.615 56.8803 108.636C56.7214 108.654 56.5925 108.67 56.4936 108.683C56.254 108.714 56.03 108.765 55.8217 108.835C55.616 108.903 55.4493 109.006 55.3217 109.144C55.1967 109.279 55.1342 109.464 55.1342 109.698C55.1342 110.019 55.2527 110.261 55.4897 110.425C55.7292 110.586 56.0326 110.667 56.3998 110.667ZM61.6137 107.745V111.355H60.6918V105.355H61.5824V106.292H61.6606C61.8012 105.987 62.0147 105.743 62.3012 105.558C62.5876 105.37 62.9574 105.276 63.4106 105.276C63.8168 105.276 64.1723 105.36 64.477 105.526C64.7817 105.691 65.0186 105.941 65.1879 106.276C65.3572 106.61 65.4418 107.032 65.4418 107.542V111.355H64.5199V107.605C64.5199 107.133 64.3975 106.766 64.1527 106.503C63.908 106.237 63.572 106.105 63.1449 106.105C62.8507 106.105 62.5876 106.168 62.3559 106.296C62.1267 106.424 61.9457 106.61 61.8129 106.855C61.6801 107.099 61.6137 107.396 61.6137 107.745ZM71.9858 111.495C71.6055 111.495 71.2605 111.424 70.9506 111.28C70.6407 111.135 70.3946 110.925 70.2123 110.651C70.03 110.375 69.9389 110.042 69.9389 109.651C69.9389 109.308 70.0066 109.029 70.142 108.816C70.2774 108.599 70.4584 108.43 70.685 108.308C70.9115 108.185 71.1615 108.094 71.435 108.034C71.711 107.972 71.9884 107.922 72.267 107.886C72.6316 107.839 72.9272 107.804 73.1537 107.78C73.3829 107.754 73.5496 107.711 73.6537 107.651C73.7605 107.592 73.8139 107.487 73.8139 107.339V107.308C73.8139 106.922 73.7084 106.623 73.4975 106.409C73.2891 106.196 72.9727 106.089 72.5483 106.089C72.1082 106.089 71.7631 106.185 71.5131 106.378C71.2631 106.571 71.0873 106.776 70.9858 106.995L70.1108 106.683C70.267 106.318 70.4753 106.034 70.7358 105.831C70.9988 105.625 71.2852 105.482 71.5951 105.401C71.9076 105.318 72.2149 105.276 72.517 105.276C72.7097 105.276 72.9311 105.3 73.1811 105.347C73.4337 105.391 73.6772 105.483 73.9115 105.624C74.1485 105.765 74.3451 105.977 74.5014 106.261C74.6576 106.545 74.7358 106.925 74.7358 107.401V111.355H73.8139V110.542H73.767C73.7045 110.672 73.6003 110.812 73.4545 110.96C73.3087 111.108 73.1147 111.235 72.8725 111.339C72.6303 111.443 72.3347 111.495 71.9858 111.495ZM72.1264 110.667C72.491 110.667 72.7983 110.595 73.0483 110.452C73.3009 110.309 73.491 110.124 73.6186 109.898C73.7488 109.671 73.8139 109.433 73.8139 109.183V108.339C73.7748 108.386 73.6889 108.429 73.5561 108.468C73.4259 108.504 73.2748 108.537 73.1029 108.566C72.9337 108.592 72.7683 108.615 72.6068 108.636C72.448 108.654 72.3191 108.67 72.2201 108.683C71.9805 108.714 71.7566 108.765 71.5483 108.835C71.3425 108.903 71.1759 109.006 71.0483 109.144C70.9233 109.279 70.8608 109.464 70.8608 109.698C70.8608 110.019 70.9792 110.261 71.2162 110.425C71.4558 110.586 71.7592 110.667 72.1264 110.667ZM81.1098 105.355L78.891 111.355H77.9535L75.7348 105.355H76.7348L78.391 110.136H78.4535L80.1098 105.355H81.1098ZM84.6274 111.48C84.0492 111.48 83.5505 111.352 83.1313 111.097C82.7146 110.839 82.393 110.48 82.1664 110.019C81.9425 109.555 81.8305 109.016 81.8305 108.401C81.8305 107.787 81.9425 107.245 82.1664 106.776C82.393 106.305 82.7081 105.938 83.1117 105.675C83.518 105.409 83.9919 105.276 84.5336 105.276C84.8461 105.276 85.1547 105.329 85.4594 105.433C85.7641 105.537 86.0414 105.706 86.2914 105.941C86.5414 106.172 86.7406 106.48 86.8891 106.862C87.0375 107.245 87.1117 107.717 87.1117 108.276V108.667H82.4867V107.87H86.1742C86.1742 107.532 86.1065 107.23 85.9711 106.964C85.8383 106.698 85.6482 106.489 85.4008 106.335C85.156 106.181 84.8669 106.105 84.5336 106.105C84.1664 106.105 83.8487 106.196 83.5805 106.378C83.3149 106.558 83.1104 106.792 82.9672 107.081C82.824 107.37 82.7524 107.68 82.7524 108.011V108.542C82.7524 108.995 82.8305 109.379 82.9867 109.694C83.1456 110.007 83.3656 110.245 83.6469 110.409C83.9281 110.571 84.255 110.651 84.6274 110.651C84.8695 110.651 85.0883 110.618 85.2836 110.55C85.4815 110.48 85.6521 110.375 85.7953 110.237C85.9386 110.097 86.0492 109.922 86.1274 109.714L87.018 109.964C86.9242 110.266 86.7667 110.532 86.5453 110.761C86.324 110.987 86.0505 111.164 85.725 111.292C85.3995 111.417 85.0336 111.48 84.6274 111.48ZM88.5141 111.355V105.355H89.4047V106.261H89.4672C89.5766 105.964 89.7745 105.723 90.061 105.538C90.3474 105.353 90.6703 105.261 91.0297 105.261C91.0974 105.261 91.182 105.262 91.2836 105.265C91.3852 105.267 91.462 105.271 91.5141 105.276V106.214C91.4828 106.206 91.4112 106.194 91.2992 106.179C91.1899 106.161 91.074 106.151 90.9516 106.151C90.6599 106.151 90.3995 106.213 90.1703 106.335C89.9438 106.455 89.7641 106.622 89.6313 106.835C89.5011 107.046 89.436 107.287 89.436 107.558V111.355H88.5141ZM94.3725 111.495C93.9923 111.495 93.6472 111.424 93.3373 111.28C93.0274 111.135 92.7813 110.925 92.599 110.651C92.4167 110.375 92.3256 110.042 92.3256 109.651C92.3256 109.308 92.3933 109.029 92.5287 108.816C92.6641 108.599 92.8451 108.43 93.0717 108.308C93.2983 108.185 93.5483 108.094 93.8217 108.034C94.0977 107.972 94.3751 107.922 94.6537 107.886C95.0183 107.839 95.3139 107.804 95.5404 107.78C95.7696 107.754 95.9363 107.711 96.0404 107.651C96.1472 107.592 96.2006 107.487 96.2006 107.339V107.308C96.2006 106.922 96.0951 106.623 95.8842 106.409C95.6759 106.196 95.3595 106.089 94.935 106.089C94.4949 106.089 94.1498 106.185 93.8998 106.378C93.6498 106.571 93.474 106.776 93.3725 106.995L92.4975 106.683C92.6537 106.318 92.8621 106.034 93.1225 105.831C93.3855 105.625 93.672 105.482 93.9818 105.401C94.2943 105.318 94.6016 105.276 94.9037 105.276C95.0964 105.276 95.3178 105.3 95.5678 105.347C95.8204 105.391 96.0639 105.483 96.2983 105.624C96.5352 105.765 96.7318 105.977 96.8881 106.261C97.0443 106.545 97.1225 106.925 97.1225 107.401V111.355H96.2006V110.542H96.1537C96.0912 110.672 95.9871 110.812 95.8412 110.96C95.6954 111.108 95.5014 111.235 95.2592 111.339C95.017 111.443 94.7214 111.495 94.3725 111.495ZM94.5131 110.667C94.8777 110.667 95.185 110.595 95.435 110.452C95.6876 110.309 95.8777 110.124 96.0053 109.898C96.1355 109.671 96.2006 109.433 96.2006 109.183V108.339C96.1615 108.386 96.0756 108.429 95.9428 108.468C95.8126 108.504 95.6615 108.537 95.4897 108.566C95.3204 108.592 95.155 108.615 94.9936 108.636C94.8347 108.654 94.7058 108.67 94.6068 108.683C94.3673 108.714 94.1433 108.765 93.935 108.835C93.7292 108.903 93.5626 109.006 93.435 109.144C93.31 109.279 93.2475 109.464 93.2475 109.698C93.2475 110.019 93.366 110.261 93.6029 110.425C93.8425 110.586 94.1459 110.667 94.5131 110.667ZM101.227 113.73C100.782 113.73 100.399 113.672 100.079 113.558C99.7582 113.446 99.4913 113.297 99.2777 113.112C99.0668 112.93 98.8988 112.735 98.7738 112.526L99.5082 112.011C99.5916 112.12 99.697 112.245 99.8246 112.386C99.9522 112.529 100.127 112.653 100.348 112.757C100.572 112.864 100.865 112.917 101.227 112.917C101.711 112.917 102.111 112.8 102.426 112.566C102.741 112.331 102.899 111.964 102.899 111.464V110.245H102.821C102.753 110.355 102.657 110.49 102.532 110.651C102.409 110.81 102.232 110.952 102 111.077C101.771 111.2 101.461 111.261 101.071 111.261C100.586 111.261 100.151 111.146 99.766 110.917C99.3832 110.688 99.0798 110.355 98.8559 109.917C98.6345 109.48 98.5238 108.948 98.5238 108.323C98.5238 107.709 98.6319 107.174 98.8481 106.718C99.0642 106.26 99.365 105.905 99.7504 105.655C100.136 105.403 100.581 105.276 101.086 105.276C101.477 105.276 101.787 105.342 102.016 105.472C102.248 105.599 102.425 105.745 102.547 105.909C102.672 106.071 102.769 106.204 102.836 106.308H102.93V105.355H103.821V111.526C103.821 112.042 103.704 112.461 103.469 112.784C103.237 113.11 102.925 113.348 102.532 113.499C102.141 113.653 101.706 113.73 101.227 113.73ZM101.196 110.433C101.566 110.433 101.878 110.348 102.133 110.179C102.388 110.01 102.582 109.766 102.715 109.448C102.848 109.131 102.914 108.75 102.914 108.308C102.914 107.875 102.849 107.494 102.719 107.163C102.589 106.832 102.396 106.573 102.141 106.386C101.886 106.198 101.571 106.105 101.196 106.105C100.805 106.105 100.48 106.204 100.219 106.401C99.9613 106.599 99.7673 106.865 99.6371 107.198C99.5095 107.532 99.4457 107.901 99.4457 108.308C99.4457 108.724 99.5108 109.093 99.641 109.413C99.7738 109.731 99.9692 109.981 100.227 110.163C100.487 110.343 100.81 110.433 101.196 110.433ZM108.024 111.48C107.446 111.48 106.947 111.352 106.528 111.097C106.111 110.839 105.789 110.48 105.563 110.019C105.339 109.555 105.227 109.016 105.227 108.401C105.227 107.787 105.339 107.245 105.563 106.776C105.789 106.305 106.105 105.938 106.508 105.675C106.914 105.409 107.388 105.276 107.93 105.276C108.243 105.276 108.551 105.329 108.856 105.433C109.161 105.537 109.438 105.706 109.688 105.941C109.938 106.172 110.137 106.48 110.286 106.862C110.434 107.245 110.508 107.717 110.508 108.276V108.667H105.883V107.87H109.571C109.571 107.532 109.503 107.23 109.368 106.964C109.235 106.698 109.045 106.489 108.797 106.335C108.552 106.181 108.263 106.105 107.93 106.105C107.563 106.105 107.245 106.196 106.977 106.378C106.711 106.558 106.507 106.792 106.364 107.081C106.22 107.37 106.149 107.68 106.149 108.011V108.542C106.149 108.995 106.227 109.379 106.383 109.694C106.542 110.007 106.762 110.245 107.043 110.409C107.325 110.571 107.651 110.651 108.024 110.651C108.266 110.651 108.485 110.618 108.68 110.55C108.878 110.48 109.049 110.375 109.192 110.237C109.335 110.097 109.446 109.922 109.524 109.714L110.414 109.964C110.321 110.266 110.163 110.532 109.942 110.761C109.72 110.987 109.447 111.164 109.121 111.292C108.796 111.417 108.43 111.48 108.024 111.48Z" fill="#313131"/>
<path d="M60.471 50.9421V70.5784H56.3193V54.8828H56.2043L51.7075 57.7017V54.0199L56.5686 50.9421H60.471ZM65.1379 70.5784V67.587L72.1277 61.115C72.7221 60.5397 73.2207 60.022 73.6234 59.5618C74.0325 59.1015 74.3425 58.6509 74.5534 58.2098C74.7644 57.7624 74.8698 57.2798 74.8698 56.762C74.8698 56.1868 74.7388 55.6914 74.4767 55.2759C74.2147 54.854 73.8567 54.5312 73.4029 54.3075C72.949 54.0774 72.4345 53.9623 71.8592 53.9623C71.2583 53.9623 70.7342 54.0838 70.2867 54.3267C69.8393 54.5696 69.4941 54.9179 69.2512 55.3718C69.0083 55.8256 68.8869 56.3657 68.8869 56.9922H64.9462C64.9462 55.7074 65.237 54.5919 65.8187 53.6459C66.4004 52.6999 67.2154 51.968 68.2637 51.4502C69.312 50.9325 70.5201 50.6736 71.8879 50.6736C73.2942 50.6736 74.5183 50.9229 75.5602 51.4215C76.6085 51.9137 77.4235 52.5976 78.0051 53.4733C78.5868 54.349 78.8777 55.3526 78.8777 56.484C78.8777 57.2255 78.7306 57.9574 78.4366 58.6797C78.149 59.402 77.6344 60.2042 76.8929 61.0863C76.1514 61.962 75.1063 63.0135 73.7576 64.2407L70.8908 67.05V67.1843H79.1365V70.5784H65.1379ZM92.893 66.8966V65.8611C92.893 65.0749 93.0592 64.3526 93.3916 63.6942C93.7304 63.0294 94.2194 62.4989 94.8586 62.1026C95.5042 61.6999 96.2904 61.4985 97.2172 61.4985C98.1569 61.4985 98.9463 61.6967 99.5855 62.093C100.231 62.4893 100.717 63.0199 101.043 63.6846C101.375 64.343 101.541 65.0685 101.541 65.8611V66.8966C101.541 67.6828 101.375 68.4083 101.043 69.0731C100.71 69.7315 100.221 70.2588 99.5759 70.6551C98.9303 71.0578 98.1441 71.2592 97.2172 71.2592C96.2776 71.2592 95.4882 71.0578 94.849 70.6551C94.2098 70.2588 93.724 69.7315 93.3916 69.0731C93.0592 68.4083 92.893 67.6828 92.893 66.8966ZM95.6831 65.8611V66.8966C95.6831 67.3505 95.7918 67.7787 96.0091 68.1814C96.2329 68.5841 96.6356 68.7855 97.2172 68.7855C97.7989 68.7855 98.1952 68.5873 98.4061 68.191C98.6235 67.7947 98.7321 67.3632 98.7321 66.8966V65.8611C98.7321 65.3945 98.6299 64.9598 98.4253 64.5571C98.2208 64.1544 97.8181 63.9531 97.2172 63.9531C96.6419 63.9531 96.2424 64.1544 96.0187 64.5571C95.795 64.9598 95.6831 65.3945 95.6831 65.8611ZM82.8159 55.6594V54.6239C82.8159 53.8313 82.9853 53.1058 83.3241 52.4474C83.6629 51.7826 84.1519 51.2521 84.7911 50.8558C85.4367 50.4595 86.2165 50.2613 87.1306 50.2613C88.0766 50.2613 88.8692 50.4595 89.5084 50.8558C90.1476 51.2521 90.6334 51.7826 90.9658 52.4474C91.2982 53.1058 91.4644 53.8313 91.4644 54.6239V55.6594C91.4644 56.452 91.295 57.1775 90.9562 57.8359C90.6238 58.4943 90.1348 59.0216 89.4892 59.4179C88.85 59.8078 88.0638 60.0028 87.1306 60.0028C86.1973 60.0028 85.4079 59.8047 84.7623 59.4083C84.1231 59.0056 83.6373 58.4783 83.3049 57.8263C82.9789 57.1679 82.8159 56.4456 82.8159 55.6594ZM85.6253 54.6239V55.6594C85.6253 56.126 85.7339 56.5575 85.9512 56.9538C86.175 57.3501 86.5681 57.5483 87.1306 57.5483C87.7186 57.5483 88.1182 57.3501 88.3291 56.9538C88.5464 56.5575 88.6551 56.126 88.6551 55.6594V54.6239C88.6551 54.1573 88.5528 53.7226 88.3483 53.3199C88.1437 52.9172 87.7378 52.7159 87.1306 52.7159C86.5617 52.7159 86.1686 52.9204 85.9512 53.3295C85.7339 53.7386 85.6253 54.1701 85.6253 54.6239ZM84.0816 70.5784L97.5816 50.9421H100.094L86.5936 70.5784H84.0816Z" fill="black"/>
<line x1="27.5176" y1="83.3023" x2="126.678" y2="83.3023" stroke="#CCCCCC" stroke-width="0.5"/>
</svg>
