<svg width="14" height="14" viewBox="0 0 14 14" fill="none" xmlns="http://www.w3.org/2000/svg">
<path d="M0.873749 12.6875C0.812013 12.6879 0.750895 12.6752 0.694415 12.6503C0.637935 12.6253 0.587372 12.5887 0.546048 12.5428C0.504725 12.497 0.473577 12.4429 0.454653 12.3841C0.435729 12.3254 0.429457 12.2632 0.43625 12.2019L0.773125 9.13938C0.785117 9.0415 0.829825 8.95054 0.899999 8.88125L8.0575 1.72375C8.18754 1.59345 8.342 1.49008 8.51203 1.41955C8.68207 1.34902 8.86435 1.31271 9.04844 1.31271C9.23252 1.31271 9.4148 1.34902 9.58484 1.41955C9.75488 1.49008 9.90934 1.59345 10.0394 1.72375L11.4 3.08438C11.5303 3.21442 11.6337 3.36888 11.7042 3.53891C11.7747 3.70895 11.811 3.89123 11.811 4.07532C11.811 4.2594 11.7747 4.44168 11.7042 4.61172C11.6337 4.78176 11.5303 4.93622 11.4 5.06625L4.24687 12.2194C4.17759 12.2896 4.08663 12.3343 3.98875 12.3463L0.926249 12.6831L0.873749 12.6875ZM1.63062 9.38438L1.36812 11.7556L3.73937 11.4931L10.7831 4.44938C10.8321 4.4006 10.8709 4.34265 10.8974 4.27883C10.9239 4.21502 10.9375 4.1466 10.9375 4.0775C10.9375 4.00841 10.9239 3.93999 10.8974 3.87617C10.8709 3.81236 10.8321 3.7544 10.7831 3.70563L9.41812 2.34063C9.36935 2.29168 9.31139 2.25285 9.24758 2.22635C9.18376 2.19985 9.11535 2.18621 9.04625 2.18621C8.97715 2.18621 8.90873 2.19985 8.84492 2.22635C8.7811 2.25285 8.72315 2.29168 8.67437 2.34063L1.63062 9.38438Z" fill="white"/>
<path d="M10.0624 6.21689C10.0048 6.21722 9.94776 6.20618 9.89446 6.18441C9.84115 6.16264 9.79267 6.13056 9.75179 6.09001L7.03491 3.36439C6.99412 3.32359 6.96177 3.27517 6.93969 3.22187C6.91761 3.16857 6.90625 3.11145 6.90625 3.05376C6.90625 2.99607 6.91761 2.93895 6.93969 2.88565C6.96177 2.83236 6.99412 2.78393 7.03491 2.74314C7.07571 2.70234 7.12413 2.66999 7.17743 2.64791C7.23073 2.62583 7.28785 2.61447 7.34554 2.61447C7.40323 2.61447 7.46035 2.62583 7.51365 2.64791C7.56695 2.66999 7.61537 2.70234 7.65617 2.74314L10.3818 5.46876C10.4228 5.50943 10.4553 5.55782 10.4776 5.61113C10.4998 5.66445 10.5112 5.72163 10.5112 5.77939C10.5112 5.83714 10.4998 5.89432 10.4776 5.94764C10.4553 6.00095 10.4228 6.04934 10.3818 6.09001C10.3399 6.13162 10.29 6.16431 10.2351 6.18612C10.1802 6.20792 10.1215 6.21839 10.0624 6.21689Z" fill="white"/>
<path d="M7.03495 5.47036L3.62891 8.8764L4.24762 9.49512L7.65367 6.08908L7.03495 5.47036Z" fill="white"/>
<path d="M13.125 12.6875H6.125C6.00897 12.6875 5.89769 12.6414 5.81564 12.5594C5.73359 12.4773 5.6875 12.366 5.6875 12.25C5.6875 12.134 5.73359 12.0227 5.81564 11.9406C5.89769 11.8586 6.00897 11.8125 6.125 11.8125H13.125C13.241 11.8125 13.3523 11.8586 13.4344 11.9406C13.5164 12.0227 13.5625 12.134 13.5625 12.25C13.5625 12.366 13.5164 12.4773 13.4344 12.5594C13.3523 12.6414 13.241 12.6875 13.125 12.6875Z" fill="white"/>
</svg>
