<svg width="16" height="21" viewBox="0 0 16 21" fill="none" xmlns="http://www.w3.org/2000/svg">
<g clip-path="url(#clip0_1690_892)">
<path fill-rule="evenodd" clip-rule="evenodd" d="M16 5.49943V19.248C16 20.1593 15.2588 20.898 14.3448 20.898H1.65518C0.740898 20.898 0 20.1593 0 19.248V1.64996C0 0.738612 0.740898 0 1.65518 0H10.4826L16 5.49943Z" fill="#D1D4D8"/>
<path fill-rule="evenodd" clip-rule="evenodd" d="M15.9999 5.19151V5.87592H11.4896C10.5557 5.87592 10.125 5.11837 10.125 4.18416V0H10.8081L15.9999 5.19151Z" fill="#C0C7CF"/>
<path fill-rule="evenodd" clip-rule="evenodd" d="M12.2793 11.1174C12.137 11.0704 11.9998 11.0465 11.8676 11.0465C11.7174 11.0465 11.6142 11.0776 11.5577 11.1396C11.5015 11.2016 11.4734 11.3113 11.4734 11.4691V11.7705H12.1046V12.3758H11.4734V14.8689H10.7087V12.3758H10.3146V11.7705H10.7087V11.4691C10.7087 11.0851 10.8041 10.8075 10.9948 10.6361C11.1854 10.4647 11.4721 10.3791 11.8555 10.3791C12.0354 10.3791 12.2261 10.4036 12.4276 10.4529L12.2793 11.1174ZM9.07606 14.5675C8.93369 14.6877 8.78349 14.7834 8.62545 14.8542C8.46741 14.9251 8.28782 14.9603 8.08635 14.9603C7.69516 14.9603 7.39573 14.8196 7.18839 14.5381C6.98071 14.2563 6.8772 13.8586 6.8772 13.3447C6.8772 12.8189 6.99116 12.4105 7.21941 12.1189C7.44765 11.8276 7.76798 11.6816 8.18104 11.6816C8.32733 11.6816 8.4772 11.7117 8.63133 11.7718C8.78545 11.8318 8.91312 11.9082 9.01369 12.0007V10.4705H9.77843V14.8689H9.07606V14.5675ZM9.01369 12.6299C8.93271 12.5571 8.83247 12.4924 8.71296 12.4362C8.59345 12.3804 8.47133 12.3523 8.34692 12.3523C8.14153 12.3523 7.97663 12.4405 7.85222 12.6165C7.72749 12.7928 7.66545 13.0315 7.66545 13.3329C7.66545 13.6304 7.71639 13.8635 7.81794 14.033C7.91982 14.2025 8.0772 14.287 8.29076 14.287C8.41712 14.287 8.5461 14.258 8.67737 14.1998C8.80863 14.1417 8.92096 14.0702 9.01369 13.9856V12.6299ZM5.74512 14.7595C5.55737 14.8934 5.33337 14.9603 5.07247 14.9603C4.72863 14.9603 4.43541 14.8532 4.19247 14.6384V16.0356H3.42773V11.7705H4.13304V12.0745C4.27541 11.9523 4.42496 11.8563 4.58202 11.7865C4.73908 11.7166 4.91933 11.6816 5.12276 11.6816C5.5159 11.6816 5.81533 11.8194 6.02071 12.0953C6.2261 12.3709 6.32896 12.7716 6.32896 13.2973C6.32896 13.6304 6.27867 13.9236 6.17778 14.1776C6.07688 14.4317 5.93288 14.6256 5.74512 14.7595ZM5.38365 12.6047C5.27884 12.4362 5.12275 12.3523 4.91541 12.3523C4.791 12.3523 4.663 12.3814 4.53173 12.4392C4.40014 12.4973 4.28716 12.5688 4.19247 12.6534V14.0091C4.27345 14.0823 4.37369 14.1466 4.4932 14.2028C4.61271 14.2589 4.73549 14.287 4.86218 14.287C5.07149 14.287 5.23704 14.1979 5.35851 14.0196C5.47998 13.8413 5.54071 13.6046 5.54071 13.3094C5.54071 13.008 5.48814 12.7732 5.38365 12.6047Z" fill="#9D9D9D"/>
</g>
<defs>
<clipPath id="clip0_1690_892">
<rect width="16" height="20.898" fill="white"/>
</clipPath>
</defs>
</svg>
