<svg width="43" height="43" viewBox="0 0 43 43" fill="none" xmlns="http://www.w3.org/2000/svg">
<g opacity="0.4">
<path d="M21.5 5.375C24.656 5.375 27.7411 6.31086 30.3653 8.06425C32.9894 9.81763 35.0346 12.3098 36.2424 15.2255C37.4501 18.1413 37.7661 21.3497 37.1504 24.4451C36.5347 27.5405 35.015 30.3837 32.7833 32.6154C30.5517 34.847 27.7084 36.3668 24.6131 36.9825C21.5177 37.5982 18.3093 37.2822 15.3935 36.0744C12.4778 34.8667 9.9856 32.8214 8.23222 30.1973C6.47884 27.5732 5.54298 24.488 5.54298 21.332C5.54742 17.1013 7.23003 13.0452 10.2216 10.0536C13.2132 7.06206 17.2693 5.37945 21.5 5.375ZM21.5 3.19141C17.9121 3.19141 14.4048 4.25534 11.4216 6.24865C8.43841 8.24197 6.11328 11.0751 4.74026 14.3899C3.36724 17.7047 3.00799 21.3522 3.70795 24.8711C4.40791 28.39 6.13564 31.6224 8.67265 34.1594C11.2097 36.6964 14.442 38.4241 17.9609 39.1241C21.4799 39.8241 25.1274 39.4648 28.4421 38.0918C31.7569 36.7188 34.5901 34.3936 36.5834 31.4104C38.5767 28.4272 39.6406 24.9199 39.6406 21.332C39.6406 16.5208 37.7294 11.9067 34.3274 8.50467C30.9253 5.10265 26.3112 3.19141 21.5 3.19141Z" fill="#5E6977"/>
<path d="M21.8627 5.375C22.5648 5.375 23.8044 6.60453 24.8626 9.30211C26.109 12.4801 26.7943 16.7532 26.7943 21.332C26.7943 25.9109 26.1224 30.184 24.8626 33.362C23.8044 36.0495 22.5682 37.2891 21.8627 37.2891C21.1572 37.2891 19.921 36.0595 18.8628 33.362C17.6198 30.184 16.9312 25.9109 16.9312 21.332C16.9312 16.7532 17.603 12.4801 18.8628 9.30211C19.9244 6.60117 21.164 5.375 21.8627 5.375ZM21.8627 3.19141C17.9322 3.19141 14.7476 11.3144 14.7476 21.332C14.7476 31.3497 17.9322 39.4727 21.8627 39.4727C25.7932 39.4727 28.9779 31.3497 28.9779 21.332C28.9779 11.3144 25.7932 3.19141 21.8627 3.19141Z" fill="#5E6977"/>
<path d="M5.93262 26.9993H37.7929" stroke="#5E6977" stroke-miterlimit="10"/>
<path d="M5.93262 15.6614H37.7929" stroke="#5E6977" stroke-miterlimit="10"/>
</g>
</svg>
