<svg width="21" height="21" viewBox="0 0 21 21" fill="none" xmlns="http://www.w3.org/2000/svg">
<path d="M10.5002 0.0833435C4.74495 0.0833435 0.0834961 4.7448 0.0834961 10.5C0.0834961 16.2552 4.74495 20.9167 10.5002 20.9167C16.2554 20.9167 20.9168 16.2552 20.9168 10.5C20.9168 4.7448 16.2554 0.0833435 10.5002 0.0833435ZM11.5418 17.7917H9.45849V15.7083H11.5418V17.7917ZM13.6929 9.72396L12.7606 10.6823C12.0106 11.4323 11.5418 12.0625 11.5418 13.625H9.45849V13.1042C9.45849 11.9531 9.92724 10.9115 10.6772 10.1563L11.9741 8.84375C12.3491 8.46875 12.5835 7.94792 12.5835 7.37501C12.5835 6.22396 11.6512 5.29167 10.5002 5.29167C9.34912 5.29167 8.41682 6.22396 8.41682 7.37501H6.33349C6.33349 5.07292 8.19807 3.20834 10.5002 3.20834C12.8022 3.20834 14.6668 5.07292 14.6668 7.37501C14.6668 8.29167 14.297 9.1198 13.6929 9.72396Z" fill="white"/>
</svg>
