<svg width="23" height="23" viewBox="0 0 23 23" fill="none" xmlns="http://www.w3.org/2000/svg">
<g id="1063891_arrow_arrow left_back_previous_icon (1) 1" clip-path="url(#clip0_144_161)">
<path id="Arrow_Back" fill-rule="evenodd" clip-rule="evenodd" d="M0.642748 10.7812H20.6441L14.6605 4.82065C14.3795 4.53962 14.3795 4.08465 14.6605 3.80434C14.9416 3.52331 15.3965 3.52331 15.6768 3.80434L22.7925 10.9192C23.0692 11.196 23.0692 11.6588 22.7925 11.9356L15.6768 19.0512C15.3958 19.3322 14.9408 19.3322 14.6605 19.0512C14.3795 18.7702 14.3795 18.3152 14.6605 18.0349L20.6441 12.2187H0.642748C0.245996 12.2187 -0.0760002 11.8967 -0.0760002 11.5C-0.0760002 11.1032 0.245996 10.7812 0.642748 10.7812Z" fill="#0386B6"/>
</g>
<defs>
<clipPath id="clip0_144_161">
<rect width="23" height="23" fill="white" transform="matrix(-1 0 0 1 23 0)"/>
</clipPath>
</defs>
</svg>
