<svg width="47" height="47" viewBox="0 0 47 47" fill="none" xmlns="http://www.w3.org/2000/svg">
<circle cx="23.5" cy="23.5" r="23.5" fill="white"/>
<path d="M13.5633 32.2206C13.4531 32.2212 13.344 32.199 13.2431 32.1553C13.1422 32.1116 13.0519 32.0475 12.9782 31.9672C12.9044 31.8869 12.8487 31.7921 12.815 31.6892C12.7812 31.5863 12.77 31.4775 12.7821 31.37L13.3836 26.0065C13.4051 25.835 13.4849 25.6757 13.6102 25.5544L26.3915 13.0189C26.6237 12.7907 26.8995 12.6097 27.2031 12.4862C27.5068 12.3626 27.8323 12.299 28.161 12.299C28.4897 12.299 28.8152 12.3626 29.1189 12.4862C29.4225 12.6097 29.6983 12.7907 29.9305 13.0189L32.3602 15.4019C32.5929 15.6296 32.7775 15.9001 32.9034 16.1979C33.0294 16.4957 33.0942 16.815 33.0942 17.1374C33.0942 17.4598 33.0294 17.779 32.9034 18.0768C32.7775 18.3746 32.5929 18.6451 32.3602 18.8729L19.5868 31.4007C19.4631 31.5236 19.3006 31.6019 19.1258 31.6229L13.6571 32.2129L13.5633 32.2206ZM14.9149 26.4355L14.4461 30.5885L18.6805 30.1288L31.2586 17.7925C31.346 17.7071 31.4154 17.6056 31.4627 17.4938C31.51 17.3821 31.5344 17.2622 31.5344 17.1412C31.5344 17.0202 31.51 16.9004 31.4627 16.7886C31.4154 16.6769 31.346 16.5754 31.2586 16.4899L28.8211 14.0993C28.7341 14.0136 28.6306 13.9456 28.5166 13.8992C28.4026 13.8528 28.2805 13.8289 28.1571 13.8289C28.0337 13.8289 27.9115 13.8528 27.7976 13.8992C27.6836 13.9456 27.5801 14.0136 27.493 14.0993L14.9149 26.4355Z" fill="#0066CC"/>
<path d="M29.9719 20.8881C29.8691 20.8886 29.7672 20.8693 29.672 20.8312C29.5768 20.7931 29.4903 20.7369 29.4173 20.6659L24.5657 15.8923C24.4929 15.8208 24.4351 15.736 24.3956 15.6427C24.3562 15.5493 24.3359 15.4493 24.3359 15.3482C24.3359 15.2472 24.3562 15.1472 24.3956 15.0538C24.4351 14.9605 24.4929 14.8757 24.5657 14.8042C24.6385 14.7328 24.725 14.6761 24.8202 14.6375C24.9154 14.5988 25.0174 14.5789 25.1204 14.5789C25.2234 14.5789 25.3254 14.5988 25.4206 14.6375C25.5158 14.6761 25.6022 14.7328 25.6751 14.8042L30.5423 19.5778C30.6155 19.649 30.6736 19.7338 30.7133 19.8272C30.7529 19.9205 30.7734 20.0207 30.7734 20.1218C30.7734 20.223 30.7529 20.3231 30.7133 20.4165C30.6736 20.5099 30.6155 20.5946 30.5423 20.6659C30.4674 20.7387 30.3783 20.796 30.2803 20.8342C30.1823 20.8724 30.0774 20.8907 29.9719 20.8881Z" fill="#0066CC"/>
<path d="M24.5666 19.5806L18.4844 25.5459L19.5892 26.6295L25.6715 20.6643L24.5666 19.5806Z" fill="#0066CC"/>
<path d="M35.4375 32.2206H22.9375C22.7303 32.2206 22.5316 32.1398 22.3851 31.9961C22.2386 31.8524 22.1562 31.6576 22.1562 31.4543C22.1562 31.2511 22.2386 31.0562 22.3851 30.9125C22.5316 30.7688 22.7303 30.6881 22.9375 30.6881H35.4375C35.6447 30.6881 35.8434 30.7688 35.9899 30.9125C36.1364 31.0562 36.2188 31.2511 36.2188 31.4543C36.2188 31.6576 36.1364 31.8524 35.9899 31.9961C35.8434 32.1398 35.6447 32.2206 35.4375 32.2206Z" fill="#0066CC"/>
</svg>
