<svg width="18" height="18" viewBox="0 0 18 18" fill="none" xmlns="http://www.w3.org/2000/svg">
<path d="M13.2752 17.4752H4.7252C3.9752 17.4752 3.4502 16.8752 3.4502 16.2002V4.9502H14.5502V16.1252C14.5502 16.8752 13.9502 17.4752 13.2752 17.4752Z" stroke="#D61821" stroke-miterlimit="10" stroke-linecap="round" stroke-linejoin="round"/>
<path d="M15.3002 4.5001V3.1501C15.3002 2.6251 14.8502 2.1751 14.3252 2.1751H11.5502L11.2502 1.0501C11.1002 0.750098 10.8752 0.600098 10.5002 0.600098H7.5002C7.2002 0.600098 6.9002 0.750098 6.7502 1.0501L6.4502 2.1001H3.6752C3.1502 2.1001 2.7002 2.5501 2.7002 3.0751V4.5001C2.7002 4.7251 2.9252 4.9501 3.1502 4.9501H14.8502C15.1502 4.9501 15.3002 4.7251 15.3002 4.5001Z" stroke="#D61821" stroke-miterlimit="10" stroke-linecap="round" stroke-linejoin="round"/>
<path d="M6.6001 7.65015V14.7751" stroke="#D61821" stroke-miterlimit="10" stroke-linecap="round" stroke-linejoin="round"/>
<path d="M9 7.65015V14.7751" stroke="#D61821" stroke-miterlimit="10" stroke-linecap="round" stroke-linejoin="round"/>
<path d="M11.3999 7.65015V14.7751" stroke="#D61821" stroke-miterlimit="10" stroke-linecap="round" stroke-linejoin="round"/>
</svg>
