<svg width="40" height="25" viewBox="0 0 40 25" fill="none" xmlns="http://www.w3.org/2000/svg">
<path d="M17.6524 0.371103C16.0854 1.03172 15.1482 1.90743 14.4876 3.32085C14.1035 4.13511 14.0574 4.42701 14.0574 5.70216C14.0574 6.97731 14.1189 7.28458 14.4722 8.05274C14.718 8.57509 15.2404 9.2818 15.732 9.75806L16.5616 10.5723L15.732 10.9103C15.2865 11.11 14.4876 11.5402 13.9652 11.8628L13.0281 12.4774L12.5518 12.1086C12.2753 11.9089 11.7529 11.5863 11.3688 11.3866C10.9847 11.2022 10.6468 11.0179 10.616 10.9871C10.5853 10.9564 10.8158 10.6491 11.1384 10.2958C11.968 9.37398 12.306 8.49827 12.306 7.29994C12.306 4.0122 8.89534 1.86134 5.96095 3.29012C4.33245 4.08901 3.45674 5.5178 3.4721 7.3153C3.48746 8.60582 3.87155 9.55834 4.6858 10.3726C4.99307 10.6952 5.22352 10.9718 5.20815 10.9871C5.17743 11.0179 4.73189 11.2329 4.24027 11.4787C3.07266 12.0472 1.61314 13.4913 0.967887 14.705C0.414809 15.7344 0 17.2553 0 18.254V18.9146H4.76262H9.52523V20.328C9.52523 21.4342 9.60205 21.9104 9.84786 22.4481C10.2627 23.3699 10.9847 24.092 11.9065 24.5375L12.6747 24.9062H19.5267C27.1162 24.9062 27.2237 24.8909 28.3606 23.923C29.3285 23.0934 29.7126 22.1716 29.774 20.4048L29.8355 18.9146H34.5827H39.33V18.4076C39.33 17.409 38.992 16.057 38.4543 14.9355C37.7937 13.5528 36.411 12.124 35.0897 11.4787C34.5981 11.2329 34.1526 11.0025 34.1218 10.9718C34.0911 10.9564 34.3062 10.6952 34.5981 10.4033C35.4277 9.58907 35.8425 8.59045 35.8425 7.3153C35.8733 4.74964 33.9836 2.85995 31.4179 2.87532C29.5743 2.89068 28.2838 3.68957 27.4849 5.31808C26.6399 7.05413 26.8857 8.85163 28.1916 10.2958C28.5142 10.6491 28.7447 10.9564 28.714 10.9871C28.6832 11.0179 28.3453 11.2022 27.9612 11.3866C27.5771 11.5709 27.0547 11.8936 26.7782 12.0933C26.1944 12.5388 26.1483 12.5388 25.7335 12.1547C25.3341 11.7707 23.1064 10.6184 22.7837 10.6184C22.6455 10.6184 22.8913 10.3111 23.3368 9.9117C24.3047 9.03599 24.7963 8.22174 25.1343 6.93122C25.7642 4.45773 24.4276 1.72307 22.0156 0.540098C20.7712 -0.0744324 18.8815 -0.151249 17.6524 0.371103ZM21.5086 1.69234C23.7977 2.85995 24.6273 5.3488 23.5058 7.65329C22.7377 9.18962 21.4164 10.0192 19.665 10.05C15.9164 10.0961 13.9038 5.87115 16.2083 2.84459C17.3451 1.36971 19.834 0.816637 21.5086 1.69234ZM8.68025 4.18119C9.57132 4.41164 10.5085 5.2259 10.8311 6.08624C11.6454 8.22174 10.1398 10.4648 7.89673 10.4648C6.89811 10.4648 6.4833 10.3111 5.76123 9.66588C4.57826 8.63654 4.31708 7.25385 5.03916 5.85579C5.50005 4.94936 5.91486 4.56528 6.85202 4.24265C7.58946 3.98147 7.83527 3.96611 8.68025 4.18119ZM33.0311 4.48846C34.7364 5.45635 35.1665 7.79156 33.9221 9.31253C32.7699 10.6952 30.5268 10.8489 29.2056 9.65052C28.3453 8.85163 27.9919 7.0234 28.4989 5.94797C29.3131 4.24265 31.4025 3.58203 33.0311 4.48846ZM21.739 11.617C24.2125 12.2469 26.5324 14.1212 27.5771 16.3182C28.5757 18.4383 28.8369 21.004 28.1763 22.1562C28.0073 22.4328 27.6232 22.8629 27.3006 23.1241L26.7014 23.6004L20.003 23.6465C15.6091 23.6772 13.1049 23.6311 12.7362 23.5389C11.3535 23.1241 10.7543 22.1409 10.7543 20.2512C10.7543 17.7931 11.5839 15.7805 13.2892 14.0751C14.4876 12.8768 16.0085 11.9857 17.4527 11.6324C18.6664 11.3405 20.6175 11.3405 21.739 11.617ZM10.616 12.4313C11.1537 12.6924 11.7222 13.0304 11.8912 13.1533C12.1677 13.3684 12.1677 13.3838 11.7222 13.8908C11.123 14.5821 10.4009 15.8726 10.0476 16.8713L9.75568 17.6855H5.51542H1.25979L1.39806 17.0249C1.87432 14.8894 3.50283 12.9997 5.57687 12.2162C6.39113 11.8936 6.75984 11.8475 8.08109 11.8936C9.46378 11.9243 9.72496 11.9857 10.616 12.4313ZM34.1526 12.4159C36.0423 13.3223 37.5939 15.2274 37.8859 17.0403L37.9934 17.6855L33.7378 17.6548L29.4821 17.6087L29.0827 16.6101C28.8676 16.057 28.3453 15.1045 27.9304 14.4746C27.0855 13.2148 27.0701 13.2763 28.3453 12.5849C29.4514 12.0011 30.1274 11.8475 31.6484 11.8936C32.9235 11.9243 33.2308 11.9857 34.1526 12.4159Z" fill="white"/>
</svg>
