<svg width="25" height="25" viewBox="0 0 25 25" fill="none" xmlns="http://www.w3.org/2000/svg">
<g clip-path="url(#clip0_149_376)">
<path d="M20.2397 13.5156C20.2813 13.1823 20.3126 12.8438 20.3126 12.5C20.3126 12.1563 20.2813 11.8177 20.2397 11.4844L22.4428 9.76043C22.6407 9.60418 22.698 9.32293 22.5678 9.09376L20.4845 5.48438C20.3543 5.26043 20.0834 5.16668 19.8491 5.26043L17.2553 6.3073C16.7188 5.89584 16.1303 5.54688 15.4949 5.28126L15.1043 2.52084C15.0574 2.27605 14.8438 2.08334 14.5834 2.08334H10.4168C10.1563 2.08334 9.9428 2.27605 9.90114 2.52084L9.51051 5.28126C8.87509 5.54688 8.28655 5.89063 7.75009 6.3073L5.15634 5.26043C4.92197 5.17189 4.65114 5.26043 4.52093 5.48438L2.43759 9.09376C2.30739 9.31772 2.36468 9.59897 2.5626 9.76043L4.76051 11.4844C4.71885 11.8177 4.6876 12.1563 4.6876 12.5C4.6876 12.8438 4.71885 13.1823 4.76051 13.5156L2.5626 15.2396C2.36468 15.3958 2.30739 15.6771 2.43759 15.9063L4.52093 19.5156C4.65114 19.7396 4.92197 19.8333 5.15634 19.7396L7.75009 18.6927C8.28655 19.1042 8.87509 19.4531 9.51051 19.7188L9.90114 22.4792C9.9428 22.724 10.1563 22.9167 10.4168 22.9167H14.5834C14.8438 22.9167 15.0574 22.724 15.0991 22.4792L15.4897 19.7188C16.1251 19.4531 16.7136 19.1094 17.2501 18.6927L19.8438 19.7396C20.0782 19.8281 20.3491 19.7396 20.4793 19.5156L22.5626 15.9063C22.6928 15.6823 22.6355 15.401 22.4376 15.2396L20.2397 13.5156ZM12.5001 16.1458C10.4845 16.1458 8.85426 14.5156 8.85426 12.5C8.85426 10.4844 10.4845 8.85418 12.5001 8.85418C14.5157 8.85418 16.1459 10.4844 16.1459 12.5C16.1459 14.5156 14.5157 16.1458 12.5001 16.1458Z" fill="white"/>
</g>
<defs>
<clipPath id="clip0_149_376">
<rect width="25" height="25" fill="white"/>
</clipPath>
</defs>
</svg>
