<svg width="19" height="19" viewBox="0 0 19 19" fill="none" xmlns="http://www.w3.org/2000/svg">
<g clip-path="url(#clip0_144_297)">
<path d="M1.78175 9.49999C1.7813 9.42185 1.79628 9.34439 1.82583 9.27204C1.85537 9.1997 1.89891 9.13391 1.95394 9.07843L7.29769 3.73468C7.40949 3.62287 7.56113 3.56006 7.71925 3.56006C7.87737 3.56006 8.02901 3.62287 8.14081 3.73468C8.25262 3.84648 8.31543 3.99812 8.31543 4.15624C8.31543 4.31435 8.25262 4.466 8.14081 4.5778L3.21269 9.49999L8.14081 14.4222C8.19617 14.4775 8.24009 14.5433 8.27005 14.6156C8.30001 14.6879 8.31543 14.7654 8.31543 14.8437C8.31543 14.922 8.30001 14.9996 8.27005 15.0719C8.24009 15.1442 8.19617 15.2099 8.14081 15.2653C8.08545 15.3207 8.01973 15.3646 7.9474 15.3945C7.87507 15.4245 7.79754 15.4399 7.71925 15.4399C7.64096 15.4399 7.56343 15.4245 7.4911 15.3945C7.41877 15.3646 7.35305 15.3207 7.29769 15.2653L1.95394 9.92155C1.89891 9.86607 1.85537 9.80027 1.82583 9.72793C1.79628 9.65559 1.7813 9.57813 1.78175 9.49999Z" fill="#0364C6"/>
<path d="M1.78125 9.5C1.78125 9.34253 1.84381 9.1915 1.95516 9.08015C2.06651 8.96881 2.21753 8.90625 2.375 8.90625L16.625 8.90625C16.7825 8.90625 16.9335 8.96881 17.0448 9.08016C17.1562 9.19151 17.2187 9.34253 17.2187 9.5C17.2187 9.65747 17.1562 9.8085 17.0448 9.91985C16.9335 10.0312 16.7825 10.0937 16.625 10.0937L2.375 10.0937C2.21753 10.0937 2.06651 10.0312 1.95516 9.91984C1.84381 9.80849 1.78125 9.65747 1.78125 9.5Z" fill="#0364C6"/>
</g>
<defs>
<clipPath id="clip0_144_297">
<rect width="19" height="19" fill="white" transform="translate(19) rotate(90)"/>
</clipPath>
</defs>
</svg>
