<svg width="38" height="38" viewBox="0 0 38 38" fill="none" xmlns="http://www.w3.org/2000/svg">
<g clip-path="url(#clip0_1237_1113)">
<path d="M16.0919 0.750595C15.9669 0.883026 15.8639 1.1994 15.6726 2.08229C15.5401 2.72238 15.393 3.26683 15.3488 3.30362C15.3047 3.33305 14.9736 3.43605 14.6057 3.5317C13.458 3.81864 11.9791 4.44402 10.7872 5.13562L10.2869 5.42991L9.24953 4.7751C8.5285 4.31894 8.14592 4.12029 7.99141 4.12029C7.79276 4.12029 7.53525 4.34837 5.93869 5.94493C4.34949 7.53414 4.12141 7.79165 4.12141 7.9903C4.12141 8.1448 4.32006 8.52739 4.77622 9.24842L5.43103 10.2858L5.13673 10.7861C4.42306 12.0148 3.81975 13.4495 3.51074 14.634C3.41509 15.0019 3.30473 15.3404 3.26795 15.3698C3.23116 15.4066 2.68671 15.5464 2.06133 15.6788C1.19315 15.8627 0.884141 15.9657 0.759064 16.0908C0.589844 16.2527 0.589844 16.2527 0.589844 18.8351C0.589844 21.4176 0.589844 21.4176 0.759064 21.5795C0.884141 21.7045 1.20051 21.8075 2.06133 21.9915C2.68671 22.1239 3.23852 22.2637 3.28266 22.3005C3.3268 22.3373 3.40774 22.558 3.45924 22.7861C3.69468 23.8676 4.37156 25.5377 5.03373 26.7002L5.42367 27.3918L4.77622 28.4219C4.3127 29.1429 4.12141 29.5255 4.12141 29.68C4.12141 29.8786 4.34949 30.1361 5.94605 31.7327C7.53525 33.3219 7.79276 33.55 7.99141 33.55C8.14592 33.55 8.5285 33.3513 9.24953 32.8952L10.2796 32.2477L11.0447 32.6744C12.2587 33.366 14.0686 34.0797 15.0251 34.2489C15.1796 34.2784 15.3268 34.3372 15.3635 34.3887C15.4077 34.4329 15.5475 34.9847 15.6799 35.6101C15.8639 36.4709 15.9669 36.7872 16.0919 36.9123C16.2538 37.0815 16.2538 37.0815 18.8215 37.0815C21.1906 37.0815 21.4113 37.0742 21.5585 36.9491C21.6909 36.8461 21.7792 36.5739 21.9926 35.6174C22.1618 34.8375 22.2942 34.3887 22.3678 34.3519C22.4267 34.3225 22.8093 34.2048 23.2066 34.1018C24.4132 33.7707 25.8258 33.16 27.1501 32.3875L27.4076 32.2404L28.4303 32.8952C29.1514 33.3513 29.5266 33.55 29.6811 33.55C29.8797 33.55 30.1446 33.3145 31.7338 31.7253C33.323 30.1361 33.5511 29.8786 33.5511 29.68C33.5511 29.5255 33.3524 29.1429 32.8963 28.4219L32.2488 27.3918L32.6388 26.7002C33.3083 25.5304 34.125 23.485 34.2574 22.6463C34.2868 22.4918 34.3457 22.3373 34.3898 22.3005C34.434 22.2637 34.9858 22.1239 35.6112 21.9915C36.472 21.8075 36.7884 21.7045 36.9208 21.5795C37.0827 21.4176 37.0827 21.4176 37.0827 18.8351C37.0827 16.2527 37.0827 16.2527 36.9208 16.0908C36.7884 15.9657 36.472 15.8627 35.6112 15.6788C34.9858 15.5464 34.434 15.4066 34.3898 15.3698C34.3457 15.333 34.2648 15.1123 34.2133 14.8842C33.9778 13.8027 33.3009 12.1325 32.6388 10.9701L32.2488 10.2785L32.8963 9.24842C33.3598 8.52739 33.5511 8.1448 33.5511 7.9903C33.5511 7.79165 33.323 7.53414 31.7265 5.93758C30.1372 4.34837 29.8797 4.12029 29.6811 4.12029C29.5266 4.12029 29.144 4.31894 28.4303 4.76775L27.4003 5.42256L26.5615 4.95904C25.3329 4.2748 23.4935 3.54641 22.6474 3.41398C22.4929 3.38455 22.3384 3.32569 22.3016 3.28155C22.2648 3.2374 22.125 2.6856 21.9926 2.06021C21.8086 1.1994 21.7056 0.883026 21.5806 0.750595C21.4187 0.58873 21.4187 0.58873 18.8363 0.58873C16.2538 0.58873 16.2538 0.58873 16.0919 0.750595ZM20.9258 2.70031C21.2201 4.08351 21.2568 4.18651 21.4261 4.2748C21.507 4.31894 21.9484 4.45138 22.4046 4.56174C23.8687 4.93697 25.3917 5.57706 26.6572 6.36431C26.9588 6.5556 27.2752 6.69539 27.3929 6.69539C27.5327 6.69539 27.9447 6.47467 28.5995 6.06265L29.5928 5.42256L30.9245 6.75425L32.2488 8.07859L31.6161 9.0792C31.2114 9.71193 30.976 10.1607 30.976 10.2858C30.976 10.3962 31.1231 10.7273 31.3071 11.0142C32.1164 12.3165 32.7271 13.7732 33.117 15.333C33.2936 16.0467 33.3892 16.2968 33.507 16.3704C33.5952 16.4219 34.1691 16.5764 34.7871 16.7088L35.9055 16.9516V18.8351V20.726L34.8239 20.9614C33.4334 21.2631 33.4922 21.2484 33.3966 21.4249C33.3524 21.5059 33.22 21.9473 33.1096 22.4035C32.7344 23.8823 32.0355 25.5157 31.2703 26.7002C31.0937 26.9724 30.976 27.2447 30.976 27.3771C30.976 27.5316 31.1746 27.9068 31.6087 28.5911L32.2488 29.5917L30.9171 30.9234L29.5928 32.2477L28.5922 31.615C27.9595 31.2103 27.5107 30.9749 27.3856 30.9749C27.2752 30.9749 26.9441 31.122 26.6572 31.306C25.3917 32.0932 23.8687 32.7333 22.4046 33.1085C21.9484 33.2189 21.507 33.3513 21.4261 33.3955C21.2568 33.4838 21.2201 33.5868 20.9258 34.9626L20.7197 35.9044H18.8363H16.9527L16.7026 34.786C16.5702 34.168 16.423 33.6088 16.3789 33.5353C16.2832 33.3734 16.114 33.3145 15.1796 33.0791C13.8111 32.7333 12.4794 32.1741 11.1551 31.3869C10.7799 31.1588 10.3826 30.9749 10.2722 30.9749C10.1471 30.9749 9.69833 31.2103 9.08031 31.6076L8.0797 32.2477L6.75536 30.916L5.42367 29.5917L6.06377 28.5911C6.4905 27.9142 6.6965 27.5316 6.6965 27.3771C6.6965 27.2447 6.55671 26.9357 6.33599 26.5825C5.53403 25.2876 4.97487 23.9706 4.59228 22.4623C4.42306 21.8075 4.28327 21.4029 4.19498 21.3293C4.12141 21.2631 3.54017 21.1012 2.91479 20.9688L1.76703 20.726V18.8351V16.9516L2.88536 16.7015C3.50338 16.5691 4.06255 16.4219 4.13612 16.3778C4.29798 16.2748 4.3127 16.2453 4.57021 15.2521C4.93808 13.7879 5.46046 12.5519 6.2992 11.1393C6.51993 10.7714 6.6965 10.3815 6.6965 10.2711C6.6965 10.146 6.46107 9.69722 6.06377 9.0792L5.42367 8.07859L6.75536 6.74689L8.0797 5.42256L9.08031 6.0553C9.69097 6.44524 10.1618 6.69539 10.2796 6.69539C10.3826 6.69539 10.7725 6.51881 11.1404 6.29809C12.5604 5.45199 13.7964 4.93697 15.2679 4.56174C15.7241 4.45138 16.1655 4.31894 16.2464 4.2748C16.4157 4.18651 16.4524 4.08351 16.7467 2.70031L16.9527 1.76592H18.8363H20.7197L20.9258 2.70031Z" fill="white"/>
<path d="M17.7708 7.69606C14.7837 8.12279 12.8855 9.03511 10.9579 10.9554C9.26567 12.655 8.26506 14.5385 7.83097 16.8855C7.63968 17.9008 7.63968 19.7696 7.83097 20.7849C8.26506 23.1319 9.25831 25.0081 10.9579 26.715C12.6574 28.4072 14.5409 29.4078 16.888 29.8419C17.9033 30.0332 19.7721 30.0332 20.7874 29.8419C23.1344 29.4078 25.0179 28.4072 26.7175 26.715C28.4097 25.0154 29.4103 23.1319 29.8444 20.7849C30.0283 19.7916 30.0357 17.8272 29.8517 16.8855C28.9468 12.265 25.5256 8.78495 20.9787 7.86528C20.3018 7.72549 18.2859 7.62248 17.7708 7.69606ZM20.4637 8.94682C22.9873 9.37355 25.3048 10.7788 26.8278 12.7947C27.4091 13.5599 28.189 15.1123 28.4317 15.9805C29.3146 19.078 28.7187 22.3226 26.8058 24.8462C26.585 25.1405 26.379 25.3833 26.3496 25.3833C26.3275 25.3833 26.2245 25.192 26.1215 24.9639C25.8861 24.4195 25.2166 23.7058 24.6647 23.4115C23.9805 23.0436 23.5096 22.9553 22.2809 22.9553H21.192V22.6095C21.192 22.2858 21.2141 22.249 21.7071 21.7561C22.1853 21.2852 22.7371 20.4023 22.7371 20.1154C22.7371 20.0344 22.8695 20.0124 23.2742 20.0124C23.9805 20.0124 24.4072 19.8579 24.7825 19.4753C25.7757 18.4673 25.3269 16.9738 23.8996 16.525C23.7819 16.4882 23.7892 16.444 23.9511 15.9584C24.2822 14.9946 24.1718 13.6776 23.6862 12.7138C23.3846 12.1105 22.6194 11.3453 22.0161 11.0437C20.7506 10.4036 19.1982 10.4845 18.0725 11.2423C17.8812 11.3748 17.7046 11.4778 17.6826 11.4778C17.6605 11.4778 17.506 11.3601 17.3441 11.2129C16.2552 10.227 14.5851 10.4992 13.945 11.7721C13.4962 12.655 13.4373 14.1779 13.7831 15.7304L13.9597 16.4808L13.7684 16.5323C12.9738 16.7236 12.3631 17.4667 12.3631 18.2466C12.3631 18.7101 12.5324 19.0853 12.9149 19.4606C13.3417 19.8947 13.6654 20.0124 14.4085 20.0124C14.9088 20.0124 14.9235 20.0197 14.975 20.211C15.0707 20.623 15.5415 21.3367 16.0051 21.8002C16.4612 22.2417 16.4833 22.2858 16.4833 22.6095V22.9553H15.3944C14.1657 22.9553 13.6948 23.0436 13.0106 23.4115C12.4588 23.7058 11.7893 24.4195 11.5538 24.9639C11.4508 25.192 11.3478 25.3833 11.3184 25.3833C11.289 25.3833 11.0829 25.1405 10.8622 24.8536C8.9493 22.2785 8.3607 19.078 9.24359 15.9805C9.48639 15.1123 10.2663 13.5599 10.8475 12.7947C12.3558 10.7935 14.6807 9.38091 17.1823 8.94682C17.9989 8.79967 19.6102 8.79967 20.4637 8.94682ZM16.2111 11.853C16.2994 11.9045 16.6084 12.1694 16.8953 12.4416C17.5722 13.089 17.712 13.1038 18.2932 12.574C18.9333 12.0001 19.3895 11.8162 20.1988 11.8089C20.7874 11.8089 20.9125 11.8309 21.3539 12.0443C22.3398 12.5078 22.8916 13.3613 22.9431 14.5017C22.9652 14.9799 22.9431 15.2374 22.8475 15.5317C22.7739 15.7524 22.7077 15.9437 22.693 15.9511C22.6856 15.9658 21.994 15.4287 21.1553 14.7592C19.4998 13.4275 19.3674 13.3686 19.0216 13.7218C18.8965 13.8395 18.8377 13.9793 18.8377 14.1485C18.8377 14.2809 18.7494 14.5679 18.6464 14.7739C18.3447 15.3772 18.1019 15.4802 16.4318 15.7304L15.0265 15.929L14.9088 15.3772C14.6439 14.1927 14.6807 12.9051 14.9971 12.2944C15.2178 11.8677 15.8138 11.647 16.2111 11.853ZM20.8242 15.9805L21.7806 16.7383L21.7659 18.1436L21.7439 19.5415L21.4716 20.1007C21.1405 20.7702 20.7138 21.1822 20.0296 21.5059C19.5808 21.7193 19.4704 21.7414 18.8377 21.7414C18.2049 21.7414 18.0946 21.7193 17.6458 21.5059C16.9615 21.1822 16.5348 20.7702 16.2037 20.1007L15.9315 19.5415L15.9094 18.276L15.88 17.0105L16.0934 16.9664C16.2037 16.9443 16.6819 16.8708 17.1455 16.8045C17.6016 16.7457 18.1608 16.6206 18.3742 16.547C18.8156 16.3778 19.4042 15.8775 19.6102 15.4949C19.6911 15.3478 19.7794 15.2301 19.8162 15.2301C19.8456 15.2301 20.3018 15.5685 20.8242 15.9805ZM14.7175 18.2466V18.8352H14.3129C13.8199 18.8352 13.5403 18.6218 13.5403 18.2466C13.5403 17.8714 13.8199 17.658 14.3129 17.658H14.7175V18.2466ZM23.9511 17.8419C24.0688 17.9523 24.135 18.1068 24.135 18.2466C24.135 18.6218 23.8554 18.8352 23.3625 18.8352H22.9578V18.2466V17.658H23.3625C23.7009 17.658 23.8039 17.6874 23.9511 17.8419ZM18.8377 22.9186C19.1393 22.9186 19.5366 22.8891 19.7132 22.8597L20.0296 22.8008L20.0075 23.3894C19.9781 24.0148 19.8751 24.2282 19.4704 24.5298C19.1835 24.7432 18.4919 24.7432 18.2049 24.5298C17.8003 24.2282 17.6973 24.0148 17.6678 23.3894L17.6458 22.8008L17.9621 22.8597C18.1387 22.8891 18.536 22.9186 18.8377 22.9186ZM16.7261 24.5225C16.9468 25.0081 17.322 25.3906 17.8297 25.6555C18.1608 25.8247 18.3006 25.8542 18.8377 25.8542C19.3748 25.8542 19.5146 25.8247 19.8456 25.6555C20.3533 25.3906 20.7285 25.0081 20.9493 24.5151L21.1332 24.1178L22.3619 24.1472L23.5832 24.1693L24.0467 24.4195C24.3042 24.5593 24.5985 24.7726 24.7015 24.8977C24.9517 25.192 25.2166 25.7806 25.2828 26.1632L25.3269 26.4648L24.7163 26.9136C23.5611 27.7524 22.1706 28.363 20.7138 28.6647C19.8089 28.8486 17.8812 28.856 16.9983 28.6721C15.5563 28.3704 14.0406 27.7156 12.9664 26.921L12.3484 26.4648L12.3999 26.1264C12.5029 25.4348 12.9444 24.7947 13.5477 24.4636C14.0848 24.1767 14.2393 24.1472 15.468 24.1399L16.5495 24.1325L16.7261 24.5225Z" fill="white"/>
</g>
<defs>
<clipPath id="clip0_1237_1113">
<rect width="37.67" height="37.67" fill="white"/>
</clipPath>
</defs>
</svg>
