<svg width="19" height="19" viewBox="0 0 19 19" fill="none" xmlns="http://www.w3.org/2000/svg">
<path d="M1.18769 17.2187C1.1039 17.2192 1.02096 17.202 0.944304 17.1682C0.867653 17.1343 0.799031 17.0846 0.742949 17.0224C0.686867 16.9601 0.644595 16.8867 0.618913 16.807C0.59323 16.7272 0.584718 16.6429 0.593936 16.5596L1.05112 12.4034C1.0674 12.2706 1.12808 12.1471 1.22331 12.0531L10.9371 2.33933C11.1135 2.1625 11.3232 2.02221 11.5539 1.92649C11.7847 1.83076 12.0321 1.78149 12.2819 1.78149C12.5317 1.78149 12.7791 1.83076 13.0099 1.92649C13.2406 2.02221 13.4503 2.1625 13.6267 2.33933L15.4733 4.1859C15.6501 4.36238 15.7904 4.572 15.8862 4.80277C15.9819 5.03353 16.0311 5.28091 16.0311 5.53074C16.0311 5.78057 15.9819 6.02795 15.8862 6.25872C15.7904 6.48948 15.6501 6.6991 15.4733 6.87558L5.7655 16.5834C5.67147 16.6786 5.54802 16.7393 5.41518 16.7556L1.25894 17.2128L1.18769 17.2187ZM2.21487 12.7359L1.85862 15.954L5.07675 15.5978L14.6361 6.0384C14.7025 5.9722 14.7552 5.89355 14.7912 5.80694C14.8272 5.72034 14.8457 5.62748 14.8457 5.53371C14.8457 5.43993 14.8272 5.34708 14.7912 5.26048C14.7552 5.17387 14.7025 5.09522 14.6361 5.02902L12.7836 3.17652C12.7174 3.1101 12.6388 3.05739 12.5522 3.02143C12.4656 2.98547 12.3727 2.96696 12.2789 2.96696C12.1852 2.96696 12.0923 2.98547 12.0057 3.02143C11.9191 3.05739 11.8404 3.1101 11.7742 3.17652L2.21487 12.7359Z" fill="#003D68"/>
<path d="M13.6564 8.43709C13.5783 8.43754 13.5008 8.42256 13.4285 8.39301C13.3561 8.36346 13.2903 8.31993 13.2349 8.2649L9.54766 4.56584C9.4923 4.51048 9.44839 4.44475 9.41843 4.37242C9.38847 4.30009 9.37305 4.22257 9.37305 4.14427C9.37305 4.06598 9.38847 3.98846 9.41843 3.91613C9.44839 3.8438 9.4923 3.77807 9.54766 3.72271C9.60302 3.66735 9.66875 3.62344 9.74108 3.59348C9.81341 3.56352 9.89094 3.5481 9.96923 3.5481C10.0475 3.5481 10.125 3.56352 10.1974 3.59348C10.2697 3.62344 10.3354 3.66735 10.3908 3.72271L14.0899 7.42177C14.1455 7.47697 14.1897 7.54264 14.2198 7.61499C14.25 7.68735 14.2655 7.76495 14.2655 7.84334C14.2655 7.92172 14.25 7.99932 14.2198 8.07168C14.1897 8.14403 14.1455 8.2097 14.0899 8.2649C14.033 8.32137 13.9652 8.36574 13.8907 8.39533C13.8163 8.42492 13.7365 8.43913 13.6564 8.43709Z" fill="#003D68"/>
<path d="M9.55071 7.4239L4.92822 12.0464L5.76791 12.8861L10.3904 8.26359L9.55071 7.4239Z" fill="#003D68"/>
<path d="M17.8125 17.2188H8.3125C8.15503 17.2188 8.00401 17.1562 7.89266 17.0448C7.78131 16.9335 7.71875 16.7825 7.71875 16.625C7.71875 16.4675 7.78131 16.3165 7.89266 16.2052C8.00401 16.0938 8.15503 16.0312 8.3125 16.0312H17.8125C17.97 16.0312 18.121 16.0938 18.2323 16.2052C18.3437 16.3165 18.4062 16.4675 18.4062 16.625C18.4062 16.7825 18.3437 16.9335 18.2323 17.0448C18.121 17.1562 17.97 17.2188 17.8125 17.2188Z" fill="#003D68"/>
</svg>
