<svg width="20" height="20" viewBox="0 0 20 20" fill="none" xmlns="http://www.w3.org/2000/svg">
<path d="M10.0006 13.5C9.30831 13.5001 8.63157 13.2949 8.05592 12.9104C7.48027 12.5259 7.03158 11.9793 6.76659 11.3398C6.50159 10.7003 6.4322 9.99651 6.56718 9.31754C6.70217 8.63856 7.03546 8.01487 7.52493 7.52533C8.01439 7.03579 8.63803 6.70239 9.31697 6.56729C9.99592 6.4322 10.6997 6.50148 11.3393 6.76637C11.9788 7.03126 12.5255 7.47986 12.9101 8.05545C13.2947 8.63103 13.5 9.30774 13.5 10C13.4989 10.9278 13.1299 11.8174 12.4739 12.4735C11.8179 13.1296 10.9284 13.4988 10.0006 13.5ZM10.0006 7.92914C9.59083 7.92903 9.19027 8.05044 8.84953 8.278C8.5088 8.50557 8.24321 8.82908 8.08636 9.20761C7.92951 9.58613 7.88844 10.0027 7.96835 10.4045C8.04825 10.8064 8.24555 11.1756 8.53528 11.4653C8.82501 11.755 9.19415 11.9523 9.59603 12.0322C9.9979 12.1121 10.4144 12.0711 10.793 11.9142C11.1715 11.7574 11.495 11.4918 11.7226 11.151C11.9501 10.8103 12.0715 10.4097 12.0714 10C12.0707 9.45101 11.8523 8.92472 11.4641 8.53652C11.0759 8.14832 10.5496 7.9299 10.0006 7.92914Z" fill="white"/>
<path d="M9.99666 16.6165C8.07841 16.6106 6.19414 16.1098 4.52609 15.1625C2.85805 14.2152 1.46268 12.8535 0.474947 11.2091C0.25617 10.8437 0.140625 10.4258 0.140625 9.99995C0.140625 9.57408 0.25617 9.15619 0.474947 8.79081C1.45234 7.13748 2.84519 5.76856 4.51522 4.81998C6.18524 3.87139 8.07434 3.37614 9.99495 3.38338C11.9137 3.39012 13.7983 3.89118 15.467 4.83824C17.1357 5.7853 18.5322 7.14639 19.5218 8.79024C19.7409 9.15573 19.8566 9.57384 19.8566 9.99995C19.8566 10.4261 19.7409 10.8442 19.5218 11.2097C18.5333 12.8541 17.1373 14.2158 15.4687 15.1629C13.8001 16.1101 11.9153 16.6108 9.99666 16.6165ZM9.99666 4.81195C8.32309 4.80596 6.67706 5.23779 5.22197 6.06458C3.76688 6.89136 2.55333 8.08434 1.7018 9.52509C1.61694 9.66937 1.57219 9.83371 1.57219 10.0011C1.57219 10.1685 1.61694 10.3328 1.7018 10.4771C2.56223 11.9097 3.7778 13.096 5.23092 13.9212C6.68405 14.7465 8.32555 15.1828 9.99666 15.188C11.6713 15.1958 13.3187 14.7651 14.7752 13.9386C16.2316 13.1122 17.4463 11.9187 18.2984 10.4771C18.3834 10.3327 18.4282 10.1681 18.4282 10.0005C18.4282 9.83293 18.3834 9.66838 18.2984 9.52395C17.4458 8.08272 16.231 6.88957 14.7747 6.06298C13.3184 5.23639 11.6712 4.8051 9.99666 4.81195Z" fill="white"/>
</svg>
