<svg width="33" height="34" viewBox="0 0 33 34" fill="none" xmlns="http://www.w3.org/2000/svg">
<path d="M12.2801 0.44429C11.9375 0.556175 11.3501 1.15755 11.2452 1.51418C11.1962 1.67501 11.1613 1.98269 11.1613 2.19946C11.1613 2.51414 11.1403 2.59106 11.0494 2.59106C10.5809 2.59106 9.88859 3.05957 9.65083 3.54906C9.52497 3.8008 9.51797 4.10148 9.48301 8.5069L9.44804 13.206L6.55306 11.0802C4.95872 9.91244 3.5322 8.91248 3.38535 8.84954C2.75601 8.59781 1.86793 8.82157 1.47634 9.33204C1.07775 9.8565 1.09873 9.17121 1.09174 21.4504V32.7996H0.749096C0.301561 32.7996 0.19667 32.8416 0.0708013 33.0933C-0.0550677 33.3451 -0.0131114 33.5828 0.19667 33.7786C0.35051 33.9185 0.371489 33.9185 16.189 33.9185C28.5382 33.9115 32.0625 33.8975 32.1464 33.8276C32.3212 33.6947 32.4331 33.429 32.3912 33.2472C32.3143 32.9465 32.0765 32.7996 31.6709 32.7996H31.3003V26.8138C31.3003 22.3875 31.2793 20.7512 31.2164 20.5484C31.0975 20.1358 30.601 19.6183 30.2025 19.4855C30.0206 19.4225 29.8179 19.3736 29.7479 19.3736C29.643 19.3736 29.6221 19.3107 29.6221 18.982C29.6221 18.4156 29.4962 18.0799 29.1535 17.6953C28.692 17.1779 28.4962 17.1359 26.6711 17.1359H25.1467V10.5907C25.1467 5.73079 25.1257 3.96862 25.0628 3.76583C24.9439 3.35326 24.4474 2.8358 24.0489 2.70294C23.867 2.64001 23.6643 2.59106 23.5943 2.59106C23.4894 2.59106 23.4685 2.52812 23.4685 2.19946C23.4685 1.63305 23.3426 1.2974 22.9999 0.912804C22.4755 0.332405 22.7132 0.353386 17.2869 0.360378C14.0283 0.367371 12.4479 0.39534 12.2801 0.44429ZM22.1748 1.64704C22.3217 1.78689 22.3496 1.88479 22.3496 2.20646V2.59106H17.3149H12.2801V2.20646C12.2801 1.88479 12.3081 1.78689 12.4549 1.64704L12.6227 1.47222H17.3149H22.007L22.1748 1.64704ZM23.8531 3.88471L24.0279 4.05254V10.5977V17.1359H22.5174C20.7203 17.1359 20.5665 17.1709 20.077 17.6604C19.6784 18.052 19.5525 18.3736 19.5525 18.982C19.5525 19.2967 19.5316 19.3736 19.4406 19.3736C18.9022 19.3736 18.119 19.989 17.9582 20.5344C17.9023 20.7232 17.8743 21.3525 17.8743 22.3315V23.835L16.182 23.8629C14.4898 23.8839 14.4828 23.8839 14.1262 24.0727C13.5947 24.3524 13.378 24.5622 13.1122 25.0517L12.8745 25.4922L12.8535 29.1494L12.8325 32.7996H11.7207H10.6018V18.4296V4.05254L10.7767 3.88471L10.9445 3.70989H17.3149H23.6852L23.8531 3.88471ZM6.23139 12.234L9.44804 14.5976L9.46902 23.6951L9.48301 32.7996H5.84679H2.21058V21.5134V10.2341L2.35742 10.0453C2.46931 9.90545 2.56021 9.86349 2.75601 9.86349C2.98677 9.87048 3.40633 10.1572 6.23139 12.234ZM28.3284 18.4296C28.4752 18.5694 28.5032 18.6673 28.5032 18.989V19.3736H24.5873H20.6714V18.989C20.6714 18.6673 20.6993 18.5694 20.8462 18.4296L21.014 18.2548H24.5873H28.1606L28.3284 18.4296ZM30.0067 20.6672L30.1815 20.8351V26.8208V32.7996H24.5873H18.9931V26.8208V20.8351L19.1679 20.6672L19.3358 20.4924H24.5873H29.8388L30.0067 20.6672ZM17.8743 28.8837V32.7996H15.9163H13.9584V29.3452C13.9584 27.0656 13.9863 25.8209 14.0353 25.688C14.0772 25.5831 14.1751 25.4153 14.259 25.3244C14.5597 25.0027 14.7345 24.9748 16.3569 24.9678H17.8743V28.8837Z" fill="white"/>
<path d="M12.0147 6.55609C11.8678 6.61203 11.707 6.99663 11.749 7.17844C11.7769 7.26935 11.8608 7.4092 11.9448 7.48612C12.0916 7.62598 12.1685 7.62598 17.3082 7.62598C21.301 7.61898 22.5527 7.605 22.6366 7.53507C22.9443 7.29732 22.9653 6.91272 22.6856 6.647C22.5387 6.50714 22.4618 6.50714 17.3222 6.51413C14.4551 6.51413 12.0636 6.53511 12.0147 6.55609Z" fill="white"/>
<path d="M12.0147 9.91254C11.8678 9.96848 11.707 10.3531 11.749 10.5349C11.7769 10.6258 11.8608 10.7656 11.9448 10.8426C12.0916 10.9824 12.1685 10.9824 17.3082 10.9824C21.301 10.9754 22.5527 10.9614 22.6366 10.8915C22.9443 10.6538 22.9653 10.2692 22.6856 10.0034C22.5387 9.86359 22.4618 9.86359 17.3222 9.87058C14.4551 9.87058 12.0636 9.89156 12.0147 9.91254Z" fill="white"/>
<path d="M12.0147 13.269C11.8678 13.3249 11.707 13.7095 11.749 13.8913C11.7769 13.9822 11.8608 14.1221 11.9448 14.199C12.0916 14.3389 12.1685 14.3389 17.3082 14.3389C21.301 14.3319 22.5527 14.3179 22.6366 14.248C22.9443 14.0102 22.9653 13.6256 22.6856 13.3599C22.5387 13.22 22.4618 13.22 17.3222 13.227C14.4551 13.227 12.0636 13.248 12.0147 13.269Z" fill="white"/>
<path d="M12.0147 16.6254C11.8678 16.6814 11.707 17.066 11.749 17.2478C11.7769 17.3387 11.8608 17.4785 11.9448 17.5555C12.0916 17.6883 12.1755 17.6953 15.3572 17.6953C18.5389 17.6953 18.6228 17.6883 18.7697 17.5555C19.0494 17.2897 19.0284 16.9051 18.7207 16.6674C18.6368 16.6044 17.8117 16.5835 15.3572 16.5835C13.5671 16.5835 12.0636 16.6044 12.0147 16.6254Z" fill="white"/>
<path d="M11.8936 20.1077C11.7817 20.2126 11.7188 20.3595 11.7188 20.4923C11.7188 20.6252 11.7817 20.772 11.8936 20.8769L12.0614 21.0518H14.5019C16.8514 21.0518 16.9423 21.0448 17.0892 20.9119C17.3689 20.6462 17.3479 20.2616 17.0402 20.0238C16.9563 19.9609 16.299 19.9399 14.4949 19.9329H12.0614L11.8936 20.1077Z" fill="white"/>
<path d="M3.60318 15.5277C3.54025 15.5627 3.44934 15.6886 3.40039 15.8075C3.2955 16.0522 3.40039 16.3948 3.61717 16.5067C3.81296 16.6116 7.95265 16.5906 8.09251 16.4857C8.40019 16.248 8.42117 15.8634 8.14146 15.5977C7.99461 15.4648 7.90371 15.4578 5.85484 15.4578C4.6381 15.4578 3.66611 15.4928 3.60318 15.5277Z" fill="white"/>
<path d="M3.60318 18.8842C3.54025 18.9192 3.44934 19.045 3.40039 19.1639C3.2955 19.4086 3.40039 19.7513 3.61717 19.8632C3.81296 19.9681 7.95265 19.9471 8.09251 19.8422C8.40019 19.6044 8.42117 19.2198 8.14146 18.9541C7.99461 18.8213 7.90371 18.8143 5.85484 18.8143C4.6381 18.8143 3.66611 18.8492 3.60318 18.8842Z" fill="white"/>
<path d="M3.60318 22.2406C3.54025 22.2756 3.44934 22.4015 3.40039 22.5203C3.2955 22.7651 3.40039 23.1077 3.61717 23.2196C3.81296 23.3245 7.95265 23.3035 8.09251 23.1986C8.40019 22.9609 8.42117 22.5763 8.14146 22.3106C7.99461 22.1777 7.90371 22.1707 5.85484 22.1707C4.6381 22.1707 3.66611 22.2057 3.60318 22.2406Z" fill="white"/>
<path d="M3.60318 25.5971C3.54025 25.632 3.44934 25.7579 3.40039 25.8768C3.2955 26.1215 3.40039 26.4642 3.61717 26.5761C3.81296 26.6809 7.95265 26.66 8.09251 26.5551C8.40019 26.3173 8.42117 25.9327 8.14146 25.667C7.99461 25.5341 7.90371 25.5272 5.85484 25.5272C4.6381 25.5272 3.66611 25.5621 3.60318 25.5971Z" fill="white"/>
<path d="M20.4053 22.7792C20.2585 22.8352 20.0976 23.2198 20.1396 23.4016C20.1676 23.4925 20.2515 23.6323 20.3354 23.7093C20.4822 23.8491 20.5661 23.8491 24.587 23.8491C28.6078 23.8491 28.6917 23.8491 28.8385 23.7093C29.1182 23.4435 29.0973 23.0589 28.7896 22.8212C28.7057 22.7583 27.6987 22.7373 24.587 22.7373C22.3353 22.7373 20.4543 22.7583 20.4053 22.7792Z" fill="white"/>
<path d="M20.4053 26.1357C20.2585 26.1916 20.0976 26.5762 20.1396 26.758C20.1676 26.8489 20.2515 26.9888 20.3354 27.0657C20.4822 27.2056 20.5661 27.2056 24.587 27.2056C28.6078 27.2056 28.6917 27.2056 28.8385 27.0657C29.1182 26.8 29.0973 26.4154 28.7896 26.1776C28.7057 26.1147 27.6987 26.0937 24.587 26.0937C22.3353 26.0937 20.4543 26.1147 20.4053 26.1357Z" fill="white"/>
<path d="M20.4053 29.4921C20.2585 29.5481 20.0976 29.9327 20.1396 30.1145C20.1676 30.2054 20.2515 30.3452 20.3354 30.4222C20.4822 30.562 20.5661 30.562 24.587 30.562C28.6078 30.562 28.6917 30.562 28.8385 30.4222C29.1182 30.1564 29.0973 29.7718 28.7896 29.5341C28.7057 29.4711 27.6987 29.4502 24.587 29.4502C22.3353 29.4502 20.4543 29.4711 20.4053 29.4921Z" fill="white"/>
</svg>
