<svg width="23" height="23" viewBox="0 0 23 23" fill="none" xmlns="http://www.w3.org/2000/svg">
<g clip-path="url(#clip0_1690_876)">
<path d="M22.5208 3.35417H11.5V19.6458H22.5208V3.35417Z" fill="white"/>
<path d="M22.5195 20.125H12.9362C12.6713 20.125 12.457 19.9107 12.457 19.6458C12.457 19.381 12.6713 19.1667 12.9362 19.1667H22.0404V3.83333H12.9362C12.6713 3.83333 12.457 3.61902 12.457 3.35417C12.457 3.08931 12.6713 2.875 12.9362 2.875H22.5195C22.7844 2.875 22.9987 3.08931 22.9987 3.35417V19.6458C22.9987 19.9107 22.7844 20.125 22.5195 20.125Z" fill="#AEB9C6"/>
<path d="M13.4167 0L0 2.5V20.5L13.4167 23V0Z" fill="#AEB9C6"/>
<path opacity="0.2" d="M0 2.50001V2.73959L13.4167 0.239583V0L0 2.50001Z" fill="white"/>
<path opacity="0.1" d="M0 20.5L13.4167 23V22.7604L0 20.2604V20.5Z" fill="black"/>
<path d="M20.6042 5.27083H12.9375V6.22916H20.6042V5.27083Z" fill="#AEB9C6"/>
<path d="M20.6042 8.14583H12.9375V9.10416H20.6042V8.14583Z" fill="#AEB9C6"/>
<path d="M20.6042 11.0208H12.9375V11.9792H20.6042V11.0208Z" fill="#AEB9C6"/>
<path d="M20.6042 13.8958H12.9375V14.8542H20.6042V13.8958Z" fill="#AEB9C6"/>
<path d="M20.6042 16.7708H12.9375V17.7292H20.6042V16.7708Z" fill="#AEB9C6"/>
<path d="M22.5221 20.125C22.787 20.125 23.0013 19.9107 23.0013 19.6458V12.4583L13.418 2.875V20.125H22.5221Z" fill="url(#paint0_linear_1690_876)"/>
<path d="M7.60632 15.8425L8.62491 15.9152L10.746 7.89163L9.22931 7.99996L8.12106 12.1546C8.12106 12.1546 7.55743 10.1042 7.02229 8.1576L5.4034 8.27323L4.33639 12.1546L3.34033 8.42058L1.87891 8.52498L3.7403 15.5663L4.90622 15.6496L6.22872 11.0208C6.22872 11.0208 6.98818 13.6791 7.60632 15.8425Z" fill="white"/>
<path opacity="0.05" d="M13.4167 0L0 2.5V20.5L13.4167 23V0Z" fill="url(#paint1_linear_1690_876)"/>
<path d="M22.5208 2.875H13.4167V0L0 2.50001V20.5L13.4167 23V20.125H22.5208C22.7857 20.125 23 19.9107 23 19.6458V3.35417C23 3.08931 22.7857 2.875 22.5208 2.875Z" fill="url(#paint2_linear_1690_876)"/>
</g>
<defs>
<linearGradient id="paint0_linear_1690_876" x1="9.10547" y1="7.1875" x2="22.3819" y2="20.4639" gradientUnits="userSpaceOnUse">
<stop stop-opacity="0.1"/>
<stop offset="1" stop-opacity="0"/>
</linearGradient>
<linearGradient id="paint1_linear_1690_876" x1="-0.000781544" y1="11.4995" x2="13.4167" y2="11.4995" gradientUnits="userSpaceOnUse">
<stop stop-color="white"/>
<stop offset="1"/>
</linearGradient>
<linearGradient id="paint2_linear_1690_876" x1="-1.49831" y1="5.71314" x2="24.0018" y2="17.604" gradientUnits="userSpaceOnUse">
<stop stop-color="white" stop-opacity="0.2"/>
<stop offset="1" stop-color="white" stop-opacity="0"/>
</linearGradient>
<clipPath id="clip0_1690_876">
<rect width="23" height="23" fill="white"/>
</clipPath>
</defs>
</svg>
