<svg width="24" height="24" viewBox="0 0 24 24" fill="none" xmlns="http://www.w3.org/2000/svg">
<path d="M12 3C13.7615 3 15.4834 3.52234 16.9481 4.50097C18.4127 5.47961 19.5542 6.87057 20.2283 8.49798C20.9024 10.1254 21.0788 11.9161 20.7351 13.6438C20.3915 15.3714 19.5432 16.9584 18.2977 18.2039C17.0521 19.4495 15.4652 20.2977 13.7375 20.6414C12.0099 20.985 10.2191 20.8086 8.59173 20.1346C6.96433 19.4605 5.57336 18.3189 4.59473 16.8543C3.6161 15.3897 3.09375 13.6677 3.09375 11.9063C3.09624 9.54493 4.03537 7.28103 5.70508 5.61132C7.37478 3.94161 9.63868 3.00248 12 3ZM12 1.78125C9.99747 1.78125 8.0399 2.37507 6.37486 3.48762C4.70981 4.60017 3.41206 6.18148 2.64572 8.03158C1.87939 9.88168 1.67888 11.9175 2.06955 13.8815C2.46023 15.8456 3.42454 17.6497 4.84055 19.0657C6.25656 20.4817 8.06066 21.446 10.0247 21.8367C11.9888 22.2274 14.0246 22.0269 15.8747 21.2605C17.7248 20.4942 19.3061 19.1964 20.4186 17.5314C21.5312 15.8664 22.125 13.9088 22.125 11.9063C22.125 9.22093 21.0583 6.6456 19.1595 4.74679C17.2607 2.84799 14.6853 1.78125 12 1.78125Z" fill="#AEB9C6"/>
<path d="M12.2017 3C12.5936 3 13.2855 3.68625 13.8761 5.19188C14.5717 6.96563 14.9542 9.35062 14.9542 11.9062C14.9542 14.4619 14.5792 16.8469 13.8761 18.6206C13.2855 20.1206 12.5955 20.8125 12.2017 20.8125C11.808 20.8125 11.118 20.1262 10.5273 18.6206C9.83359 16.8469 9.44922 14.4619 9.44922 11.9062C9.44922 9.35062 9.82422 6.96563 10.5273 5.19188C11.1198 3.68438 11.8117 3 12.2017 3ZM12.2017 1.78125C10.008 1.78125 8.23047 6.315 8.23047 11.9062C8.23047 17.4975 10.008 22.0312 12.2017 22.0312C14.3955 22.0312 16.173 17.4975 16.173 11.9062C16.173 6.315 14.3955 1.78125 12.2017 1.78125Z" fill="#AEB9C6"/>
<path d="M3.3125 15.0694H21.095" stroke="#AEB9C6" stroke-width="1.5" stroke-miterlimit="10"/>
<path d="M3.3125 8.74124H21.095" stroke="#AEB9C6" stroke-width="1.5" stroke-miterlimit="10"/>
</svg>
