<svg width="300" height="300" viewBox="0 0 300 300" fill="none" xmlns="http://www.w3.org/2000/svg">
<path d="M75 212.5C75 187.5 125 173.75 150 173.75C175 173.75 225 187.5 225 212.5V225H75M187.5 112.5C187.5 122.446 183.549 131.984 176.517 139.017C169.484 146.049 159.946 150 150 150C140.054 150 130.516 146.049 123.483 139.017C116.451 131.984 112.5 122.446 112.5 112.5C112.5 102.554 116.451 93.0161 123.483 85.9835C130.516 78.9509 140.054 75 150 75C159.946 75 169.484 78.9509 176.517 85.9835C183.549 93.0161 187.5 102.554 187.5 112.5ZM37.5 62.5V237.5C37.5 244.13 40.1339 250.489 44.8223 255.178C49.5107 259.866 55.8696 262.5 62.5 262.5H237.5C244.13 262.5 250.489 259.866 255.178 255.178C259.866 250.489 262.5 244.13 262.5 237.5V62.5C262.5 55.8696 259.866 49.5107 255.178 44.8223C250.489 40.1339 244.13 37.5 237.5 37.5H62.5C55.8696 37.5 49.5107 40.1339 44.8223 44.8223C40.1339 49.5107 37.5 55.8696 37.5 62.5Z" fill="black"/>
</svg>
