<svg width="253" height="253" viewBox="0 0 253 253" fill="none" xmlns="http://www.w3.org/2000/svg">
<path d="M68.5208 79.0625C68.5208 63.6854 74.6293 48.9382 85.5025 38.065C96.3757 27.1918 111.123 21.0833 126.5 21.0833C141.877 21.0833 156.624 27.1918 167.497 38.065C178.371 48.9382 184.479 63.6854 184.479 79.0625C184.479 94.4395 178.371 109.187 167.497 120.06C156.624 130.933 141.877 137.042 126.5 137.042C111.123 137.042 96.3757 130.933 85.5025 120.06C74.6293 109.187 68.5208 94.4395 68.5208 79.0625ZM31.625 200.292C31.625 186.313 37.1782 172.906 47.0629 163.021C56.9476 153.136 70.3542 147.583 84.3333 147.583H168.667C182.646 147.583 196.052 153.136 205.937 163.021C215.822 172.906 221.375 186.313 221.375 200.292V231.917H31.625V200.292Z" fill="grey"/>
</svg>
