<svg width="154" height="154" viewBox="0 0 154 154" fill="none" xmlns="http://www.w3.org/2000/svg">
<circle cx="76.5217" cy="76.5217" r="76.5217" fill="#E6F3FA"/>
<mask id="mask0_144_222" style="mask-type:alpha" maskUnits="userSpaceOnUse" x="0" y="0" width="154" height="154">
<circle cx="76.5217" cy="76.5217" r="76.5217" fill="#E9E8E8"/>
</mask>
<g mask="url(#mask0_144_222)">
<path d="M76.5218 75.1553L64.9069 -8.88199L118.882 2.04969L150.994 27.3292L166.708 75.1553V101.801L139.379 162.609H49.1926L7.51562 133.23L76.5218 75.1553Z" fill="#F6B662" stroke="white" stroke-width="2"/>
</g>
<circle cx="77.5231" cy="76.5231" r="66.215" fill="white"/>
<path d="M29.6879 94.7452V98.3546H28.766V90.3546H29.6879V93.2921H29.766C29.9067 92.9822 30.1176 92.7361 30.3988 92.5538C30.6827 92.3689 31.0603 92.2765 31.5317 92.2765C31.9405 92.2765 32.2986 92.3585 32.6059 92.5226C32.9132 92.684 33.1514 92.9327 33.3207 93.2686C33.4926 93.602 33.5785 94.0265 33.5785 94.5421V98.3546H32.6567V94.6046C32.6567 94.128 32.533 93.7595 32.2856 93.4991C32.0408 93.2361 31.7009 93.1046 31.266 93.1046C30.9639 93.1046 30.6931 93.1684 30.4535 93.296C30.2166 93.4236 30.0291 93.6098 29.891 93.8546C29.7556 94.0994 29.6879 94.3963 29.6879 94.7452ZM37.0307 98.4952C36.6505 98.4952 36.3054 98.4236 35.9955 98.2804C35.6856 98.1345 35.4395 97.9249 35.2572 97.6515C35.0749 97.3754 34.9838 97.0421 34.9838 96.6515C34.9838 96.3077 35.0515 96.0291 35.1869 95.8155C35.3223 95.5994 35.5033 95.4301 35.7299 95.3077C35.9565 95.1853 36.2065 95.0942 36.4799 95.0343C36.7559 94.9718 37.0333 94.9223 37.3119 94.8858C37.6765 94.839 37.9721 94.8038 38.1986 94.7804C38.4278 94.7543 38.5945 94.7114 38.6986 94.6515C38.8054 94.5916 38.8588 94.4874 38.8588 94.339V94.3077C38.8588 93.9223 38.7533 93.6228 38.5424 93.4093C38.3341 93.1957 38.0177 93.089 37.5932 93.089C37.1531 93.089 36.808 93.1853 36.558 93.378C36.308 93.5707 36.1322 93.7765 36.0307 93.9952L35.1557 93.6827C35.3119 93.3181 35.5203 93.0343 35.7807 92.8311C36.0437 92.6254 36.3302 92.4822 36.6401 92.4015C36.9526 92.3181 37.2598 92.2765 37.5619 92.2765C37.7546 92.2765 37.976 92.2999 38.226 92.3468C38.4786 92.391 38.7221 92.4835 38.9565 92.6241C39.1934 92.7647 39.3901 92.977 39.5463 93.2608C39.7026 93.5447 39.7807 93.9249 39.7807 94.4015V98.3546H38.8588V97.5421H38.8119C38.7494 97.6723 38.6453 97.8116 38.4994 97.9601C38.3536 98.1085 38.1596 98.2348 37.9174 98.339C37.6752 98.4431 37.3796 98.4952 37.0307 98.4952ZM37.1713 97.6671C37.5359 97.6671 37.8432 97.5955 38.0932 97.4522C38.3458 97.309 38.5359 97.1241 38.6635 96.8976C38.7937 96.671 38.8588 96.4327 38.8588 96.1827V95.339C38.8197 95.3858 38.7338 95.4288 38.601 95.4679C38.4708 95.5043 38.3197 95.5369 38.1479 95.5655C37.9786 95.5916 37.8132 95.615 37.6518 95.6358C37.4929 95.6541 37.364 95.6697 37.2651 95.6827C37.0255 95.714 36.8015 95.7647 36.5932 95.8351C36.3874 95.9028 36.2208 96.0056 36.0932 96.1436C35.9682 96.2791 35.9057 96.464 35.9057 96.6983C35.9057 97.0186 36.0242 97.2608 36.2611 97.4249C36.5007 97.5864 36.8041 97.6671 37.1713 97.6671ZM46.1547 92.3546L43.936 98.3546H42.9985L40.7797 92.3546H41.7797L43.436 97.1358H43.4985L45.1547 92.3546H46.1547ZM49.6723 98.4796C49.0942 98.4796 48.5955 98.352 48.1762 98.0968C47.7595 97.839 47.4379 97.4796 47.2113 97.0186C46.9874 96.5551 46.8754 96.016 46.8754 95.4015C46.8754 94.7869 46.9874 94.2452 47.2113 93.7765C47.4379 93.3051 47.753 92.9379 48.1567 92.6749C48.5629 92.4093 49.0369 92.2765 49.5785 92.2765C49.891 92.2765 50.1996 92.3285 50.5043 92.4327C50.809 92.5369 51.0863 92.7061 51.3363 92.9405C51.5863 93.1723 51.7856 93.4796 51.934 93.8624C52.0824 94.2452 52.1567 94.7166 52.1567 95.2765V95.6671H47.5317V94.8702H51.2192C51.2192 94.5317 51.1514 94.2296 51.016 93.964C50.8832 93.6983 50.6931 93.4887 50.4457 93.3351C50.2009 93.1814 49.9119 93.1046 49.5785 93.1046C49.2113 93.1046 48.8936 93.1957 48.6254 93.378C48.3598 93.5577 48.1554 93.7921 48.0121 94.0811C47.8689 94.3702 47.7973 94.6801 47.7973 95.0108V95.5421C47.7973 95.9952 47.8754 96.3793 48.0317 96.6944C48.1905 97.0069 48.4106 97.2452 48.6918 97.4093C48.9731 97.5707 49.2999 97.6515 49.6723 97.6515C49.9145 97.6515 50.1332 97.6176 50.3285 97.5499C50.5264 97.4796 50.697 97.3754 50.8402 97.2374C50.9835 97.0968 51.0942 96.9223 51.1723 96.714L52.0629 96.964C51.9692 97.266 51.8116 97.5317 51.5902 97.7608C51.3689 97.9874 51.0955 98.1645 50.7699 98.2921C50.4444 98.4171 50.0785 98.4796 49.6723 98.4796ZM56.6527 98.3546V92.3546H57.5746V98.3546H56.6527ZM57.1215 91.3546C56.9418 91.3546 56.7869 91.2934 56.6567 91.171C56.5291 91.0486 56.4652 90.9015 56.4652 90.7296C56.4652 90.5577 56.5291 90.4106 56.6567 90.2882C56.7869 90.1658 56.9418 90.1046 57.1215 90.1046C57.3012 90.1046 57.4548 90.1658 57.5824 90.2882C57.7126 90.4106 57.7777 90.5577 57.7777 90.7296C57.7777 90.9015 57.7126 91.0486 57.5824 91.171C57.4548 91.2934 57.3012 91.3546 57.1215 91.3546ZM63.5131 93.6983L62.685 93.9327C62.6329 93.7947 62.5561 93.6606 62.4545 93.5304C62.3555 93.3976 62.2201 93.2882 62.0483 93.2022C61.8764 93.1163 61.6563 93.0733 61.3881 93.0733C61.0209 93.0733 60.7149 93.158 60.4701 93.3272C60.2279 93.4939 60.1068 93.7061 60.1068 93.964C60.1068 94.1931 60.1902 94.3741 60.3568 94.5069C60.5235 94.6397 60.7839 94.7504 61.1381 94.839L62.0287 95.0577C62.5652 95.1879 62.9649 95.3871 63.2279 95.6554C63.491 95.921 63.6225 96.2634 63.6225 96.6827C63.6225 97.0265 63.5235 97.3338 63.3256 97.6046C63.1303 97.8754 62.8568 98.089 62.5053 98.2452C62.1537 98.4015 61.7449 98.4796 61.2787 98.4796C60.6667 98.4796 60.1602 98.3468 59.7592 98.0811C59.3582 97.8155 59.1042 97.4275 58.9975 96.9171L59.8725 96.6983C59.9558 97.0213 60.1134 97.2634 60.3451 97.4249C60.5795 97.5864 60.8855 97.6671 61.2631 97.6671C61.6928 97.6671 62.0339 97.5759 62.2865 97.3936C62.5417 97.2088 62.6693 96.9874 62.6693 96.7296C62.6693 96.5213 62.5964 96.3468 62.4506 96.2061C62.3048 96.0629 62.0808 95.9561 61.7787 95.8858L60.7787 95.6515C60.2292 95.5213 59.8256 95.3194 59.5678 95.046C59.3126 94.7699 59.185 94.4249 59.185 94.0108C59.185 93.6723 59.28 93.3728 59.4701 93.1124C59.6628 92.852 59.9246 92.6476 60.2553 92.4991C60.5886 92.3507 60.9662 92.2765 61.3881 92.2765C61.9818 92.2765 62.448 92.4067 62.7865 92.6671C63.1277 92.9275 63.3699 93.2713 63.5131 93.6983ZM69.2602 93.6983L68.432 93.9327C68.38 93.7947 68.3031 93.6606 68.2016 93.5304C68.1026 93.3976 67.9672 93.2882 67.7953 93.2022C67.6235 93.1163 67.4034 93.0733 67.1352 93.0733C66.768 93.0733 66.462 93.158 66.2172 93.3272C65.975 93.4939 65.8539 93.7061 65.8539 93.964C65.8539 94.1931 65.9373 94.3741 66.1039 94.5069C66.2706 94.6397 66.531 94.7504 66.8852 94.839L67.7758 95.0577C68.3123 95.1879 68.712 95.3871 68.975 95.6554C69.238 95.921 69.3695 96.2634 69.3695 96.6827C69.3695 97.0265 69.2706 97.3338 69.0727 97.6046C68.8774 97.8754 68.6039 98.089 68.2524 98.2452C67.9008 98.4015 67.4919 98.4796 67.0258 98.4796C66.4138 98.4796 65.9073 98.3468 65.5063 98.0811C65.1052 97.8155 64.8513 97.4275 64.7445 96.9171L65.6195 96.6983C65.7029 97.0213 65.8604 97.2634 66.0922 97.4249C66.3266 97.5864 66.6326 97.6671 67.0102 97.6671C67.4399 97.6671 67.781 97.5759 68.0336 97.3936C68.2888 97.2088 68.4164 96.9874 68.4164 96.7296C68.4164 96.5213 68.3435 96.3468 68.1977 96.2061C68.0518 96.0629 67.8279 95.9561 67.5258 95.8858L66.5258 95.6515C65.9763 95.5213 65.5727 95.3194 65.3149 95.046C65.0596 94.7699 64.932 94.4249 64.932 94.0108C64.932 93.6723 65.0271 93.3728 65.2172 93.1124C65.4099 92.852 65.6716 92.6476 66.0024 92.4991C66.3357 92.3507 66.7133 92.2765 67.1352 92.2765C67.7289 92.2765 68.1951 92.4067 68.5336 92.6671C68.8748 92.9275 69.1169 93.2713 69.2602 93.6983ZM74.5385 95.9015V92.3546H75.4604V98.3546H74.5385V97.339H74.476C74.3354 97.6436 74.1166 97.9028 73.8197 98.1163C73.5229 98.3272 73.1479 98.4327 72.6947 98.4327C72.3197 98.4327 71.9864 98.3507 71.6947 98.1866C71.4031 98.0199 71.1739 97.7699 71.0072 97.4366C70.8406 97.1007 70.7572 96.6775 70.7572 96.1671V92.3546H71.6791V96.1046C71.6791 96.5421 71.8015 96.891 72.0463 97.1515C72.2937 97.4119 72.6088 97.5421 72.9916 97.5421C73.2208 97.5421 73.4539 97.4835 73.6908 97.3663C73.9304 97.2491 74.1309 97.0694 74.2924 96.8272C74.4565 96.5851 74.5385 96.2765 74.5385 95.9015ZM79.6645 98.4796C79.0863 98.4796 78.5876 98.352 78.1684 98.0968C77.7517 97.839 77.4301 97.4796 77.2035 97.0186C76.9796 96.5551 76.8676 96.016 76.8676 95.4015C76.8676 94.7869 76.9796 94.2452 77.2035 93.7765C77.4301 93.3051 77.7452 92.9379 78.1488 92.6749C78.5551 92.4093 79.0291 92.2765 79.5707 92.2765C79.8832 92.2765 80.1918 92.3285 80.4965 92.4327C80.8012 92.5369 81.0785 92.7061 81.3285 92.9405C81.5785 93.1723 81.7777 93.4796 81.9262 93.8624C82.0746 94.2452 82.1488 94.7166 82.1488 95.2765V95.6671H77.5238V94.8702H81.2113C81.2113 94.5317 81.1436 94.2296 81.0082 93.964C80.8754 93.6983 80.6853 93.4887 80.4379 93.3351C80.1931 93.1814 79.9041 93.1046 79.5707 93.1046C79.2035 93.1046 78.8858 93.1957 78.6176 93.378C78.352 93.5577 78.1475 93.7921 78.0043 94.0811C77.8611 94.3702 77.7895 94.6801 77.7895 95.0108V95.5421C77.7895 95.9952 77.8676 96.3793 78.0238 96.6944C78.1827 97.0069 78.4027 97.2452 78.684 97.4093C78.9652 97.5707 79.2921 97.6515 79.6645 97.6515C79.9067 97.6515 80.1254 97.6176 80.3207 97.5499C80.5186 97.4796 80.6892 97.3754 80.8324 97.2374C80.9757 97.0968 81.0863 96.9223 81.1645 96.714L82.0551 96.964C81.9613 97.266 81.8038 97.5317 81.5824 97.7608C81.3611 97.9874 81.0876 98.1645 80.7621 98.2921C80.4366 98.4171 80.0707 98.4796 79.6645 98.4796ZM87.8012 93.6983L86.9731 93.9327C86.921 93.7947 86.8442 93.6606 86.7426 93.5304C86.6436 93.3976 86.5082 93.2882 86.3363 93.2022C86.1645 93.1163 85.9444 93.0733 85.6762 93.0733C85.309 93.0733 85.003 93.158 84.7582 93.3272C84.516 93.4939 84.3949 93.7061 84.3949 93.964C84.3949 94.1931 84.4783 94.3741 84.6449 94.5069C84.8116 94.6397 85.072 94.7504 85.4262 94.839L86.3168 95.0577C86.8533 95.1879 87.253 95.3871 87.516 95.6554C87.7791 95.921 87.9106 96.2634 87.9106 96.6827C87.9106 97.0265 87.8116 97.3338 87.6137 97.6046C87.4184 97.8754 87.1449 98.089 86.7934 98.2452C86.4418 98.4015 86.033 98.4796 85.5668 98.4796C84.9548 98.4796 84.4483 98.3468 84.0473 98.0811C83.6462 97.8155 83.3923 97.4275 83.2856 96.9171L84.1606 96.6983C84.2439 97.0213 84.4014 97.2634 84.6332 97.4249C84.8676 97.5864 85.1736 97.6671 85.5512 97.6671C85.9809 97.6671 86.322 97.5759 86.5746 97.3936C86.8298 97.2088 86.9574 96.9874 86.9574 96.7296C86.9574 96.5213 86.8845 96.3468 86.7387 96.2061C86.5929 96.0629 86.3689 95.9561 86.0668 95.8858L85.0668 95.6515C84.5173 95.5213 84.1137 95.3194 83.8559 95.046C83.6007 94.7699 83.4731 94.4249 83.4731 94.0108C83.4731 93.6723 83.5681 93.3728 83.7582 93.1124C83.9509 92.852 84.2126 92.6476 84.5434 92.4991C84.8767 92.3507 85.2543 92.2765 85.6762 92.2765C86.2699 92.2765 86.7361 92.4067 87.0746 92.6671C87.4158 92.9275 87.658 93.2713 87.8012 93.6983ZM90.6733 97.2608L90.6108 97.6827C90.5665 97.9796 90.4988 98.2973 90.4076 98.6358C90.3191 98.9744 90.2266 99.2934 90.1303 99.5929C90.0339 99.8923 89.9545 100.131 89.892 100.308H89.1889C89.2227 100.141 89.267 99.921 89.3217 99.6476C89.3764 99.3741 89.4311 99.0681 89.4858 98.7296C89.543 98.3936 89.5899 98.0499 89.6264 97.6983L89.6733 97.2608H90.6733ZM96.8344 98.3546L95.0063 92.3546H95.975L97.2719 96.9483H97.3344L98.6156 92.3546H99.6L100.866 96.9327H100.928L102.225 92.3546H103.194L101.366 98.3546H100.459L99.1469 93.7452H99.0531L97.7406 98.3546H96.8344ZM106.646 98.4796C106.104 98.4796 105.629 98.3507 105.22 98.0929C104.814 97.8351 104.496 97.4744 104.267 97.0108C104.04 96.5473 103.927 96.0056 103.927 95.3858C103.927 94.7608 104.04 94.2153 104.267 93.7491C104.496 93.283 104.814 92.921 105.22 92.6632C105.629 92.4054 106.104 92.2765 106.646 92.2765C107.188 92.2765 107.662 92.4054 108.068 92.6632C108.477 92.921 108.794 93.283 109.021 93.7491C109.25 94.2153 109.365 94.7608 109.365 95.3858C109.365 96.0056 109.25 96.5473 109.021 97.0108C108.794 97.4744 108.477 97.8351 108.068 98.0929C107.662 98.3507 107.188 98.4796 106.646 98.4796ZM106.646 97.6515C107.057 97.6515 107.396 97.546 107.662 97.3351C107.927 97.1241 108.124 96.8468 108.251 96.503C108.379 96.1593 108.443 95.7869 108.443 95.3858C108.443 94.9848 108.379 94.6111 108.251 94.2647C108.124 93.9184 107.927 93.6384 107.662 93.4249C107.396 93.2114 107.057 93.1046 106.646 93.1046C106.234 93.1046 105.896 93.2114 105.63 93.4249C105.365 93.6384 105.168 93.9184 105.04 94.2647C104.913 94.6111 104.849 94.9848 104.849 95.3858C104.849 95.7869 104.913 96.1593 105.04 96.503C105.168 96.8468 105.365 97.1241 105.63 97.3351C105.896 97.546 106.234 97.6515 106.646 97.6515ZM110.772 98.3546V92.3546H111.663V93.2608H111.725C111.834 92.964 112.032 92.7231 112.319 92.5382C112.605 92.3533 112.928 92.2608 113.288 92.2608C113.355 92.2608 113.44 92.2621 113.541 92.2647C113.643 92.2673 113.72 92.2713 113.772 92.2765V93.214C113.741 93.2061 113.669 93.1944 113.557 93.1788C113.448 93.1606 113.332 93.1515 113.209 93.1515C112.918 93.1515 112.657 93.2127 112.428 93.3351C112.202 93.4548 112.022 93.6215 111.889 93.8351C111.759 94.046 111.694 94.2869 111.694 94.5577V98.3546H110.772ZM119.115 93.6983L118.287 93.9327C118.234 93.7947 118.158 93.6606 118.056 93.5304C117.957 93.3976 117.822 93.2882 117.65 93.2022C117.478 93.1163 117.258 93.0733 116.99 93.0733C116.622 93.0733 116.316 93.158 116.072 93.3272C115.83 93.4939 115.708 93.7061 115.708 93.964C115.708 94.1931 115.792 94.3741 115.958 94.5069C116.125 94.6397 116.385 94.7504 116.74 94.839L117.63 95.0577C118.167 95.1879 118.566 95.3871 118.83 95.6554C119.093 95.921 119.224 96.2634 119.224 96.6827C119.224 97.0265 119.125 97.3338 118.927 97.6046C118.732 97.8754 118.458 98.089 118.107 98.2452C117.755 98.4015 117.346 98.4796 116.88 98.4796C116.268 98.4796 115.762 98.3468 115.361 98.0811C114.96 97.8155 114.706 97.4275 114.599 96.9171L115.474 96.6983C115.557 97.0213 115.715 97.2634 115.947 97.4249C116.181 97.5864 116.487 97.6671 116.865 97.6671C117.294 97.6671 117.635 97.5759 117.888 97.3936C118.143 97.2088 118.271 96.9874 118.271 96.7296C118.271 96.5213 118.198 96.3468 118.052 96.2061C117.906 96.0629 117.682 95.9561 117.38 95.8858L116.38 95.6515C115.831 95.5213 115.427 95.3194 115.169 95.046C114.914 94.7699 114.787 94.4249 114.787 94.0108C114.787 93.6723 114.882 93.3728 115.072 93.1124C115.264 92.852 115.526 92.6476 115.857 92.4991C116.19 92.3507 116.568 92.2765 116.99 92.2765C117.583 92.2765 118.05 92.4067 118.388 92.6671C118.729 92.9275 118.971 93.2713 119.115 93.6983ZM123.127 98.4796C122.549 98.4796 122.051 98.352 121.631 98.0968C121.215 97.839 120.893 97.4796 120.666 97.0186C120.442 96.5551 120.33 96.016 120.33 95.4015C120.33 94.7869 120.442 94.2452 120.666 93.7765C120.893 93.3051 121.208 92.9379 121.612 92.6749C122.018 92.4093 122.492 92.2765 123.034 92.2765C123.346 92.2765 123.655 92.3285 123.959 92.4327C124.264 92.5369 124.541 92.7061 124.791 92.9405C125.041 93.1723 125.241 93.4796 125.389 93.8624C125.538 94.2452 125.612 94.7166 125.612 95.2765V95.6671H120.987V94.8702H124.674C124.674 94.5317 124.607 94.2296 124.471 93.964C124.338 93.6983 124.148 93.4887 123.901 93.3351C123.656 93.1814 123.367 93.1046 123.034 93.1046C122.666 93.1046 122.349 93.1957 122.08 93.378C121.815 93.5577 121.61 93.7921 121.467 94.0811C121.324 94.3702 121.252 94.6801 121.252 95.0108V95.5421C121.252 95.9952 121.33 96.3793 121.487 96.6944C121.646 97.0069 121.866 97.2452 122.147 97.4093C122.428 97.5707 122.755 97.6515 123.127 97.6515C123.37 97.6515 123.588 97.6176 123.784 97.5499C123.982 97.4796 124.152 97.3754 124.295 97.2374C124.439 97.0968 124.549 96.9223 124.627 96.714L125.518 96.964C125.424 97.266 125.267 97.5317 125.045 97.7608C124.824 97.9874 124.551 98.1645 124.225 98.2921C123.899 98.4171 123.534 98.4796 123.127 98.4796ZM46.4789 105.355V106.136H43.3695V105.355H46.4789ZM44.2758 103.917H45.1977V109.636C45.1977 109.896 45.2354 110.092 45.311 110.222C45.3891 110.349 45.488 110.435 45.6078 110.48C45.7302 110.521 45.8591 110.542 45.9945 110.542C46.0961 110.542 46.1794 110.537 46.2445 110.526C46.3096 110.513 46.3617 110.503 46.4008 110.495L46.5883 111.323C46.5258 111.347 46.4386 111.37 46.3266 111.394C46.2146 111.42 46.0727 111.433 45.9008 111.433C45.6404 111.433 45.3852 111.377 45.1352 111.265C44.8878 111.153 44.682 110.982 44.518 110.753C44.3565 110.524 44.2758 110.235 44.2758 109.886V103.917ZM48.9164 107.745V111.355H47.9945V103.355H48.9164V106.292H48.9945C49.1352 105.982 49.3461 105.736 49.6274 105.554C49.9112 105.369 50.2888 105.276 50.7602 105.276C51.169 105.276 51.5271 105.358 51.8344 105.523C52.1417 105.684 52.38 105.933 52.5492 106.269C52.7211 106.602 52.807 107.026 52.807 107.542V111.355H51.8852V107.605C51.8852 107.128 51.7615 106.76 51.5141 106.499C51.2693 106.236 50.9294 106.105 50.4945 106.105C50.1925 106.105 49.9216 106.168 49.682 106.296C49.4451 106.424 49.2576 106.61 49.1195 106.855C48.9841 107.099 48.9164 107.396 48.9164 107.745ZM56.2592 111.495C55.879 111.495 55.5339 111.424 55.224 111.28C54.9141 111.135 54.668 110.925 54.4858 110.651C54.3035 110.375 54.2123 110.042 54.2123 109.651C54.2123 109.308 54.28 109.029 54.4154 108.816C54.5509 108.599 54.7318 108.43 54.9584 108.308C55.185 108.185 55.435 108.094 55.7084 108.034C55.9845 107.972 56.2618 107.922 56.5404 107.886C56.905 107.839 57.2006 107.804 57.4272 107.78C57.6563 107.754 57.823 107.711 57.9272 107.651C58.0339 107.592 58.0873 107.487 58.0873 107.339V107.308C58.0873 106.922 57.9818 106.623 57.7709 106.409C57.5626 106.196 57.2462 106.089 56.8217 106.089C56.3816 106.089 56.0365 106.185 55.7865 106.378C55.5365 106.571 55.3608 106.776 55.2592 106.995L54.3842 106.683C54.5404 106.318 54.7488 106.034 55.0092 105.831C55.2722 105.625 55.5587 105.482 55.8686 105.401C56.1811 105.318 56.4884 105.276 56.7904 105.276C56.9832 105.276 57.2045 105.3 57.4545 105.347C57.7071 105.391 57.9506 105.483 58.185 105.624C58.422 105.765 58.6186 105.977 58.7748 106.261C58.9311 106.545 59.0092 106.925 59.0092 107.401V111.355H58.0873V110.542H58.0404C57.9779 110.672 57.8738 110.812 57.7279 110.96C57.5821 111.108 57.3881 111.235 57.1459 111.339C56.9037 111.443 56.6082 111.495 56.2592 111.495ZM56.3998 110.667C56.7644 110.667 57.0717 110.595 57.3217 110.452C57.5743 110.309 57.7644 110.124 57.892 109.898C58.0222 109.671 58.0873 109.433 58.0873 109.183V108.339C58.0483 108.386 57.9623 108.429 57.8295 108.468C57.6993 108.504 57.5483 108.537 57.3764 108.566C57.2071 108.592 57.0417 108.615 56.8803 108.636C56.7214 108.654 56.5925 108.67 56.4936 108.683C56.254 108.714 56.03 108.765 55.8217 108.835C55.616 108.903 55.4493 109.006 55.3217 109.144C55.1967 109.279 55.1342 109.464 55.1342 109.698C55.1342 110.019 55.2527 110.261 55.4897 110.425C55.7292 110.586 56.0326 110.667 56.3998 110.667ZM61.6137 107.745V111.355H60.6918V105.355H61.5824V106.292H61.6606C61.8012 105.987 62.0147 105.743 62.3012 105.558C62.5876 105.37 62.9574 105.276 63.4106 105.276C63.8168 105.276 64.1723 105.36 64.477 105.526C64.7817 105.691 65.0186 105.941 65.1879 106.276C65.3572 106.61 65.4418 107.032 65.4418 107.542V111.355H64.5199V107.605C64.5199 107.133 64.3975 106.766 64.1527 106.503C63.908 106.237 63.572 106.105 63.1449 106.105C62.8507 106.105 62.5876 106.168 62.3559 106.296C62.1267 106.424 61.9457 106.61 61.8129 106.855C61.6801 107.099 61.6137 107.396 61.6137 107.745ZM71.9858 111.495C71.6055 111.495 71.2605 111.424 70.9506 111.28C70.6407 111.135 70.3946 110.925 70.2123 110.651C70.03 110.375 69.9389 110.042 69.9389 109.651C69.9389 109.308 70.0066 109.029 70.142 108.816C70.2774 108.599 70.4584 108.43 70.685 108.308C70.9115 108.185 71.1615 108.094 71.435 108.034C71.711 107.972 71.9884 107.922 72.267 107.886C72.6316 107.839 72.9272 107.804 73.1537 107.78C73.3829 107.754 73.5496 107.711 73.6537 107.651C73.7605 107.592 73.8139 107.487 73.8139 107.339V107.308C73.8139 106.922 73.7084 106.623 73.4975 106.409C73.2891 106.196 72.9727 106.089 72.5483 106.089C72.1082 106.089 71.7631 106.185 71.5131 106.378C71.2631 106.571 71.0873 106.776 70.9858 106.995L70.1108 106.683C70.267 106.318 70.4753 106.034 70.7358 105.831C70.9988 105.625 71.2852 105.482 71.5951 105.401C71.9076 105.318 72.2149 105.276 72.517 105.276C72.7097 105.276 72.9311 105.3 73.1811 105.347C73.4337 105.391 73.6772 105.483 73.9115 105.624C74.1485 105.765 74.3451 105.977 74.5014 106.261C74.6576 106.545 74.7358 106.925 74.7358 107.401V111.355H73.8139V110.542H73.767C73.7045 110.672 73.6003 110.812 73.4545 110.96C73.3087 111.108 73.1147 111.235 72.8725 111.339C72.6303 111.443 72.3347 111.495 71.9858 111.495ZM72.1264 110.667C72.491 110.667 72.7983 110.595 73.0483 110.452C73.3009 110.309 73.491 110.124 73.6186 109.898C73.7488 109.671 73.8139 109.433 73.8139 109.183V108.339C73.7748 108.386 73.6889 108.429 73.5561 108.468C73.4259 108.504 73.2748 108.537 73.1029 108.566C72.9337 108.592 72.7683 108.615 72.6068 108.636C72.448 108.654 72.3191 108.67 72.2201 108.683C71.9805 108.714 71.7566 108.765 71.5483 108.835C71.3425 108.903 71.1759 109.006 71.0483 109.144C70.9233 109.279 70.8608 109.464 70.8608 109.698C70.8608 110.019 70.9792 110.261 71.2162 110.425C71.4558 110.586 71.7592 110.667 72.1264 110.667ZM81.1098 105.355L78.891 111.355H77.9535L75.7348 105.355H76.7348L78.391 110.136H78.4535L80.1098 105.355H81.1098ZM84.6274 111.48C84.0492 111.48 83.5505 111.352 83.1313 111.097C82.7146 110.839 82.393 110.48 82.1664 110.019C81.9425 109.555 81.8305 109.016 81.8305 108.401C81.8305 107.787 81.9425 107.245 82.1664 106.776C82.393 106.305 82.7081 105.938 83.1117 105.675C83.518 105.409 83.9919 105.276 84.5336 105.276C84.8461 105.276 85.1547 105.329 85.4594 105.433C85.7641 105.537 86.0414 105.706 86.2914 105.941C86.5414 106.172 86.7406 106.48 86.8891 106.862C87.0375 107.245 87.1117 107.717 87.1117 108.276V108.667H82.4867V107.87H86.1742C86.1742 107.532 86.1065 107.23 85.9711 106.964C85.8383 106.698 85.6482 106.489 85.4008 106.335C85.156 106.181 84.8669 106.105 84.5336 106.105C84.1664 106.105 83.8487 106.196 83.5805 106.378C83.3149 106.558 83.1104 106.792 82.9672 107.081C82.824 107.37 82.7524 107.68 82.7524 108.011V108.542C82.7524 108.995 82.8305 109.379 82.9867 109.694C83.1456 110.007 83.3656 110.245 83.6469 110.409C83.9281 110.571 84.255 110.651 84.6274 110.651C84.8695 110.651 85.0883 110.618 85.2836 110.55C85.4815 110.48 85.6521 110.375 85.7953 110.237C85.9386 110.097 86.0492 109.922 86.1274 109.714L87.018 109.964C86.9242 110.266 86.7667 110.532 86.5453 110.761C86.324 110.987 86.0505 111.164 85.725 111.292C85.3995 111.417 85.0336 111.48 84.6274 111.48ZM88.5141 111.355V105.355H89.4047V106.261H89.4672C89.5766 105.964 89.7745 105.723 90.061 105.538C90.3474 105.353 90.6703 105.261 91.0297 105.261C91.0974 105.261 91.182 105.262 91.2836 105.265C91.3852 105.267 91.462 105.271 91.5141 105.276V106.214C91.4828 106.206 91.4112 106.194 91.2992 106.179C91.1899 106.161 91.074 106.151 90.9516 106.151C90.6599 106.151 90.3995 106.213 90.1703 106.335C89.9438 106.455 89.7641 106.622 89.6313 106.835C89.5011 107.046 89.436 107.287 89.436 107.558V111.355H88.5141ZM94.3725 111.495C93.9923 111.495 93.6472 111.424 93.3373 111.28C93.0274 111.135 92.7813 110.925 92.599 110.651C92.4167 110.375 92.3256 110.042 92.3256 109.651C92.3256 109.308 92.3933 109.029 92.5287 108.816C92.6641 108.599 92.8451 108.43 93.0717 108.308C93.2983 108.185 93.5483 108.094 93.8217 108.034C94.0977 107.972 94.3751 107.922 94.6537 107.886C95.0183 107.839 95.3139 107.804 95.5404 107.78C95.7696 107.754 95.9363 107.711 96.0404 107.651C96.1472 107.592 96.2006 107.487 96.2006 107.339V107.308C96.2006 106.922 96.0951 106.623 95.8842 106.409C95.6759 106.196 95.3595 106.089 94.935 106.089C94.4949 106.089 94.1498 106.185 93.8998 106.378C93.6498 106.571 93.474 106.776 93.3725 106.995L92.4975 106.683C92.6537 106.318 92.8621 106.034 93.1225 105.831C93.3855 105.625 93.672 105.482 93.9818 105.401C94.2943 105.318 94.6016 105.276 94.9037 105.276C95.0964 105.276 95.3178 105.3 95.5678 105.347C95.8204 105.391 96.0639 105.483 96.2983 105.624C96.5352 105.765 96.7318 105.977 96.8881 106.261C97.0443 106.545 97.1225 106.925 97.1225 107.401V111.355H96.2006V110.542H96.1537C96.0912 110.672 95.9871 110.812 95.8412 110.96C95.6954 111.108 95.5014 111.235 95.2592 111.339C95.017 111.443 94.7214 111.495 94.3725 111.495ZM94.5131 110.667C94.8777 110.667 95.185 110.595 95.435 110.452C95.6876 110.309 95.8777 110.124 96.0053 109.898C96.1355 109.671 96.2006 109.433 96.2006 109.183V108.339C96.1615 108.386 96.0756 108.429 95.9428 108.468C95.8126 108.504 95.6615 108.537 95.4897 108.566C95.3204 108.592 95.155 108.615 94.9936 108.636C94.8347 108.654 94.7058 108.67 94.6068 108.683C94.3673 108.714 94.1433 108.765 93.935 108.835C93.7292 108.903 93.5626 109.006 93.435 109.144C93.31 109.279 93.2475 109.464 93.2475 109.698C93.2475 110.019 93.366 110.261 93.6029 110.425C93.8425 110.586 94.1459 110.667 94.5131 110.667ZM101.227 113.73C100.782 113.73 100.399 113.672 100.079 113.558C99.7582 113.446 99.4913 113.297 99.2777 113.112C99.0668 112.93 98.8988 112.735 98.7738 112.526L99.5082 112.011C99.5916 112.12 99.697 112.245 99.8246 112.386C99.9522 112.529 100.127 112.653 100.348 112.757C100.572 112.864 100.865 112.917 101.227 112.917C101.711 112.917 102.111 112.8 102.426 112.566C102.741 112.331 102.899 111.964 102.899 111.464V110.245H102.821C102.753 110.355 102.657 110.49 102.532 110.651C102.409 110.81 102.232 110.952 102 111.077C101.771 111.2 101.461 111.261 101.071 111.261C100.586 111.261 100.151 111.146 99.766 110.917C99.3832 110.688 99.0798 110.355 98.8559 109.917C98.6345 109.48 98.5238 108.948 98.5238 108.323C98.5238 107.709 98.6319 107.174 98.8481 106.718C99.0642 106.26 99.365 105.905 99.7504 105.655C100.136 105.403 100.581 105.276 101.086 105.276C101.477 105.276 101.787 105.342 102.016 105.472C102.248 105.599 102.425 105.745 102.547 105.909C102.672 106.071 102.769 106.204 102.836 106.308H102.93V105.355H103.821V111.526C103.821 112.042 103.704 112.461 103.469 112.784C103.237 113.11 102.925 113.348 102.532 113.499C102.141 113.653 101.706 113.73 101.227 113.73ZM101.196 110.433C101.566 110.433 101.878 110.348 102.133 110.179C102.388 110.01 102.582 109.766 102.715 109.448C102.848 109.131 102.914 108.75 102.914 108.308C102.914 107.875 102.849 107.494 102.719 107.163C102.589 106.832 102.396 106.573 102.141 106.386C101.886 106.198 101.571 106.105 101.196 106.105C100.805 106.105 100.48 106.204 100.219 106.401C99.9613 106.599 99.7673 106.865 99.6371 107.198C99.5095 107.532 99.4457 107.901 99.4457 108.308C99.4457 108.724 99.5108 109.093 99.641 109.413C99.7738 109.731 99.9692 109.981 100.227 110.163C100.487 110.343 100.81 110.433 101.196 110.433ZM108.024 111.48C107.446 111.48 106.947 111.352 106.528 111.097C106.111 110.839 105.789 110.48 105.563 110.019C105.339 109.555 105.227 109.016 105.227 108.401C105.227 107.787 105.339 107.245 105.563 106.776C105.789 106.305 106.105 105.938 106.508 105.675C106.914 105.409 107.388 105.276 107.93 105.276C108.243 105.276 108.551 105.329 108.856 105.433C109.161 105.537 109.438 105.706 109.688 105.941C109.938 106.172 110.137 106.48 110.286 106.862C110.434 107.245 110.508 107.717 110.508 108.276V108.667H105.883V107.87H109.571C109.571 107.532 109.503 107.23 109.368 106.964C109.235 106.698 109.045 106.489 108.797 106.335C108.552 106.181 108.263 106.105 107.93 106.105C107.563 106.105 107.245 106.196 106.977 106.378C106.711 106.558 106.507 106.792 106.364 107.081C106.22 107.37 106.149 107.68 106.149 108.011V108.542C106.149 108.995 106.227 109.379 106.383 109.694C106.542 110.007 106.762 110.245 107.043 110.409C107.325 110.571 107.651 110.651 108.024 110.651C108.266 110.651 108.485 110.618 108.68 110.55C108.878 110.48 109.049 110.375 109.192 110.237C109.335 110.097 109.446 109.922 109.524 109.714L110.414 109.964C110.321 110.266 110.163 110.532 109.942 110.761C109.72 110.987 109.447 111.164 109.121 111.292C108.796 111.417 108.43 111.48 108.024 111.48Z" fill="#313131"/>
<path d="M56.5375 70.8469C55.0609 70.8469 53.7473 70.6072 52.5968 70.1278C51.4526 69.642 50.5545 68.9804 49.9025 68.1431C49.2505 67.3057 48.9245 66.3565 48.9245 65.2954C48.9245 64.4772 49.1099 63.7262 49.4806 63.0422C49.8578 62.3519 50.3691 61.7798 51.0147 61.326C51.6603 60.8657 52.3826 60.5717 53.1816 60.4439V60.3096C52.1333 60.0987 51.2832 59.5905 50.6312 58.7851C49.9792 57.9733 49.6532 57.0305 49.6532 55.9566C49.6532 54.9403 49.9504 54.0358 50.5449 53.2432C51.1394 52.4442 51.9544 51.8178 52.9899 51.364C54.0318 50.9037 55.2143 50.6736 56.5375 50.6736C57.8606 50.6736 59.0399 50.9037 60.0754 51.364C61.1174 51.8242 61.9355 52.4538 62.53 53.2528C63.1245 54.0454 63.4249 54.9467 63.4313 55.9566C63.4249 57.0369 63.0925 57.9797 62.4341 58.7851C61.7757 59.5905 60.932 60.0987 59.9029 60.3096V60.4439C60.6891 60.5717 61.4018 60.8657 62.041 61.326C62.6866 61.7798 63.198 62.3519 63.5751 63.0422C63.9586 63.7262 64.1536 64.4772 64.16 65.2954C64.1536 66.3565 63.8244 67.3057 63.1724 68.1431C62.5204 68.9804 61.6191 69.642 60.4686 70.1278C59.3244 70.6072 58.014 70.8469 56.5375 70.8469ZM56.5375 67.7979C57.1958 67.7979 57.7711 67.6797 58.2633 67.4431C58.7555 67.2002 59.139 66.8679 59.4139 66.446C59.6951 66.0177 59.8357 65.5255 59.8357 64.9694C59.8357 64.4005 59.6919 63.8988 59.4043 63.4641C59.1166 63.023 58.7267 62.6779 58.2345 62.4286C57.7424 62.1729 57.1767 62.0451 56.5375 62.0451C55.9046 62.0451 55.3389 62.1729 54.8404 62.4286C54.3418 62.6779 53.9487 63.023 53.661 63.4641C53.3798 63.8988 53.2392 64.4005 53.2392 64.9694C53.2392 65.5255 53.3766 66.0177 53.6514 66.446C53.9263 66.8679 54.313 67.2002 54.8116 67.4431C55.3102 67.6797 55.8855 67.7979 56.5375 67.7979ZM56.5375 59.0248C57.0872 59.0248 57.5762 58.913 58.0044 58.6892C58.4327 58.4655 58.7683 58.1555 59.0112 57.7592C59.2541 57.3629 59.3755 56.9059 59.3755 56.3881C59.3755 55.8767 59.2541 55.4293 59.0112 55.0458C58.7683 54.6559 58.4359 54.3522 58.014 54.1349C57.5921 53.9112 57.1 53.7993 56.5375 53.7993C55.9813 53.7993 55.4892 53.9112 55.0609 54.1349C54.6326 54.3522 54.297 54.6559 54.0541 55.0458C53.8176 55.4293 53.6994 55.8767 53.6994 56.3881C53.6994 56.9059 53.8208 57.3629 54.0637 57.7592C54.3066 58.1555 54.6422 58.4655 55.0705 58.6892C55.4987 58.913 55.9877 59.0248 56.5375 59.0248ZM74.3209 70.8469C72.8891 70.8469 71.6139 70.6008 70.4953 70.1086C69.3831 69.6101 68.5042 68.9261 67.8586 68.0568C67.2194 67.1811 66.8902 66.1711 66.871 65.027H71.0514C71.077 65.5064 71.2336 65.9282 71.5212 66.2926C71.8152 66.6505 72.2052 66.9286 72.6909 67.1267C73.1767 67.3249 73.7233 67.424 74.3305 67.424C74.9633 67.424 75.5226 67.3121 76.0084 67.0884C76.4942 66.8647 76.8745 66.5547 77.1494 66.1583C77.4243 65.762 77.5617 65.305 77.5617 64.7873C77.5617 64.2631 77.4147 63.7997 77.1206 63.397C76.833 62.9879 76.4175 62.6683 75.8742 62.4382C75.3373 62.2081 74.6981 62.093 73.9566 62.093H72.1253V59.044H73.9566C74.583 59.044 75.1359 58.9353 75.6153 58.718C76.1011 58.5007 76.4782 58.2002 76.7467 57.8167C77.0152 57.4268 77.1494 56.973 77.1494 56.4552C77.1494 55.963 77.0311 55.5316 76.7946 55.1608C76.5645 54.7837 76.2385 54.4897 75.8167 54.2787C75.4012 54.0678 74.9154 53.9623 74.3593 53.9623C73.7968 53.9623 73.2822 54.0646 72.8156 54.2691C72.349 54.4673 71.975 54.7517 71.6938 55.1225C71.4125 55.4932 71.2623 55.9279 71.2432 56.4265H67.2641C67.2833 55.2951 67.6061 54.2979 68.2325 53.435C68.8589 52.5721 69.7027 51.8977 70.7637 51.4119C71.8312 50.9197 73.0361 50.6736 74.3785 50.6736C75.7336 50.6736 76.9193 50.9197 77.9356 51.4119C78.952 51.9041 79.7414 52.5689 80.3039 53.4062C80.8728 54.2372 81.154 55.1704 81.1476 56.2059C81.154 57.3054 80.812 58.2226 80.1217 58.9577C79.4378 59.6928 78.5461 60.1594 77.4466 60.3576V60.511C78.8912 60.6963 79.9907 61.1981 80.7449 62.0163C81.5056 62.8281 81.8827 63.8444 81.8763 65.0653C81.8827 66.1839 81.5599 67.1779 80.9079 68.0472C80.2623 68.9165 79.3706 69.6005 78.2329 70.099C77.0951 70.5976 75.7911 70.8469 74.3209 70.8469ZM95.6088 66.8966V65.8611C95.6088 65.0749 95.775 64.3526 96.1074 63.6942C96.4462 63.0294 96.9352 62.4989 97.5744 62.1026C98.22 61.6999 99.0062 61.4985 99.933 61.4985C100.873 61.4985 101.662 61.6967 102.301 62.093C102.947 62.4893 103.433 63.0199 103.759 63.6846C104.091 64.343 104.257 65.0685 104.257 65.8611V66.8966C104.257 67.6828 104.091 68.4083 103.759 69.0731C103.426 69.7315 102.937 70.2588 102.292 70.6551C101.646 71.0578 100.86 71.2592 99.933 71.2592C98.9934 71.2592 98.204 71.0578 97.5648 70.6551C96.9256 70.2588 96.4398 69.7315 96.1074 69.0731C95.775 68.4083 95.6088 67.6828 95.6088 66.8966ZM98.399 65.8611V66.8966C98.399 67.3505 98.5076 67.7787 98.725 68.1814C98.9487 68.5841 99.3514 68.7855 99.933 68.7855C100.515 68.7855 100.911 68.5873 101.122 68.191C101.339 67.7947 101.448 67.3632 101.448 66.8966V65.8611C101.448 65.3945 101.346 64.9598 101.141 64.5571C100.937 64.1544 100.534 63.9531 99.933 63.9531C99.3578 63.9531 98.9583 64.1544 98.7345 64.5571C98.5108 64.9598 98.399 65.3945 98.399 65.8611ZM85.5318 55.6594V54.6239C85.5318 53.8313 85.7012 53.1058 86.0399 52.4474C86.3787 51.7826 86.8677 51.2521 87.5069 50.8558C88.1525 50.4595 88.9323 50.2613 89.8464 50.2613C90.7924 50.2613 91.585 50.4595 92.2242 50.8558C92.8634 51.2521 93.3492 51.7826 93.6816 52.4474C94.014 53.1058 94.1802 53.8313 94.1802 54.6239V55.6594C94.1802 56.452 94.0108 57.1775 93.672 57.8359C93.3397 58.4943 92.8507 59.0216 92.2051 59.4179C91.5659 59.8078 90.7796 60.0028 89.8464 60.0028C88.9132 60.0028 88.1237 59.8047 87.4781 59.4083C86.8389 59.0056 86.3531 58.4783 86.0208 57.8263C85.6948 57.1679 85.5318 56.4456 85.5318 55.6594ZM88.3411 54.6239V55.6594C88.3411 56.126 88.4497 56.5575 88.6671 56.9538C88.8908 57.3501 89.2839 57.5483 89.8464 57.5483C90.4345 57.5483 90.834 57.3501 91.0449 56.9538C91.2622 56.5575 91.3709 56.126 91.3709 55.6594V54.6239C91.3709 54.1573 91.2686 53.7226 91.0641 53.3199C90.8595 52.9172 90.4536 52.7159 89.8464 52.7159C89.2775 52.7159 88.8844 52.9204 88.6671 53.3295C88.4497 53.7386 88.3411 54.1701 88.3411 54.6239ZM86.7974 70.5784L100.297 50.9421H102.809L89.3095 70.5784H86.7974Z" fill="black"/>
<line x1="27.5176" y1="83.3023" x2="126.678" y2="83.3023" stroke="#CCCCCC" stroke-width="0.5"/>
</svg>
