<svg width="136" height="28" viewBox="0 0 136 28" fill="none" xmlns="http://www.w3.org/2000/svg">
<path d="M50.728 1.274H56.314L65.738 27H59.392L57.492 20.806H49.17L47.194 27H40.962L50.728 1.274ZM56.086 16.17C55.8327 15.4353 55.5667 14.6753 55.288 13.89C55.0347 13.0793 54.7813 12.294 54.528 11.534C54.3 10.774 54.0847 10.0647 53.882 9.406C53.6793 8.722 53.502 8.152 53.35 7.696C53.198 8.17733 53.0207 8.76 52.818 9.444C52.6153 10.1027 52.3873 10.812 52.134 11.572C51.906 12.332 51.6527 13.1047 51.374 13.89C51.1207 14.6753 50.8673 15.4353 50.614 16.17H56.086ZM84.3357 27H79.5857L76.4317 19.704C76.3557 19.5013 76.2037 19.134 75.9757 18.602C75.7731 18.0447 75.5324 17.424 75.2537 16.74C75.0004 16.0307 74.7344 15.3087 74.4557 14.574C74.1771 13.8393 73.9237 13.168 73.6957 12.56C73.6957 13.2187 73.6957 13.9787 73.6957 14.84C73.6957 15.7013 73.6957 16.5753 73.6957 17.462C73.6957 18.3487 73.6831 19.1847 73.6577 19.97C73.6577 20.7553 73.6451 21.376 73.6197 21.832L73.4297 27H67.6537L69.1737 1.274H74.5697L80.4977 16.094C80.6751 16.55 80.9031 17.196 81.1817 18.032C81.4857 18.8427 81.7771 19.7293 82.0557 20.692C82.3344 19.7547 82.6131 18.8807 82.8917 18.07C83.1957 17.234 83.4491 16.5753 83.6517 16.094L89.5797 1.274H94.8617L96.3817 27H90.4917L90.2637 21.832C90.2384 21.3507 90.2131 20.7173 90.1877 19.932C90.1877 19.1467 90.1877 18.3233 90.1877 17.462C90.1877 16.5753 90.1877 15.7013 90.1877 14.84C90.2131 13.9533 90.2257 13.1933 90.2257 12.56C90.0231 13.092 89.7951 13.7 89.5417 14.384C89.3137 15.0427 89.0731 15.6887 88.8197 16.322C88.5664 16.9553 88.3257 17.5507 88.0977 18.108C87.8697 18.64 87.6924 19.058 87.5657 19.362L84.3357 27ZM108.517 0.931998C109.429 0.931998 110.303 1.008 111.139 1.16C112 1.312 112.798 1.502 113.533 1.73C114.268 1.958 114.926 2.224 115.509 2.528C116.117 2.80667 116.636 3.098 117.067 3.402L114.863 7.582C114.559 7.43 114.192 7.24 113.761 7.012C113.33 6.75867 112.862 6.518 112.355 6.29C111.874 6.062 111.367 5.872 110.835 5.72C110.328 5.568 109.834 5.492 109.353 5.492C108.466 5.492 107.808 5.682 107.377 6.062C106.946 6.41667 106.731 6.87267 106.731 7.43C106.756 7.86067 106.858 8.24067 107.035 8.57C107.212 8.89933 107.478 9.22867 107.833 9.558C108.188 9.862 108.644 10.166 109.201 10.47C109.758 10.774 110.442 11.0907 111.253 11.42C112.266 11.8507 113.153 12.294 113.913 12.75C114.673 13.206 115.294 13.7253 115.775 14.308C116.282 14.8907 116.662 15.5493 116.915 16.284C117.168 17.0187 117.295 17.8673 117.295 18.83C117.295 19.9953 117.08 21.0973 116.649 22.136C116.244 23.1493 115.648 24.036 114.863 24.796C114.078 25.556 113.128 26.1513 112.013 26.582C110.898 27.0127 109.644 27.228 108.251 27.228C107.263 27.228 106.313 27.1393 105.401 26.962C104.514 26.7847 103.691 26.5567 102.931 26.278C102.171 25.9993 101.474 25.708 100.841 25.404C100.208 25.0747 99.6631 24.7707 99.2071 24.492L101.259 20.008C101.436 20.1347 101.766 20.35 102.247 20.654C102.728 20.9327 103.273 21.224 103.881 21.528C104.489 21.8067 105.11 22.06 105.743 22.288C106.376 22.516 106.946 22.63 107.453 22.63C108.517 22.63 109.29 22.3893 109.771 21.908C110.278 21.4013 110.531 20.692 110.531 19.78C110.531 18.868 110.214 18.184 109.581 17.728C108.973 17.2467 108.099 16.778 106.959 16.322C105.844 15.866 104.856 15.3847 103.995 14.878C103.134 14.3713 102.399 13.8013 101.791 13.168C101.208 12.5347 100.752 11.8253 100.423 11.04C100.119 10.2547 99.9671 9.34267 99.9671 8.304C99.9671 7.164 100.195 6.15067 100.651 5.264C101.132 4.352 101.766 3.57933 102.551 2.946C103.336 2.28733 104.236 1.79333 105.249 1.464C106.288 1.10933 107.377 0.931998 108.517 0.931998Z" fill="white"/>
<g clip-path="url(#clip0_618_527)">
<path fill-rule="evenodd" clip-rule="evenodd" d="M8.26 11.34L6.3 13.3L12.6 19.6L26.6 5.6L24.64 3.64L12.6 15.68L8.26 11.34ZM25.2 14C25.2 20.16 20.16 25.2 14 25.2C7.84 25.2 2.8 20.16 2.8 14C2.8 7.84 7.84 2.8 14 2.8C15.12 2.8 16.1 2.94 17.08 3.22L19.32 0.98C17.64 0.42 15.82 0 14 0C6.3 0 0 6.3 0 14C0 21.7 6.3 28 14 28C21.7 28 28 21.7 28 14H25.2Z" fill="#00A3DF"/>
</g>
<defs>
<clipPath id="clip0_618_527">
<rect width="28" height="28" fill="white"/>
</clipPath>
</defs>
</svg>
