<svg width="149" height="28" viewBox="0 0 149 28" fill="none" xmlns="http://www.w3.org/2000/svg">
<path d="M50.728 1.274H56.314L65.738 27H59.392L57.492 20.806H49.17L47.194 27H40.962L50.728 1.274ZM56.086 16.17C55.8327 15.4353 55.5667 14.6753 55.288 13.89C55.0347 13.0793 54.7813 12.294 54.528 11.534C54.3 10.774 54.0847 10.0647 53.882 9.406C53.6793 8.722 53.502 8.152 53.35 7.696C53.198 8.17733 53.0207 8.76 52.818 9.444C52.6153 10.1027 52.3873 10.812 52.134 11.572C51.906 12.332 51.6527 13.1047 51.374 13.89C51.1207 14.6753 50.8673 15.4353 50.614 16.17H56.086ZM76.1479 1.274H81.7339L91.1579 27H84.8119L82.9119 20.806H74.5899L72.6139 27H66.3819L76.1479 1.274ZM81.5059 16.17C81.2526 15.4353 80.9866 14.6753 80.7079 13.89C80.4546 13.0793 80.2013 12.294 79.9479 11.534C79.7199 10.774 79.5046 10.0647 79.3019 9.406C79.0993 8.722 78.9219 8.152 78.7699 7.696C78.6179 8.17733 78.4406 8.76 78.2379 9.444C78.0353 10.1027 77.8073 10.812 77.5539 11.572C77.3259 12.332 77.0726 13.1047 76.7939 13.89C76.5406 14.6753 76.2873 15.4353 76.0339 16.17H81.5059ZM109.756 27H105.006L101.852 19.704C101.776 19.5013 101.624 19.134 101.396 18.602C101.193 18.0447 100.952 17.424 100.674 16.74C100.42 16.0307 100.154 15.3087 99.8757 14.574C99.597 13.8393 99.3437 13.168 99.1157 12.56C99.1157 13.2187 99.1157 13.9787 99.1157 14.84C99.1157 15.7013 99.1157 16.5753 99.1157 17.462C99.1157 18.3487 99.103 19.1847 99.0777 19.97C99.0777 20.7553 99.065 21.376 99.0397 21.832L98.8497 27H93.0737L94.5937 1.274H99.9897L105.918 16.094C106.095 16.55 106.323 17.196 106.602 18.032C106.906 18.8427 107.197 19.7293 107.476 20.692C107.754 19.7547 108.033 18.8807 108.312 18.07C108.616 17.234 108.869 16.5753 109.072 16.094L115 1.274H120.282L121.802 27H115.912L115.684 21.832C115.658 21.3507 115.633 20.7173 115.608 19.932C115.608 19.1467 115.608 18.3233 115.608 17.462C115.608 16.5753 115.608 15.7013 115.608 14.84C115.633 13.9533 115.646 13.1933 115.646 12.56C115.443 13.092 115.215 13.7 114.962 14.384C114.734 15.0427 114.493 15.6887 114.24 16.322C113.986 16.9553 113.746 17.5507 113.518 18.108C113.29 18.64 113.112 19.058 112.986 19.362L109.756 27ZM133.937 0.931998C134.849 0.931998 135.723 1.008 136.559 1.16C137.42 1.312 138.218 1.502 138.953 1.73C139.688 1.958 140.346 2.224 140.929 2.528C141.537 2.80667 142.056 3.098 142.487 3.402L140.283 7.582C139.979 7.43 139.612 7.24 139.181 7.012C138.75 6.75867 138.282 6.518 137.775 6.29C137.294 6.062 136.787 5.872 136.255 5.72C135.748 5.568 135.254 5.492 134.773 5.492C133.886 5.492 133.228 5.682 132.797 6.062C132.366 6.41667 132.151 6.87267 132.151 7.43C132.176 7.86067 132.278 8.24067 132.455 8.57C132.632 8.89933 132.898 9.22867 133.253 9.558C133.608 9.862 134.064 10.166 134.621 10.47C135.178 10.774 135.862 11.0907 136.673 11.42C137.686 11.8507 138.573 12.294 139.333 12.75C140.093 13.206 140.714 13.7253 141.195 14.308C141.702 14.8907 142.082 15.5493 142.335 16.284C142.588 17.0187 142.715 17.8673 142.715 18.83C142.715 19.9953 142.5 21.0973 142.069 22.136C141.664 23.1493 141.068 24.036 140.283 24.796C139.498 25.556 138.548 26.1513 137.433 26.582C136.318 27.0127 135.064 27.228 133.671 27.228C132.683 27.228 131.733 27.1393 130.821 26.962C129.934 26.7847 129.111 26.5567 128.351 26.278C127.591 25.9993 126.894 25.708 126.261 25.404C125.628 25.0747 125.083 24.7707 124.627 24.492L126.679 20.008C126.856 20.1347 127.186 20.35 127.667 20.654C128.148 20.9327 128.693 21.224 129.301 21.528C129.909 21.8067 130.53 22.06 131.163 22.288C131.796 22.516 132.366 22.63 132.873 22.63C133.937 22.63 134.71 22.3893 135.191 21.908C135.698 21.4013 135.951 20.692 135.951 19.78C135.951 18.868 135.634 18.184 135.001 17.728C134.393 17.2467 133.519 16.778 132.379 16.322C131.264 15.866 130.276 15.3847 129.415 14.878C128.554 14.3713 127.819 13.8013 127.211 13.168C126.628 12.5347 126.172 11.8253 125.843 11.04C125.539 10.2547 125.387 9.34267 125.387 8.304C125.387 7.164 125.615 6.15067 126.071 5.264C126.552 4.352 127.186 3.57933 127.971 2.946C128.756 2.28733 129.656 1.79333 130.669 1.464C131.708 1.10933 132.797 0.931998 133.937 0.931998Z" fill="white"/>
<g clip-path="url(#clip0_166_419)">
<path fill-rule="evenodd" clip-rule="evenodd" d="M8.26 11.34L6.3 13.3L12.6 19.6L26.6 5.6L24.64 3.64L12.6 15.68L8.26 11.34ZM25.2 14C25.2 20.16 20.16 25.2 14 25.2C7.84 25.2 2.8 20.16 2.8 14C2.8 7.84 7.84 2.8 14 2.8C15.12 2.8 16.1 2.94 17.08 3.22L19.32 0.98C17.64 0.42 15.82 0 14 0C6.3 0 0 6.3 0 14C0 21.7 6.3 28 14 28C21.7 28 28 21.7 28 14H25.2Z" fill="#00A3DF"/>
</g>
<defs>
<clipPath id="clip0_166_419">
<rect width="28" height="28" fill="white"/>
</clipPath>
</defs>
</svg>
