<svg width="50" height="50" viewBox="0 0 50 50" fill="none" xmlns="http://www.w3.org/2000/svg">
<circle cx="24.805" cy="24.805" r="24.805" fill="#E6F3FA"/>
<mask id="mask0_91_215" style="mask-type:alpha" maskUnits="userSpaceOnUse" x="0" y="0" width="50" height="50">
<circle cx="24.805" cy="24.805" r="24.805" fill="#E9E8E8"/>
</mask>
<g mask="url(#mask0_91_215)">
<path d="M24.8041 24.362L21.039 -2.87921L38.5354 0.664361L48.9446 8.85887L54.0385 24.362V32.9995L45.1796 52.7106H15.9451L-10.0034 34.2791L24.8041 24.362Z" fill="#41AF46" stroke="white" stroke-width="2"/>
</g>
<circle cx="24.7768" cy="24.777" r="21.1" fill="white"/>
<path d="M15.9728 29.1193C15.3166 29.1193 14.7328 29.0128 14.2214 28.7997C13.7129 28.5838 13.3137 28.2898 13.024 27.9176C12.7342 27.5455 12.5893 27.1236 12.5893 26.652C12.5893 26.2884 12.6717 25.9545 12.8365 25.6506C13.0041 25.3438 13.2314 25.0895 13.5183 24.8878C13.8052 24.6832 14.1262 24.5526 14.4814 24.4957V24.4361C14.0154 24.3423 13.6376 24.1165 13.3478 23.7585C13.0581 23.3977 12.9132 22.9787 12.9132 22.5014C12.9132 22.0497 13.0453 21.6477 13.3095 21.2955C13.5737 20.9403 13.9359 20.6619 14.3961 20.4602C14.8592 20.2557 15.3848 20.1534 15.9728 20.1534C16.5609 20.1534 17.085 20.2557 17.5453 20.4602C18.0083 20.6648 18.372 20.9446 18.6362 21.2997C18.9004 21.652 19.0339 22.0526 19.0368 22.5014C19.0339 22.9815 18.8862 23.4006 18.5936 23.7585C18.301 24.1165 17.926 24.3423 17.4686 24.4361V24.4957C17.818 24.5526 18.1348 24.6832 18.4189 24.8878C18.7058 25.0895 18.9331 25.3438 19.1007 25.6506C19.2711 25.9545 19.3578 26.2884 19.3606 26.652C19.3578 27.1236 19.2115 27.5455 18.9217 27.9176C18.6319 28.2898 18.2314 28.5838 17.72 28.7997C17.2115 29.0128 16.6291 29.1193 15.9728 29.1193ZM15.9728 27.7642C16.2654 27.7642 16.5211 27.7116 16.7399 27.6065C16.9586 27.4986 17.1291 27.3509 17.2512 27.1634C17.3762 26.973 17.4387 26.7543 17.4387 26.5071C17.4387 26.2543 17.3748 26.0312 17.247 25.8381C17.1191 25.642 16.9458 25.4886 16.7271 25.3778C16.5083 25.2642 16.2569 25.2074 15.9728 25.2074C15.6916 25.2074 15.4402 25.2642 15.2186 25.3778C14.997 25.4886 14.8223 25.642 14.6944 25.8381C14.5694 26.0312 14.5069 26.2543 14.5069 26.5071C14.5069 26.7543 14.568 26.973 14.6902 27.1634C14.8123 27.3509 14.9842 27.4986 15.2058 27.6065C15.4274 27.7116 15.6831 27.7642 15.9728 27.7642ZM15.9728 23.8651C16.2172 23.8651 16.4345 23.8153 16.6248 23.7159C16.8152 23.6165 16.9643 23.4787 17.0723 23.3026C17.1802 23.1264 17.2342 22.9233 17.2342 22.6932C17.2342 22.4659 17.1802 22.267 17.0723 22.0966C16.9643 21.9233 16.8166 21.7884 16.6291 21.6918C16.4416 21.5923 16.2228 21.5426 15.9728 21.5426C15.7257 21.5426 15.5069 21.5923 15.3166 21.6918C15.1262 21.7884 14.9771 21.9233 14.8691 22.0966C14.764 22.267 14.7115 22.4659 14.7115 22.6932C14.7115 22.9233 14.7654 23.1264 14.8734 23.3026C14.9814 23.4787 15.1305 23.6165 15.3208 23.7159C15.5112 23.8153 15.7285 23.8651 15.9728 23.8651ZM23.8382 29.1193C23.236 29.1193 22.699 29.0085 22.2275 28.7869C21.7587 28.5653 21.3865 28.2599 21.111 27.8707C20.8354 27.4815 20.6919 27.0355 20.6806 26.5327H22.4703C22.4902 26.8707 22.6323 27.1449 22.8965 27.3551C23.1607 27.5653 23.4746 27.6705 23.8382 27.6705C24.128 27.6705 24.3837 27.6065 24.6053 27.4787C24.8297 27.348 25.0044 27.1676 25.1294 26.9375C25.2573 26.7045 25.3212 26.4375 25.3212 26.1364C25.3212 25.8295 25.2559 25.5597 25.1252 25.3267C24.9973 25.0937 24.8198 24.9119 24.5925 24.7812C24.3652 24.6506 24.1053 24.5838 23.8127 24.581C23.557 24.581 23.3084 24.6335 23.0669 24.7386C22.8283 24.8437 22.6422 24.9872 22.5087 25.169L20.8681 24.875L21.2814 20.2727H26.6167V21.7812H22.8027L22.5769 23.9673H22.628C22.7814 23.7514 23.013 23.5724 23.3226 23.4304C23.6323 23.2884 23.9789 23.2173 24.3624 23.2173C24.888 23.2173 25.3567 23.3409 25.7686 23.5881C26.1806 23.8352 26.5059 24.1747 26.7445 24.6065C26.9831 25.0355 27.101 25.5298 27.0982 26.0895C27.101 26.6776 26.9647 27.2003 26.6891 27.6577C26.4164 28.1122 26.0343 28.4702 25.5428 28.7315C25.0542 28.9901 24.486 29.1193 23.8382 29.1193ZM33.1621 27.3636V26.9034C33.1621 26.554 33.236 26.233 33.3837 25.9403C33.5343 25.6449 33.7516 25.4091 34.0357 25.233C34.3226 25.054 34.6721 24.9645 35.084 24.9645C35.5016 24.9645 35.8525 25.0526 36.1365 25.2287C36.4235 25.4048 36.6394 25.6406 36.7843 25.9361C36.932 26.2287 37.0059 26.5511 37.0059 26.9034V27.3636C37.0059 27.7131 36.932 28.0355 36.7843 28.331C36.6365 28.6236 36.4192 28.858 36.1323 29.0341C35.8453 29.2131 35.4959 29.3026 35.084 29.3026C34.6664 29.3026 34.3155 29.2131 34.0314 29.0341C33.7473 28.858 33.5314 28.6236 33.3837 28.331C33.236 28.0355 33.1621 27.7131 33.1621 27.3636ZM34.4022 26.9034V27.3636C34.4022 27.5653 34.4505 27.7557 34.5471 27.9347C34.6465 28.1136 34.8255 28.2031 35.084 28.2031C35.3425 28.2031 35.5186 28.1151 35.6124 27.9389C35.709 27.7628 35.7573 27.571 35.7573 27.3636V26.9034C35.7573 26.696 35.7118 26.5028 35.6209 26.3239C35.53 26.1449 35.351 26.0554 35.084 26.0554C34.8283 26.0554 34.6507 26.1449 34.5513 26.3239C34.4519 26.5028 34.4022 26.696 34.4022 26.9034ZM28.6834 22.3693V21.9091C28.6834 21.5568 28.7587 21.2344 28.9093 20.9418C29.0598 20.6463 29.2772 20.4105 29.5613 20.2344C29.8482 20.0582 30.1948 19.9702 30.601 19.9702C31.0215 19.9702 31.3738 20.0582 31.6578 20.2344C31.9419 20.4105 32.1578 20.6463 32.3056 20.9418C32.4533 21.2344 32.5272 21.5568 32.5272 21.9091V22.3693C32.5272 22.7216 32.4519 23.044 32.3013 23.3366C32.1536 23.6293 31.9363 23.8636 31.6493 24.0398C31.3652 24.2131 31.0158 24.2997 30.601 24.2997C30.1863 24.2997 29.8354 24.2116 29.5485 24.0355C29.2644 23.8565 29.0485 23.6222 28.9007 23.3324C28.7559 23.0398 28.6834 22.7187 28.6834 22.3693ZM29.932 21.9091V22.3693C29.932 22.5767 29.9803 22.7685 30.0769 22.9446C30.1763 23.1207 30.351 23.2088 30.601 23.2088C30.8624 23.2088 31.04 23.1207 31.1337 22.9446C31.2303 22.7685 31.2786 22.5767 31.2786 22.3693V21.9091C31.2786 21.7017 31.2331 21.5085 31.1422 21.3295C31.0513 21.1506 30.8709 21.0611 30.601 21.0611C30.3482 21.0611 30.1735 21.152 30.0769 21.3338C29.9803 21.5156 29.932 21.7074 29.932 21.9091ZM29.2459 29L35.2459 20.2727H36.3624L30.3624 29H29.2459Z" fill="black"/>
</svg>
