<svg width="50" height="50" viewBox="0 0 50 50" fill="none" xmlns="http://www.w3.org/2000/svg">
<circle cx="24.805" cy="24.805" r="24.805" fill="#E6F3FA"/>
<mask id="mask0_91_215" style="mask-type:alpha" maskUnits="userSpaceOnUse" x="0" y="0" width="50" height="50">
<circle cx="24.805" cy="24.805" r="24.805" fill="#E9E8E8"/>
</mask>
<g mask="url(#mask0_91_215)">
<path d="M24.8041 24.362L21.039 -2.87921L38.5354 0.664361L48.9446 8.85887L54.0385 24.362V32.9995L45.1796 52.7106H15.9451L-10.0034 34.2791L24.8041 24.362Z" fill="#D81919" stroke="white" stroke-width="2"/>
</g>
<circle cx="24.7768" cy="24.777" r="21.1" fill="white"/>
<path d="M12.3975 27.4659V26.0128L16.041 20.2727H17.2939V22.2841H16.5524L14.2555 25.919V25.9872H19.4331V27.4659H12.3975ZM16.5865 29V27.0227L16.6206 26.3793V20.2727H18.3507V29H16.5865ZM23.8883 29.1193C23.252 29.1193 22.6852 29.0099 22.188 28.7912C21.6937 28.5696 21.3031 28.2656 21.0162 27.8793C20.7321 27.4901 20.5858 27.0412 20.5772 26.5327H22.4352C22.4466 26.7457 22.5162 26.9332 22.644 27.0952C22.7747 27.2543 22.948 27.3778 23.1639 27.4659C23.3798 27.554 23.6227 27.598 23.8926 27.598C24.1738 27.598 24.4224 27.5483 24.6383 27.4489C24.8542 27.3494 25.0233 27.2116 25.1454 27.0355C25.2676 26.8594 25.3287 26.6562 25.3287 26.4261C25.3287 26.1932 25.2633 25.9872 25.1326 25.8082C25.0048 25.6264 24.8201 25.4844 24.5787 25.3821C24.34 25.2798 24.0559 25.2287 23.7264 25.2287H22.9125V23.8736H23.7264C24.0048 23.8736 24.2505 23.8253 24.4636 23.7287C24.6795 23.6321 24.8471 23.4986 24.9664 23.3281C25.0858 23.1548 25.1454 22.9531 25.1454 22.723C25.1454 22.5043 25.0929 22.3125 24.9877 22.1477C24.8855 21.9801 24.7406 21.8494 24.5531 21.7557C24.3684 21.6619 24.1525 21.6151 23.9054 21.6151C23.6554 21.6151 23.4267 21.6605 23.2193 21.7514C23.0119 21.8395 22.8457 21.9659 22.7207 22.1307C22.5957 22.2955 22.5289 22.4886 22.5204 22.7102H20.752C20.7605 22.2074 20.9039 21.7642 21.1824 21.3807C21.4608 20.9972 21.8358 20.6974 22.3074 20.4815C22.7818 20.2628 23.3173 20.1534 23.9139 20.1534C24.5162 20.1534 25.0431 20.2628 25.4949 20.4815C25.9466 20.7003 26.2974 20.9957 26.5474 21.3679C26.8002 21.7372 26.9252 22.152 26.9224 22.6122C26.9252 23.1009 26.7733 23.5085 26.4664 23.8352C26.1625 24.1619 25.7662 24.3693 25.2775 24.4574V24.5256C25.9196 24.608 26.4082 24.831 26.7434 25.1946C27.0815 25.5554 27.2491 26.0071 27.2463 26.5497C27.2491 27.0469 27.1056 27.4886 26.8159 27.875C26.5289 28.2614 26.1326 28.5653 25.627 28.7869C25.1213 29.0085 24.5417 29.1193 23.8883 29.1193ZM33.3496 27.3636V26.9034C33.3496 26.554 33.4235 26.233 33.5712 25.9403C33.7218 25.6449 33.9391 25.4091 34.2232 25.233C34.5101 25.054 34.8596 24.9645 35.2715 24.9645C35.6891 24.9645 36.04 25.0526 36.324 25.2287C36.611 25.4048 36.8269 25.6406 36.9718 25.9361C37.1195 26.2287 37.1934 26.5511 37.1934 26.9034V27.3636C37.1934 27.7131 37.1195 28.0355 36.9718 28.331C36.824 28.6236 36.6067 28.858 36.3198 29.0341C36.0328 29.2131 35.6834 29.3026 35.2715 29.3026C34.8539 29.3026 34.503 29.2131 34.2189 29.0341C33.9348 28.858 33.7189 28.6236 33.5712 28.331C33.4235 28.0355 33.3496 27.7131 33.3496 27.3636ZM34.5897 26.9034V27.3636C34.5897 27.5653 34.638 27.7557 34.7346 27.9347C34.834 28.1136 35.013 28.2031 35.2715 28.2031C35.53 28.2031 35.7061 28.1151 35.7999 27.9389C35.8965 27.7628 35.9448 27.571 35.9448 27.3636V26.9034C35.9448 26.696 35.8993 26.5028 35.8084 26.3239C35.7175 26.1449 35.5385 26.0554 35.2715 26.0554C35.0158 26.0554 34.8382 26.1449 34.7388 26.3239C34.6394 26.5028 34.5897 26.696 34.5897 26.9034ZM28.8709 22.3693V21.9091C28.8709 21.5568 28.9462 21.2344 29.0968 20.9418C29.2473 20.6463 29.4647 20.4105 29.7488 20.2344C30.0357 20.0582 30.3823 19.9702 30.7885 19.9702C31.209 19.9702 31.5613 20.0582 31.8453 20.2344C32.1294 20.4105 32.3453 20.6463 32.4931 20.9418C32.6408 21.2344 32.7147 21.5568 32.7147 21.9091V22.3693C32.7147 22.7216 32.6394 23.044 32.4888 23.3366C32.3411 23.6293 32.1238 23.8636 31.8368 24.0398C31.5527 24.2131 31.2033 24.2997 30.7885 24.2997C30.3738 24.2997 30.0229 24.2116 29.736 24.0355C29.4519 23.8565 29.236 23.6222 29.0882 23.3324C28.9434 23.0398 28.8709 22.7187 28.8709 22.3693ZM30.1195 21.9091V22.3693C30.1195 22.5767 30.1678 22.7685 30.2644 22.9446C30.3638 23.1207 30.5385 23.2088 30.7885 23.2088C31.0499 23.2088 31.2275 23.1207 31.3212 22.9446C31.4178 22.7685 31.4661 22.5767 31.4661 22.3693V21.9091C31.4661 21.7017 31.4206 21.5085 31.3297 21.3295C31.2388 21.1506 31.0584 21.0611 30.7885 21.0611C30.5357 21.0611 30.361 21.152 30.2644 21.3338C30.1678 21.5156 30.1195 21.7074 30.1195 21.9091ZM29.4334 29L35.4334 20.2727H36.5499L30.5499 29H29.4334Z" fill="black"/>
</svg>
