<svg width="50" height="50" viewBox="0 0 50 50" fill="none" xmlns="http://www.w3.org/2000/svg">
<circle cx="24.805" cy="24.805" r="24.805" fill="#E6F3FA"/>
<mask id="mask0_91_215" style="mask-type:alpha" maskUnits="userSpaceOnUse" x="0" y="0" width="50" height="50">
<circle cx="24.805" cy="24.805" r="24.805" fill="#E9E8E8"/>
</mask>
<g mask="url(#mask0_91_215)">
<path d="M24.8041 24.362L21.039 -2.87921L38.5354 0.664361L48.9446 8.85887L54.0385 24.362V32.9995L45.1796 52.7106H15.9451L-10.0034 34.2791L24.8041 24.362Z" fill="#D81919" stroke="white" stroke-width="2"/>
</g>
<circle cx="24.7768" cy="24.777" r="21.1" fill="white"/>
<path d="M12.8109 29V27.6705L15.9174 24.794C16.1816 24.5384 16.4032 24.3082 16.5822 24.1037C16.764 23.8991 16.9018 23.6989 16.9956 23.5028C17.0893 23.304 17.1362 23.0895 17.1362 22.8594C17.1362 22.6037 17.0779 22.3835 16.9615 22.1989C16.845 22.0114 16.6859 21.8679 16.4842 21.7685C16.2825 21.6662 16.0538 21.6151 15.7981 21.6151C15.5311 21.6151 15.2981 21.669 15.0993 21.777C14.9004 21.8849 14.747 22.0398 14.639 22.2415C14.5311 22.4432 14.4771 22.6832 14.4771 22.9616H12.7257C12.7257 22.3906 12.8549 21.8949 13.1135 21.4744C13.372 21.054 13.7342 20.7287 14.2001 20.4986C14.666 20.2685 15.2029 20.1534 15.8109 20.1534C16.4359 20.1534 16.9799 20.2642 17.443 20.4858C17.9089 20.7045 18.2711 21.0085 18.5297 21.3977C18.7882 21.7869 18.9174 22.233 18.9174 22.7358C18.9174 23.0653 18.8521 23.3906 18.7214 23.7116C18.5936 24.0327 18.3649 24.3892 18.0353 24.7812C17.7058 25.1705 17.2413 25.6378 16.6419 26.1832L15.3677 27.4318V27.4915H19.0325V29H12.8109ZM23.5272 20.1534C23.976 20.1534 24.4078 20.2287 24.8226 20.3793C25.2402 20.5298 25.6124 20.7699 25.9391 21.0994C26.2686 21.429 26.5286 21.8665 26.7189 22.4119C26.9121 22.9545 27.0101 23.6207 27.013 24.4105C27.013 25.152 26.9292 25.8139 26.7615 26.3963C26.5968 26.9759 26.3596 27.4688 26.0499 27.875C25.7402 28.2812 25.3667 28.5909 24.9292 28.804C24.4917 29.0142 24.003 29.1193 23.4632 29.1193C22.8809 29.1193 22.3667 29.0071 21.9206 28.7827C21.4746 28.5554 21.1152 28.2472 20.8425 27.858C20.5726 27.4659 20.4093 27.0256 20.3525 26.5369H22.1721C22.2431 26.8551 22.3922 27.1023 22.6195 27.2784C22.8468 27.4517 23.128 27.5384 23.4632 27.5384C24.0314 27.5384 24.4632 27.2912 24.7587 26.7969C25.0542 26.2997 25.2033 25.6193 25.2061 24.7557H25.1465C25.0158 25.0114 24.8397 25.2315 24.6181 25.4162C24.3965 25.598 24.1422 25.7386 23.8553 25.8381C23.5712 25.9375 23.2686 25.9872 22.9476 25.9872C22.4334 25.9872 21.9746 25.8665 21.5712 25.625C21.1678 25.3835 20.8496 25.0511 20.6167 24.6278C20.3837 24.2045 20.2672 23.7216 20.2672 23.179C20.2644 22.5938 20.3993 22.0724 20.6721 21.6151C20.9448 21.1577 21.3255 20.7997 21.8141 20.5412C22.3056 20.2798 22.8766 20.1506 23.5272 20.1534ZM23.54 21.6023C23.253 21.6023 22.9973 21.6705 22.7729 21.8068C22.5513 21.9432 22.3752 22.1264 22.2445 22.3565C22.1167 22.5866 22.0542 22.8437 22.057 23.1278C22.057 23.4148 22.1195 23.6733 22.2445 23.9034C22.3723 24.1307 22.5456 24.3125 22.7644 24.4489C22.986 24.5824 23.2388 24.6491 23.5229 24.6491C23.736 24.6491 23.9334 24.6094 24.1152 24.5298C24.2971 24.4503 24.4547 24.3409 24.5882 24.2017C24.7246 24.0597 24.8311 23.8963 24.9078 23.7116C24.9846 23.527 25.0229 23.331 25.0229 23.1236C25.0201 22.848 24.9547 22.5952 24.8269 22.3651C24.699 22.1349 24.5229 21.9503 24.2985 21.8111C24.074 21.6719 23.8212 21.6023 23.54 21.6023ZM33.0684 27.3636V26.9034C33.0684 26.554 33.1422 26.233 33.29 25.9403C33.4405 25.6449 33.6578 25.4091 33.9419 25.233C34.2289 25.054 34.5783 24.9645 34.9902 24.9645C35.4078 24.9645 35.7587 25.0526 36.0428 25.2287C36.3297 25.4048 36.5456 25.6406 36.6905 25.9361C36.8382 26.2287 36.9121 26.5511 36.9121 26.9034V27.3636C36.9121 27.7131 36.8382 28.0355 36.6905 28.331C36.5428 28.6236 36.3255 28.858 36.0385 29.0341C35.7516 29.2131 35.4022 29.3026 34.9902 29.3026C34.5726 29.3026 34.2218 29.2131 33.9377 29.0341C33.6536 28.858 33.4377 28.6236 33.29 28.331C33.1422 28.0355 33.0684 27.7131 33.0684 27.3636ZM34.3084 26.9034V27.3636C34.3084 27.5653 34.3567 27.7557 34.4533 27.9347C34.5527 28.1136 34.7317 28.2031 34.9902 28.2031C35.2488 28.2031 35.4249 28.1151 35.5186 27.9389C35.6152 27.7628 35.6635 27.571 35.6635 27.3636V26.9034C35.6635 26.696 35.6181 26.5028 35.5272 26.3239C35.4363 26.1449 35.2573 26.0554 34.9902 26.0554C34.7346 26.0554 34.557 26.1449 34.4576 26.3239C34.3581 26.5028 34.3084 26.696 34.3084 26.9034ZM28.5897 22.3693V21.9091C28.5897 21.5568 28.665 21.2344 28.8155 20.9418C28.9661 20.6463 29.1834 20.4105 29.4675 20.2344C29.7544 20.0582 30.101 19.9702 30.5073 19.9702C30.9277 19.9702 31.28 20.0582 31.5641 20.2344C31.8482 20.4105 32.0641 20.6463 32.2118 20.9418C32.3596 21.2344 32.4334 21.5568 32.4334 21.9091V22.3693C32.4334 22.7216 32.3581 23.044 32.2076 23.3366C32.0598 23.6293 31.8425 23.8636 31.5556 24.0398C31.2715 24.2131 30.9221 24.2997 30.5073 24.2997C30.0925 24.2997 29.7417 24.2116 29.4547 24.0355C29.1706 23.8565 28.9547 23.6222 28.807 23.3324C28.6621 23.0398 28.5897 22.7187 28.5897 22.3693ZM29.8382 21.9091V22.3693C29.8382 22.5767 29.8865 22.7685 29.9831 22.9446C30.0826 23.1207 30.2573 23.2088 30.5073 23.2088C30.7686 23.2088 30.9462 23.1207 31.04 22.9446C31.1365 22.7685 31.1848 22.5767 31.1848 22.3693V21.9091C31.1848 21.7017 31.1394 21.5085 31.0485 21.3295C30.9576 21.1506 30.7772 21.0611 30.5073 21.0611C30.2544 21.0611 30.0797 21.152 29.9831 21.3338C29.8865 21.5156 29.8382 21.7074 29.8382 21.9091ZM29.1522 29L35.1522 20.2727H36.2686L30.2686 29H29.1522Z" fill="black"/>
</svg>
