<svg width="50" height="50" viewBox="0 0 50 50" fill="none" xmlns="http://www.w3.org/2000/svg">
<circle cx="24.805" cy="24.805" r="24.805" fill="#E6F3FA"/>
<mask id="mask0_91_215" style="mask-type:alpha" maskUnits="userSpaceOnUse" x="0" y="0" width="50" height="50">
<circle cx="24.805" cy="24.805" r="24.805" fill="#E9E8E8"/>
</mask>
<g mask="url(#mask0_91_215)">
<path d="M24.8041 24.362L21.039 -2.87921L38.5354 0.664361L48.9446 8.85887L54.0385 24.362V32.9995L45.1796 52.7106H15.9451L-10.0034 34.2791L24.8041 24.362Z" fill="#D81919" stroke="white" stroke-width="2"/>
</g>
<circle cx="24.7768" cy="24.777" r="21.1" fill="white"/>
<path d="M16.3031 29.1193C15.7008 29.1193 15.1639 29.0085 14.6923 28.7869C14.2235 28.5653 13.8514 28.2599 13.5758 27.8707C13.3002 27.4815 13.1568 27.0355 13.1454 26.5327H14.9352C14.9551 26.8707 15.0971 27.1449 15.3613 27.3551C15.6255 27.5653 15.9395 27.6705 16.3031 27.6705C16.5929 27.6705 16.8485 27.6065 17.0701 27.4787C17.2946 27.348 17.4693 27.1676 17.5943 26.9375C17.7221 26.7045 17.786 26.4375 17.786 26.1364C17.786 25.8295 17.7207 25.5597 17.59 25.3267C17.4622 25.0937 17.2846 24.9119 17.0574 24.7812C16.8301 24.6506 16.5701 24.5838 16.2775 24.581C16.0218 24.581 15.7733 24.6335 15.5318 24.7386C15.2931 24.8437 15.1071 24.9872 14.9735 25.169L13.3329 24.875L13.7463 20.2727H19.0815V21.7812H15.2676L15.0417 23.9673H15.0929C15.2463 23.7514 15.4778 23.5724 15.7875 23.4304C16.0971 23.2884 16.4437 23.2173 16.8272 23.2173C17.3528 23.2173 17.8216 23.3409 18.2335 23.5881C18.6454 23.8352 18.9707 24.1747 19.2093 24.6065C19.448 25.0355 19.5659 25.5298 19.563 26.0895C19.5659 26.6776 19.4295 27.2003 19.1539 27.6577C18.8812 28.1122 18.4991 28.4702 18.0076 28.7315C17.519 28.9901 16.9508 29.1193 16.3031 29.1193ZM21.1951 29L24.813 21.8409V21.7812H20.5985V20.2727H26.7221V21.8026L23.1 29H21.1951ZM32.7637 27.3636V26.9034C32.7637 26.554 32.8375 26.233 32.9853 25.9403C33.1358 25.6449 33.3532 25.4091 33.6373 25.233C33.9242 25.054 34.2736 24.9645 34.6855 24.9645C35.1032 24.9645 35.454 25.0526 35.7381 25.2287C36.025 25.4048 36.2409 25.6406 36.3858 25.9361C36.5336 26.2287 36.6074 26.5511 36.6074 26.9034V27.3636C36.6074 27.7131 36.5336 28.0355 36.3858 28.331C36.2381 28.6236 36.0208 28.858 35.7338 29.0341C35.4469 29.2131 35.0975 29.3026 34.6855 29.3026C34.2679 29.3026 33.9171 29.2131 33.633 29.0341C33.3489 28.858 33.133 28.6236 32.9853 28.331C32.8375 28.0355 32.7637 27.7131 32.7637 27.3636ZM34.0037 26.9034V27.3636C34.0037 27.5653 34.052 27.7557 34.1486 27.9347C34.248 28.1136 34.427 28.2031 34.6855 28.2031C34.9441 28.2031 35.1202 28.1151 35.214 27.9389C35.3105 27.7628 35.3588 27.571 35.3588 27.3636V26.9034C35.3588 26.696 35.3134 26.5028 35.2225 26.3239C35.1316 26.1449 34.9526 26.0554 34.6855 26.0554C34.4299 26.0554 34.2523 26.1449 34.1529 26.3239C34.0534 26.5028 34.0037 26.696 34.0037 26.9034ZM28.285 22.3693V21.9091C28.285 21.5568 28.3603 21.2344 28.5108 20.9418C28.6614 20.6463 28.8787 20.4105 29.1628 20.2344C29.4498 20.0582 29.7963 19.9702 30.2026 19.9702C30.623 19.9702 30.9753 20.0582 31.2594 20.2344C31.5435 20.4105 31.7594 20.6463 31.9071 20.9418C32.0549 21.2344 32.1287 21.5568 32.1287 21.9091V22.3693C32.1287 22.7216 32.0534 23.044 31.9029 23.3366C31.7551 23.6293 31.5378 23.8636 31.2509 24.0398C30.9668 24.2131 30.6174 24.2997 30.2026 24.2997C29.7878 24.2997 29.437 24.2116 29.15 24.0355C28.8659 23.8565 28.65 23.6222 28.5023 23.3324C28.3574 23.0398 28.285 22.7187 28.285 22.3693ZM29.5336 21.9091V22.3693C29.5336 22.5767 29.5819 22.7685 29.6784 22.9446C29.7779 23.1207 29.9526 23.2088 30.2026 23.2088C30.464 23.2088 30.6415 23.1207 30.7353 22.9446C30.8319 22.7685 30.8801 22.5767 30.8801 22.3693V21.9091C30.8801 21.7017 30.8347 21.5085 30.7438 21.3295C30.6529 21.1506 30.4725 21.0611 30.2026 21.0611C29.9498 21.0611 29.775 21.152 29.6784 21.3338C29.5819 21.5156 29.5336 21.7074 29.5336 21.9091ZM28.8475 29L34.8475 20.2727H35.964L29.964 29H28.8475Z" fill="black"/>
</svg>
