<svg width="50" height="50" viewBox="0 0 50 50" fill="none" xmlns="http://www.w3.org/2000/svg">
<circle cx="24.805" cy="24.805" r="24.805" fill="#E6F3FA"/>
<mask id="mask0_91_215" style="mask-type:alpha" maskUnits="userSpaceOnUse" x="0" y="0" width="50" height="50">
<circle cx="24.805" cy="24.805" r="24.805" fill="#E9E8E8"/>
</mask>
<g mask="url(#mask0_91_215)">
<path d="M24.8041 24.362L21.039 -2.87921L38.5354 0.664361L48.9446 8.85887L54.0385 24.362V32.9995L45.1796 52.7106H15.9451L-10.0034 34.2791L24.8041 24.362Z" fill="#D81919" stroke="white" stroke-width="2"/>
</g>
<circle cx="24.7768" cy="24.777" r="21.1" fill="white"/>
<path d="M15.9547 29.1193C15.3184 29.1193 14.7516 29.0099 14.2544 28.7912C13.7601 28.5696 13.3695 28.2656 13.0826 27.8793C12.7985 27.4901 12.6522 27.0412 12.6436 26.5327H14.5016C14.513 26.7457 14.5826 26.9332 14.7104 27.0952C14.8411 27.2543 15.0144 27.3778 15.2303 27.4659C15.4462 27.554 15.6891 27.598 15.959 27.598C16.2402 27.598 16.4888 27.5483 16.7047 27.4489C16.9206 27.3494 17.0897 27.2116 17.2118 27.0355C17.334 26.8594 17.3951 26.6562 17.3951 26.4261C17.3951 26.1932 17.3297 25.9872 17.199 25.8082C17.0712 25.6264 16.8865 25.4844 16.6451 25.3821C16.4064 25.2798 16.1223 25.2287 15.7928 25.2287H14.9789V23.8736H15.7928C16.0712 23.8736 16.3169 23.8253 16.53 23.7287C16.7459 23.6321 16.9135 23.4986 17.0328 23.3281C17.1522 23.1548 17.2118 22.9531 17.2118 22.723C17.2118 22.5043 17.1593 22.3125 17.0542 22.1477C16.9519 21.9801 16.807 21.8494 16.6195 21.7557C16.4348 21.6619 16.2189 21.6151 15.9718 21.6151C15.7218 21.6151 15.4931 21.6605 15.2857 21.7514C15.0783 21.8395 14.9121 21.9659 14.7871 22.1307C14.6621 22.2955 14.5953 22.4886 14.5868 22.7102H12.8184C12.8269 22.2074 12.9703 21.7642 13.2488 21.3807C13.5272 20.9972 13.9022 20.6974 14.3738 20.4815C14.8482 20.2628 15.3837 20.1534 15.9803 20.1534C16.5826 20.1534 17.1096 20.2628 17.5613 20.4815C18.013 20.7003 18.3638 20.9957 18.6138 21.3679C18.8667 21.7372 18.9917 22.152 18.9888 22.6122C18.9917 23.1009 18.8397 23.5085 18.5328 23.8352C18.2289 24.1619 17.8326 24.3693 17.3439 24.4574V24.5256C17.986 24.608 18.4746 24.831 18.8098 25.1946C19.1479 25.5554 19.3155 26.0071 19.3127 26.5497C19.3155 27.0469 19.1721 27.4886 18.8823 27.875C18.5953 28.2614 18.199 28.5653 17.6934 28.7869C17.1877 29.0085 16.6081 29.1193 15.9547 29.1193ZM23.8265 29.1193C23.2243 29.1193 22.6873 29.0085 22.2157 28.7869C21.747 28.5653 21.3748 28.2599 21.0993 27.8707C20.8237 27.4815 20.6802 27.0355 20.6689 26.5327H22.4586C22.4785 26.8707 22.6206 27.1449 22.8848 27.3551C23.149 27.5653 23.4629 27.6705 23.8265 27.6705C24.1163 27.6705 24.372 27.6065 24.5936 27.4787C24.818 27.348 24.9927 27.1676 25.1177 26.9375C25.2456 26.7045 25.3095 26.4375 25.3095 26.1364C25.3095 25.8295 25.2441 25.5597 25.1135 25.3267C24.9856 25.0937 24.8081 24.9119 24.5808 24.7812C24.3535 24.6506 24.0936 24.5838 23.801 24.581C23.5453 24.581 23.2967 24.6335 23.0552 24.7386C22.8166 24.8437 22.6305 24.9872 22.497 25.169L20.8564 24.875L21.2697 20.2727H26.6049V21.7812H22.791L22.5652 23.9673H22.6163C22.7697 23.7514 23.0012 23.5724 23.3109 23.4304C23.6206 23.2884 23.9672 23.2173 24.3507 23.2173C24.8762 23.2173 25.345 23.3409 25.7569 23.5881C26.1689 23.8352 26.4941 24.1747 26.7328 24.6065C26.9714 25.0355 27.0893 25.5298 27.0865 26.0895C27.0893 26.6776 26.9529 27.2003 26.6774 27.6577C26.4047 28.1122 26.0225 28.4702 25.5311 28.7315C25.0424 28.9901 24.4743 29.1193 23.8265 29.1193ZM33.1504 27.3636V26.9034C33.1504 26.554 33.2243 26.233 33.372 25.9403C33.5225 25.6449 33.7399 25.4091 34.024 25.233C34.3109 25.054 34.6603 24.9645 35.0723 24.9645C35.4899 24.9645 35.8407 25.0526 36.1248 25.2287C36.4118 25.4048 36.6277 25.6406 36.7726 25.9361C36.9203 26.2287 36.9941 26.5511 36.9941 26.9034V27.3636C36.9941 27.7131 36.9203 28.0355 36.7726 28.331C36.6248 28.6236 36.4075 28.858 36.1206 29.0341C35.8336 29.2131 35.4842 29.3026 35.0723 29.3026C34.6547 29.3026 34.3038 29.2131 34.0197 29.0341C33.7356 28.858 33.5197 28.6236 33.372 28.331C33.2243 28.0355 33.1504 27.7131 33.1504 27.3636ZM34.3904 26.9034V27.3636C34.3904 27.5653 34.4387 27.7557 34.5353 27.9347C34.6348 28.1136 34.8137 28.2031 35.0723 28.2031C35.3308 28.2031 35.5069 28.1151 35.6007 27.9389C35.6973 27.7628 35.7456 27.571 35.7456 27.3636V26.9034C35.7456 26.696 35.7001 26.5028 35.6092 26.3239C35.5183 26.1449 35.3393 26.0554 35.0723 26.0554C34.8166 26.0554 34.639 26.1449 34.5396 26.3239C34.4402 26.5028 34.3904 26.696 34.3904 26.9034ZM28.6717 22.3693V21.9091C28.6717 21.5568 28.747 21.2344 28.8975 20.9418C29.0481 20.6463 29.2654 20.4105 29.5495 20.2344C29.8365 20.0582 30.1831 19.9702 30.5893 19.9702C31.0098 19.9702 31.362 20.0582 31.6461 20.2344C31.9302 20.4105 32.1461 20.6463 32.2939 20.9418C32.4416 21.2344 32.5154 21.5568 32.5154 21.9091V22.3693C32.5154 22.7216 32.4402 23.044 32.2896 23.3366C32.1419 23.6293 31.9245 23.8636 31.6376 24.0398C31.3535 24.2131 31.0041 24.2997 30.5893 24.2997C30.1745 24.2997 29.8237 24.2116 29.5368 24.0355C29.2527 23.8565 29.0368 23.6222 28.889 23.3324C28.7441 23.0398 28.6717 22.7187 28.6717 22.3693ZM29.9203 21.9091V22.3693C29.9203 22.5767 29.9686 22.7685 30.0652 22.9446C30.1646 23.1207 30.3393 23.2088 30.5893 23.2088C30.8507 23.2088 31.0282 23.1207 31.122 22.9446C31.2186 22.7685 31.2669 22.5767 31.2669 22.3693V21.9091C31.2669 21.7017 31.2214 21.5085 31.1305 21.3295C31.0396 21.1506 30.8592 21.0611 30.5893 21.0611C30.3365 21.0611 30.1618 21.152 30.0652 21.3338C29.9686 21.5156 29.9203 21.7074 29.9203 21.9091ZM29.2342 29L35.2342 20.2727H36.3507L30.3507 29H29.2342Z" fill="black"/>
</svg>
