<svg width="50" height="50" viewBox="0 0 50 50" fill="none" xmlns="http://www.w3.org/2000/svg">
<circle cx="24.805" cy="24.805" r="24.805" fill="#E6F3FA"/>
<mask id="mask0_91_215" style="mask-type:alpha" maskUnits="userSpaceOnUse" x="0" y="0" width="50" height="50">
<circle cx="24.805" cy="24.805" r="24.805" fill="#E9E8E8"/>
</mask>
<g mask="url(#mask0_91_215)">
<path d="M24.8041 24.362L21.039 -2.87921L38.5354 0.664361L48.9446 8.85887L54.0385 24.362V32.9995L45.1796 52.7106H15.9451L-10.0034 34.2791L24.8041 24.362Z" fill="#F6B662" stroke="white" stroke-width="2"/>
</g>
<circle cx="24.7768" cy="24.777" r="21.1" fill="white"/>
<path d="M15.9787 29.1193C15.5298 29.1165 15.0966 29.0412 14.679 28.8935C14.2642 28.7457 13.892 28.5057 13.5625 28.1733C13.233 27.8409 12.9716 27.4006 12.7784 26.8523C12.5881 26.304 12.4929 25.6307 12.4929 24.8324C12.4957 24.0994 12.5795 23.4446 12.7443 22.8679C12.9119 22.2884 13.1506 21.7969 13.4602 21.3935C13.7727 20.9901 14.1463 20.6832 14.581 20.473C15.0156 20.2599 15.5028 20.1534 16.0426 20.1534C16.625 20.1534 17.1392 20.267 17.5852 20.4943C18.0313 20.7187 18.3892 21.0241 18.6591 21.4105C18.9318 21.7969 19.0966 22.2301 19.1534 22.7102H17.3338C17.2628 22.4062 17.1136 22.1676 16.8864 21.9943C16.6591 21.821 16.3778 21.7344 16.0426 21.7344C15.4744 21.7344 15.0426 21.9815 14.7472 22.4759C14.4545 22.9702 14.3054 23.642 14.2997 24.4915H14.3594C14.4901 24.233 14.6662 24.0128 14.8878 23.831C15.1122 23.6463 15.3665 23.5057 15.6506 23.4091C15.9375 23.3097 16.2401 23.2599 16.5582 23.2599C17.0753 23.2599 17.5355 23.3821 17.9389 23.6264C18.3423 23.8679 18.6605 24.2003 18.8935 24.6236C19.1264 25.0469 19.2429 25.5312 19.2429 26.0767C19.2429 26.6676 19.1051 27.1932 18.8295 27.6534C18.5568 28.1136 18.1747 28.4744 17.6832 28.7358C17.1946 28.9943 16.6264 29.1222 15.9787 29.1193ZM15.9702 27.6705C16.2543 27.6705 16.5085 27.6023 16.733 27.4659C16.9574 27.3295 17.1335 27.1449 17.2614 26.9119C17.3892 26.679 17.4531 26.4176 17.4531 26.1278C17.4531 25.8381 17.3892 25.5781 17.2614 25.348C17.1364 25.1179 16.9631 24.9347 16.7415 24.7983C16.5199 24.6619 16.267 24.5938 15.983 24.5938C15.7699 24.5938 15.5724 24.6335 15.3906 24.7131C15.2116 24.7926 15.054 24.9034 14.9176 25.0455C14.7841 25.1875 14.679 25.3523 14.6023 25.5398C14.5256 25.7244 14.4872 25.9219 14.4872 26.1321C14.4872 26.4134 14.5511 26.6705 14.679 26.9034C14.8097 27.1364 14.9858 27.3224 15.2074 27.4616C15.4318 27.6009 15.6861 27.6705 15.9702 27.6705ZM23.7088 20.1534C24.1577 20.1534 24.5895 20.2287 25.0043 20.3793C25.4219 20.5298 25.794 20.7699 26.1207 21.0994C26.4503 21.429 26.7102 21.8665 26.9006 22.4119C27.0938 22.9545 27.1918 23.6207 27.1946 24.4105C27.1946 25.152 27.1108 25.8139 26.9432 26.3963C26.7784 26.9759 26.5412 27.4688 26.2315 27.875C25.9219 28.2812 25.5483 28.5909 25.1108 28.804C24.6733 29.0142 24.1847 29.1193 23.6449 29.1193C23.0625 29.1193 22.5483 29.0071 22.1023 28.7827C21.6563 28.5554 21.2969 28.2472 21.0241 27.858C20.7543 27.4659 20.5909 27.0256 20.5341 26.5369H22.3537C22.4247 26.8551 22.5739 27.1023 22.8011 27.2784C23.0284 27.4517 23.3097 27.5384 23.6449 27.5384C24.2131 27.5384 24.6449 27.2912 24.9403 26.7969C25.2358 26.2997 25.3849 25.6193 25.3878 24.7557H25.3281C25.1974 25.0114 25.0213 25.2315 24.7997 25.4162C24.5781 25.598 24.3239 25.7386 24.0369 25.8381C23.7528 25.9375 23.4503 25.9872 23.1293 25.9872C22.6151 25.9872 22.1562 25.8665 21.7528 25.625C21.3494 25.3835 21.0312 25.0511 20.7983 24.6278C20.5653 24.2045 20.4489 23.7216 20.4489 23.179C20.446 22.5938 20.581 22.0724 20.8537 21.6151C21.1264 21.1577 21.5071 20.7997 21.9957 20.5412C22.4872 20.2798 23.0582 20.1506 23.7088 20.1534ZM23.7216 21.6023C23.4347 21.6023 23.179 21.6705 22.9545 21.8068C22.733 21.9432 22.5568 22.1264 22.4261 22.3565C22.2983 22.5866 22.2358 22.8437 22.2386 23.1278C22.2386 23.4148 22.3011 23.6733 22.4261 23.9034C22.554 24.1307 22.7273 24.3125 22.946 24.4489C23.1676 24.5824 23.4205 24.6491 23.7045 24.6491C23.9176 24.6491 24.1151 24.6094 24.2969 24.5298C24.4787 24.4503 24.6364 24.3409 24.7699 24.2017C24.9063 24.0597 25.0128 23.8963 25.0895 23.7116C25.1662 23.527 25.2045 23.331 25.2045 23.1236C25.2017 22.848 25.1364 22.5952 25.0085 22.3651C24.8807 22.1349 24.7045 21.9503 24.4801 21.8111C24.2557 21.6719 24.0028 21.6023 23.7216 21.6023ZM33.25 27.3636V26.9034C33.25 26.554 33.3239 26.233 33.4716 25.9403C33.6222 25.6449 33.8395 25.4091 34.1236 25.233C34.4105 25.054 34.7599 24.9645 35.1719 24.9645C35.5895 24.9645 35.9403 25.0526 36.2244 25.2287C36.5114 25.4048 36.7273 25.6406 36.8722 25.9361C37.0199 26.2287 37.0938 26.5511 37.0938 26.9034V27.3636C37.0938 27.7131 37.0199 28.0355 36.8722 28.331C36.7244 28.6236 36.5071 28.858 36.2202 29.0341C35.9332 29.2131 35.5838 29.3026 35.1719 29.3026C34.7543 29.3026 34.4034 29.2131 34.1193 29.0341C33.8352 28.858 33.6193 28.6236 33.4716 28.331C33.3239 28.0355 33.25 27.7131 33.25 27.3636ZM34.4901 26.9034V27.3636C34.4901 27.5653 34.5384 27.7557 34.6349 27.9347C34.7344 28.1136 34.9134 28.2031 35.1719 28.2031C35.4304 28.2031 35.6065 28.1151 35.7003 27.9389C35.7969 27.7628 35.8452 27.571 35.8452 27.3636V26.9034C35.8452 26.696 35.7997 26.5028 35.7088 26.3239C35.6179 26.1449 35.4389 26.0554 35.1719 26.0554C34.9162 26.0554 34.7386 26.1449 34.6392 26.3239C34.5398 26.5028 34.4901 26.696 34.4901 26.9034ZM28.7713 22.3693V21.9091C28.7713 21.5568 28.8466 21.2344 28.9972 20.9418C29.1477 20.6463 29.3651 20.4105 29.6491 20.2344C29.9361 20.0582 30.2827 19.9702 30.6889 19.9702C31.1094 19.9702 31.4616 20.0582 31.7457 20.2344C32.0298 20.4105 32.2457 20.6463 32.3935 20.9418C32.5412 21.2344 32.6151 21.5568 32.6151 21.9091V22.3693C32.6151 22.7216 32.5398 23.044 32.3892 23.3366C32.2415 23.6293 32.0241 23.8636 31.7372 24.0398C31.4531 24.2131 31.1037 24.2997 30.6889 24.2997C30.2741 24.2997 29.9233 24.2116 29.6364 24.0355C29.3523 23.8565 29.1364 23.6222 28.9886 23.3324C28.8438 23.0398 28.7713 22.7187 28.7713 22.3693ZM30.0199 21.9091V22.3693C30.0199 22.5767 30.0682 22.7685 30.1648 22.9446C30.2642 23.1207 30.4389 23.2088 30.6889 23.2088C30.9503 23.2088 31.1278 23.1207 31.2216 22.9446C31.3182 22.7685 31.3665 22.5767 31.3665 22.3693V21.9091C31.3665 21.7017 31.321 21.5085 31.2301 21.3295C31.1392 21.1506 30.9588 21.0611 30.6889 21.0611C30.4361 21.0611 30.2614 21.152 30.1648 21.3338C30.0682 21.5156 30.0199 21.7074 30.0199 21.9091ZM29.3338 29L35.3338 20.2727H36.4503L30.4503 29H29.3338Z" fill="black"/>
</svg>
