<svg xmlns="http://www.w3.org/2000/svg" xmlns:xlink="http://www.w3.org/1999/xlink" width="826" height="363" font-size="8.000000pt" font-family="Arial" fill="#000000"><a href="http://careclubfoundation.in/" aria-label="Care Club Foundation" class="viewsource" data-col="0" data-line="0" data-pageid="2" rel="nofollow" target="_top"><polygon points="397.500000,124.500000 397.500000,24.500000 445.500000,48.500000 445.500000,148.500000 " fill="#ffaa22" stroke="#000000" stroke-width="1"/><polygon points="493.500000,124.500000 493.500000,24.500000 445.500000,48.500000 445.500000,148.500000 " fill="#cc7700" stroke="#000000" stroke-width="1"/><polygon points="397.500000,24.500000 445.500000,0.500000 493.500000,24.500000 445.500000,48.500000 " fill="#ffdd55" stroke="#000000" stroke-width="1"/><polygon points="397.500000,124.500000 397.500000,68.500000 445.500000,92.500000 445.500000,148.500000 " fill="#dd2222" stroke="#000000" stroke-width="1"/><polygon points="493.500000,124.500000 493.500000,68.500000 445.500000,92.500000 445.500000,148.500000 " fill="#aa0000" stroke="#000000" stroke-width="1"/></a><a href="http://careclubfoundation.in/assets/css/font-awesome-all.css" aria-label="font-awesome-all" class="viewsource" data-col="0" data-line="0" data-pageid="6" rel="nofollow" target="_top"><polygon points="485.500000,144.500000 485.500000,144.500000 509.500000,156.500000 509.500000,156.500000 " fill="#999999" stroke="#000000" stroke-width="1"/><polygon points="533.500000,144.500000 533.500000,144.500000 509.500000,156.500000 509.500000,156.500000 " fill="#666666" stroke="#000000" stroke-width="1"/><polygon points="485.500000,144.500000 509.500000,132.500000 533.500000,144.500000 509.500000,156.500000 " fill="#cccccc" stroke="#000000" stroke-width="1"/></a><a href="http://careclubfoundation.in/assets/css/flaticon.css" aria-label="flaticon" class="viewsource" data-col="0" data-line="0" data-pageid="7" rel="nofollow" target="_top"><polygon points="357.500000,144.500000 357.500000,144.500000 381.500000,156.500000 381.500000,156.500000 " fill="#999999" stroke="#000000" stroke-width="1"/><polygon points="405.500000,144.500000 405.500000,144.500000 381.500000,156.500000 381.500000,156.500000 " fill="#666666" stroke="#000000" stroke-width="1"/><polygon points="357.500000,144.500000 381.500000,132.500000 405.500000,144.500000 381.500000,156.500000 " fill="#cccccc" stroke="#000000" stroke-width="1"/></a><a href="http://careclubfoundation.in/assets/css/owl.css" aria-label="owl" class="viewsource" data-col="0" data-line="0" data-pageid="8" rel="nofollow" target="_top"><polygon points="389.500000,160.500000 389.500000,156.500000 413.500000,168.500000 413.500000,172.500000 " fill="#dd2222" stroke="#000000" stroke-width="1"/><polygon points="437.500000,160.500000 437.500000,156.500000 413.500000,168.500000 413.500000,172.500000 " fill="#aa0000" stroke="#000000" stroke-width="1"/><polygon points="389.500000,156.500000 413.500000,144.500000 437.500000,156.500000 413.500000,168.500000 " fill="#ff5555" stroke="#000000" stroke-width="1"/></a><a href="http://careclubfoundation.in/assets/css/bootstrap.css" aria-label="bootstrap" class="viewsource" data-col="0" data-line="0" data-pageid="9" rel="nofollow" target="_top"><polygon points="453.500000,160.500000 453.500000,144.500000 477.500000,156.500000 477.500000,172.500000 " fill="#ffaa22" stroke="#000000" stroke-width="1"/><polygon points="501.500000,160.500000 501.500000,144.500000 477.500000,156.500000 477.500000,172.500000 " fill="#cc7700" stroke="#000000" stroke-width="1"/><polygon points="453.500000,144.500000 477.500000,132.500000 501.500000,144.500000 477.500000,156.500000 " fill="#ffdd55" stroke="#000000" stroke-width="1"/></a><a href="http://careclubfoundation.in/assets/css/animate.css" aria-label="animate" class="viewsource" data-col="0" data-line="0" data-pageid="11" rel="nofollow" target="_top"><polygon points="325.500000,160.500000 325.500000,156.500000 349.500000,168.500000 349.500000,172.500000 " fill="#dd2222" stroke="#000000" stroke-width="1"/><polygon points="373.500000,160.500000 373.500000,156.500000 349.500000,168.500000 349.500000,172.500000 " fill="#aa0000" stroke="#000000" stroke-width="1"/><polygon points="325.500000,156.500000 349.500000,144.500000 373.500000,156.500000 349.500000,168.500000 " fill="#ff5555" stroke="#000000" stroke-width="1"/></a><a href="http://careclubfoundation.in/assets/css/jquery-ui.css" aria-label="jquery-ui" class="viewsource" data-col="0" data-line="0" data-pageid="13" rel="nofollow" target="_top"><polygon points="517.500000,160.500000 517.500000,160.500000 541.500000,172.500000 541.500000,172.500000 " fill="#999999" stroke="#000000" stroke-width="1"/><polygon points="565.500000,160.500000 565.500000,160.500000 541.500000,172.500000 541.500000,172.500000 " fill="#666666" stroke="#000000" stroke-width="1"/><polygon points="517.500000,160.500000 541.500000,148.500000 565.500000,160.500000 541.500000,172.500000 " fill="#cccccc" stroke="#000000" stroke-width="1"/></a><a href="http://careclubfoundation.in/assets/css/jquery.fancybox.min.css" aria-label="jquery.fancybox.min" class="viewsource" data-col="0" data-line="0" data-pageid="10" rel="nofollow" target="_top"><polygon points="421.500000,176.500000 421.500000,172.500000 445.500000,184.500000 445.500000,188.500000 " fill="#ffaa22" stroke="#000000" stroke-width="1"/><polygon points="469.500000,176.500000 469.500000,172.500000 445.500000,184.500000 445.500000,188.500000 " fill="#cc7700" stroke="#000000" stroke-width="1"/><polygon points="421.500000,172.500000 445.500000,160.500000 469.500000,172.500000 445.500000,184.500000 " fill="#ffdd55" stroke="#000000" stroke-width="1"/></a><a href="http://careclubfoundation.in/assets/css/nice-select.css" aria-label="nice-select" class="viewsource" data-col="0" data-line="0" data-pageid="12" rel="nofollow" target="_top"><polygon points="357.500000,176.500000 357.500000,172.500000 381.500000,184.500000 381.500000,188.500000 " fill="#ffaa22" stroke="#000000" stroke-width="1"/><polygon points="405.500000,176.500000 405.500000,172.500000 381.500000,184.500000 381.500000,188.500000 " fill="#cc7700" stroke="#000000" stroke-width="1"/><polygon points="357.500000,172.500000 381.500000,160.500000 405.500000,172.500000 381.500000,184.500000 " fill="#ffdd55" stroke="#000000" stroke-width="1"/></a><a href="http://careclubfoundation.in/assets/css/jquery.bootstrap-touchspin.css" aria-label="jquery.bootstrap-touchsp" class="viewsource" data-col="0" data-line="0" data-pageid="14" rel="nofollow" target="_top"><polygon points="485.500000,176.500000 485.500000,172.500000 509.500000,184.500000 509.500000,188.500000 " fill="#ffaa22" stroke="#000000" stroke-width="1"/><polygon points="533.500000,176.500000 533.500000,172.500000 509.500000,184.500000 509.500000,188.500000 " fill="#cc7700" stroke="#000000" stroke-width="1"/><polygon points="485.500000,172.500000 509.500000,160.500000 533.500000,172.500000 509.500000,184.500000 " fill="#ffdd55" stroke="#000000" stroke-width="1"/></a><a href="http://careclubfoundation.in/assets/css/elpath.css" aria-label="elpath" class="viewsource" data-col="0" data-line="0" data-pageid="16" rel="nofollow" target="_top"><polygon points="293.500000,176.500000 293.500000,168.500000 317.500000,180.500000 317.500000,188.500000 " fill="#ffaa22" stroke="#000000" stroke-width="1"/><polygon points="341.500000,176.500000 341.500000,168.500000 317.500000,180.500000 317.500000,188.500000 " fill="#cc7700" stroke="#000000" stroke-width="1"/><polygon points="293.500000,168.500000 317.500000,156.500000 341.500000,168.500000 317.500000,180.500000 " fill="#ffdd55" stroke="#000000" stroke-width="1"/><polygon points="293.500000,176.500000 293.500000,172.500000 317.500000,184.500000 317.500000,188.500000 " fill="#dd2222" stroke="#000000" stroke-width="1"/><polygon points="341.500000,176.500000 341.500000,172.500000 317.500000,184.500000 317.500000,188.500000 " fill="#aa0000" stroke="#000000" stroke-width="1"/></a><a href="http://careclubfoundation.in/assets/images/banner/banner-4.jpg" aria-label="banner-4" class="viewsource" data-col="0" data-line="0" data-pageid="27" rel="nofollow" target="_top"><polygon points="549.500000,176.500000 549.500000,176.500000 573.500000,188.500000 573.500000,188.500000 " fill="#999999" stroke="#000000" stroke-width="1"/><polygon points="597.500000,176.500000 597.500000,176.500000 573.500000,188.500000 573.500000,188.500000 " fill="#666666" stroke="#000000" stroke-width="1"/><polygon points="549.500000,176.500000 573.500000,164.500000 597.500000,176.500000 573.500000,188.500000 " fill="#cccccc" stroke="#000000" stroke-width="1"/></a><a href="http://careclubfoundation.in/assets/css/color.css" aria-label="color" class="viewsource" data-col="0" data-line="0" data-pageid="15" rel="nofollow" target="_top"><polygon points="389.500000,192.500000 389.500000,192.500000 413.500000,204.500000 413.500000,204.500000 " fill="#999999" stroke="#000000" stroke-width="1"/><polygon points="437.500000,192.500000 437.500000,192.500000 413.500000,204.500000 413.500000,204.500000 " fill="#666666" stroke="#000000" stroke-width="1"/><polygon points="389.500000,192.500000 413.500000,180.500000 437.500000,192.500000 413.500000,204.500000 " fill="#cccccc" stroke="#000000" stroke-width="1"/></a><a href="http://careclubfoundation.in/assets/css/style.css" aria-label="style" class="viewsource" data-col="0" data-line="0" data-pageid="17" rel="nofollow" target="_top"><polygon points="453.500000,192.500000 453.500000,188.500000 477.500000,200.500000 477.500000,204.500000 " fill="#ffaa22" stroke="#000000" stroke-width="1"/><polygon points="501.500000,192.500000 501.500000,188.500000 477.500000,200.500000 477.500000,204.500000 " fill="#cc7700" stroke="#000000" stroke-width="1"/><polygon points="453.500000,188.500000 477.500000,176.500000 501.500000,188.500000 477.500000,200.500000 " fill="#ffdd55" stroke="#000000" stroke-width="1"/></a><a href="http://careclubfoundation.in/assets/images/shape/shape-1.png" aria-label="shape-1" class="viewsource" data-col="0" data-line="0" data-pageid="25" rel="nofollow" target="_top"><polygon points="325.500000,192.500000 325.500000,192.500000 349.500000,204.500000 349.500000,204.500000 " fill="#999999" stroke="#000000" stroke-width="1"/><polygon points="373.500000,192.500000 373.500000,192.500000 349.500000,204.500000 349.500000,204.500000 " fill="#666666" stroke="#000000" stroke-width="1"/><polygon points="325.500000,192.500000 349.500000,180.500000 373.500000,192.500000 349.500000,204.500000 " fill="#cccccc" stroke="#000000" stroke-width="1"/></a><a href="http://careclubfoundation.in/assets/images/banner/banner-2.jpg" aria-label="banner-2" class="viewsource" data-col="0" data-line="0" data-pageid="28" rel="nofollow" target="_top"><polygon points="517.500000,192.500000 517.500000,192.500000 541.500000,204.500000 541.500000,204.500000 " fill="#999999" stroke="#000000" stroke-width="1"/><polygon points="565.500000,192.500000 565.500000,192.500000 541.500000,204.500000 541.500000,204.500000 " fill="#666666" stroke="#000000" stroke-width="1"/><polygon points="517.500000,192.500000 541.500000,180.500000 565.500000,192.500000 541.500000,204.500000 " fill="#cccccc" stroke="#000000" stroke-width="1"/></a><a href="http://careclubfoundation.in/assets/js/jquery.js" aria-label="jquery" class="viewsource" data-col="0" data-line="0" data-pageid="30" rel="nofollow" target="_top"><polygon points="261.500000,192.500000 261.500000,192.500000 285.500000,204.500000 285.500000,204.500000 " fill="#999999" stroke="#000000" stroke-width="1"/><polygon points="309.500000,192.500000 309.500000,192.500000 285.500000,204.500000 285.500000,204.500000 " fill="#666666" stroke="#000000" stroke-width="1"/><polygon points="261.500000,192.500000 285.500000,180.500000 309.500000,192.500000 285.500000,204.500000 " fill="#cccccc" stroke="#000000" stroke-width="1"/></a><a href="http://careclubfoundation.in/assets/js/jquery.fancybox.js" aria-label="jquery.fancybox" class="viewsource" data-col="0" data-line="0" data-pageid="36" rel="nofollow" target="_top"><polygon points="581.500000,192.500000 581.500000,192.500000 605.500000,204.500000 605.500000,204.500000 " fill="#999999" stroke="#000000" stroke-width="1"/><polygon points="629.500000,192.500000 629.500000,192.500000 605.500000,204.500000 605.500000,204.500000 " fill="#666666" stroke="#000000" stroke-width="1"/><polygon points="581.500000,192.500000 605.500000,180.500000 629.500000,192.500000 605.500000,204.500000 " fill="#cccccc" stroke="#000000" stroke-width="1"/></a><a href="http://careclubfoundation.in/assets/css/responsive.css" aria-label="responsive" class="viewsource" data-col="0" data-line="0" data-pageid="18" rel="nofollow" target="_top"><polygon points="421.500000,208.500000 421.500000,208.500000 445.500000,220.500000 445.500000,220.500000 " fill="#999999" stroke="#000000" stroke-width="1"/><polygon points="469.500000,208.500000 469.500000,208.500000 445.500000,220.500000 445.500000,220.500000 " fill="#666666" stroke="#000000" stroke-width="1"/><polygon points="421.500000,208.500000 445.500000,196.500000 469.500000,208.500000 445.500000,220.500000 " fill="#cccccc" stroke="#000000" stroke-width="1"/></a><a href="http://careclubfoundation.in/assets/images/shape/shape-2.png" aria-label="shape-2" class="viewsource" data-col="0" data-line="0" data-pageid="26" rel="nofollow" target="_top"><polygon points="357.500000,208.500000 357.500000,208.500000 381.500000,220.500000 381.500000,220.500000 " fill="#999999" stroke="#000000" stroke-width="1"/><polygon points="405.500000,208.500000 405.500000,208.500000 381.500000,220.500000 381.500000,220.500000 " fill="#666666" stroke="#000000" stroke-width="1"/><polygon points="357.500000,208.500000 381.500000,196.500000 405.500000,208.500000 381.500000,220.500000 " fill="#cccccc" stroke="#000000" stroke-width="1"/></a><a href="http://careclubfoundation.in/assets/js/popper.min.js" aria-label="popper.min" class="viewsource" data-col="0" data-line="0" data-pageid="31" rel="nofollow" target="_top"><polygon points="485.500000,208.500000 485.500000,208.500000 509.500000,220.500000 509.500000,220.500000 " fill="#999999" stroke="#000000" stroke-width="1"/><polygon points="533.500000,208.500000 533.500000,208.500000 509.500000,220.500000 509.500000,220.500000 " fill="#666666" stroke="#000000" stroke-width="1"/><polygon points="485.500000,208.500000 509.500000,196.500000 533.500000,208.500000 509.500000,220.500000 " fill="#cccccc" stroke="#000000" stroke-width="1"/></a><a href="http://careclubfoundation.in/assets/js/owl.js" aria-label="owl" class="viewsource" data-col="0" data-line="0" data-pageid="33" rel="nofollow" target="_top"><polygon points="293.500000,208.500000 293.500000,208.500000 317.500000,220.500000 317.500000,220.500000 " fill="#999999" stroke="#000000" stroke-width="1"/><polygon points="341.500000,208.500000 341.500000,208.500000 317.500000,220.500000 317.500000,220.500000 " fill="#666666" stroke="#000000" stroke-width="1"/><polygon points="293.500000,208.500000 317.500000,196.500000 341.500000,208.500000 317.500000,220.500000 " fill="#cccccc" stroke="#000000" stroke-width="1"/></a><a href="http://careclubfoundation.in/assets/js/isotope.js" aria-label="isotope" class="viewsource" data-col="0" data-line="0" data-pageid="39" rel="nofollow" target="_top"><polygon points="549.500000,208.500000 549.500000,208.500000 573.500000,220.500000 573.500000,220.500000 " fill="#999999" stroke="#000000" stroke-width="1"/><polygon points="597.500000,208.500000 597.500000,208.500000 573.500000,220.500000 573.500000,220.500000 " fill="#666666" stroke="#000000" stroke-width="1"/><polygon points="549.500000,208.500000 573.500000,196.500000 597.500000,208.500000 573.500000,220.500000 " fill="#cccccc" stroke="#000000" stroke-width="1"/></a><a href="http://careclubfoundation.in/assets/js/parallax-scroll.js" aria-label="parallax-scroll" class="viewsource" data-col="0" data-line="0" data-pageid="41" rel="nofollow" target="_top"><polygon points="229.500000,208.500000 229.500000,208.500000 253.500000,220.500000 253.500000,220.500000 " fill="#999999" stroke="#000000" stroke-width="1"/><polygon points="277.500000,208.500000 277.500000,208.500000 253.500000,220.500000 253.500000,220.500000 " fill="#666666" stroke="#000000" stroke-width="1"/><polygon points="229.500000,208.500000 253.500000,196.500000 277.500000,208.500000 253.500000,220.500000 " fill="#cccccc" stroke="#000000" stroke-width="1"/></a><a href="http://careclubfoundation.in/assets/images/banner/banner-5.png" aria-label="banner-5" class="viewsource" data-col="0" data-line="0" data-pageid="48" rel="nofollow" target="_top"><polygon points="613.500000,208.500000 613.500000,208.500000 637.500000,220.500000 637.500000,220.500000 " fill="#999999" stroke="#000000" stroke-width="1"/><polygon points="661.500000,208.500000 661.500000,208.500000 637.500000,220.500000 637.500000,220.500000 " fill="#666666" stroke="#000000" stroke-width="1"/><polygon points="613.500000,208.500000 637.500000,196.500000 661.500000,208.500000 637.500000,220.500000 " fill="#cccccc" stroke="#000000" stroke-width="1"/></a><a href="http://careclubfoundation.in/assets/images/banner/banner-1.jpg" aria-label="banner-1" class="viewsource" data-col="0" data-line="0" data-pageid="29" rel="nofollow" target="_top"><polygon points="389.500000,224.500000 389.500000,224.500000 413.500000,236.500000 413.500000,236.500000 " fill="#999999" stroke="#000000" stroke-width="1"/><polygon points="437.500000,224.500000 437.500000,224.500000 413.500000,236.500000 413.500000,236.500000 " fill="#666666" stroke="#000000" stroke-width="1"/><polygon points="389.500000,224.500000 413.500000,212.500000 437.500000,224.500000 413.500000,236.500000 " fill="#cccccc" stroke="#000000" stroke-width="1"/></a><a href="http://careclubfoundation.in/assets/js/bootstrap.min.js" aria-label="bootstrap.min" class="viewsource" data-col="0" data-line="0" data-pageid="32" rel="nofollow" target="_top"><polygon points="453.500000,224.500000 453.500000,224.500000 477.500000,236.500000 477.500000,236.500000 " fill="#999999" stroke="#000000" stroke-width="1"/><polygon points="501.500000,224.500000 501.500000,224.500000 477.500000,236.500000 477.500000,236.500000 " fill="#666666" stroke="#000000" stroke-width="1"/><polygon points="453.500000,224.500000 477.500000,212.500000 501.500000,224.500000 477.500000,236.500000 " fill="#cccccc" stroke="#000000" stroke-width="1"/></a><a href="http://careclubfoundation.in/assets/js/wow.js" aria-label="wow" class="viewsource" data-col="0" data-line="0" data-pageid="34" rel="nofollow" target="_top"><polygon points="325.500000,224.500000 325.500000,224.500000 349.500000,236.500000 349.500000,236.500000 " fill="#999999" stroke="#000000" stroke-width="1"/><polygon points="373.500000,224.500000 373.500000,224.500000 349.500000,236.500000 349.500000,236.500000 " fill="#666666" stroke="#000000" stroke-width="1"/><polygon points="325.500000,224.500000 349.500000,212.500000 373.500000,224.500000 349.500000,236.500000 " fill="#cccccc" stroke="#000000" stroke-width="1"/></a><a href="http://careclubfoundation.in/assets/js/jquery.nice-select.min.js" aria-label="jquery.nice-select.min" class="viewsource" data-col="0" data-line="0" data-pageid="40" rel="nofollow" target="_top"><polygon points="517.500000,224.500000 517.500000,224.500000 541.500000,236.500000 541.500000,236.500000 " fill="#999999" stroke="#000000" stroke-width="1"/><polygon points="565.500000,224.500000 565.500000,224.500000 541.500000,236.500000 541.500000,236.500000 " fill="#666666" stroke="#000000" stroke-width="1"/><polygon points="517.500000,224.500000 541.500000,212.500000 565.500000,224.500000 541.500000,236.500000 " fill="#cccccc" stroke="#000000" stroke-width="1"/></a><a href="http://careclubfoundation.in/assets/js/jquery-ui.js" aria-label="jquery-ui" class="viewsource" data-col="0" data-line="0" data-pageid="42" rel="nofollow" target="_top"><polygon points="261.500000,224.500000 261.500000,224.500000 285.500000,236.500000 285.500000,236.500000 " fill="#999999" stroke="#000000" stroke-width="1"/><polygon points="309.500000,224.500000 309.500000,224.500000 285.500000,236.500000 285.500000,236.500000 " fill="#666666" stroke="#000000" stroke-width="1"/><polygon points="261.500000,224.500000 285.500000,212.500000 309.500000,224.500000 285.500000,236.500000 " fill="#cccccc" stroke="#000000" stroke-width="1"/></a><a href="http://careclubfoundation.in/assets/images/careClub/aman.jpg" aria-label="aman" class="viewsource" data-col="0" data-line="0" data-pageid="51" rel="nofollow" target="_top"><polygon points="581.500000,224.500000 581.500000,224.500000 605.500000,236.500000 605.500000,236.500000 " fill="#999999" stroke="#000000" stroke-width="1"/><polygon points="629.500000,224.500000 629.500000,224.500000 605.500000,236.500000 605.500000,236.500000 " fill="#666666" stroke="#000000" stroke-width="1"/><polygon points="581.500000,224.500000 605.500000,212.500000 629.500000,224.500000 605.500000,236.500000 " fill="#cccccc" stroke="#000000" stroke-width="1"/></a><a href="http://careclubfoundation.in/causes-details.html" aria-label="Not Found /causes-details.html" class="viewsource" data-col="0" data-line="0" data-pageid="23" rel="nofollow" target="_top"><polygon points="197.500000,224.500000 197.500000,224.500000 221.500000,236.500000 221.500000,236.500000 " fill="#999999" stroke="#000000" stroke-width="1"/><polygon points="245.500000,224.500000 245.500000,224.500000 221.500000,236.500000 221.500000,236.500000 " fill="#666666" stroke="#000000" stroke-width="1"/><polygon points="197.500000,224.500000 221.500000,212.500000 245.500000,224.500000 221.500000,236.500000 " fill="#cccccc" stroke="#000000" stroke-width="1"/></a><a href="http://careclubfoundation.in/donate.html" aria-label="HTML 5 Template Preview" class="viewsource" data-col="0" data-line="0" data-pageid="22" rel="nofollow" target="_top"><polygon points="645.500000,224.500000 645.500000,148.500000 669.500000,160.500000 669.500000,236.500000 " fill="#ffaa22" stroke="#000000" stroke-width="1"/><polygon points="693.500000,224.500000 693.500000,148.500000 669.500000,160.500000 669.500000,236.500000 " fill="#cc7700" stroke="#000000" stroke-width="1"/><polygon points="645.500000,148.500000 669.500000,136.500000 693.500000,148.500000 669.500000,160.500000 " fill="#ffdd55" stroke="#000000" stroke-width="1"/><polygon points="645.500000,224.500000 645.500000,184.500000 669.500000,196.500000 669.500000,236.500000 " fill="#dd2222" stroke="#000000" stroke-width="1"/><polygon points="693.500000,224.500000 693.500000,184.500000 669.500000,196.500000 669.500000,236.500000 " fill="#aa0000" stroke="#000000" stroke-width="1"/></a><a href="http://careclubfoundation.in/assets/js/validation.js" aria-label="validation" class="viewsource" data-col="0" data-line="0" data-pageid="35" rel="nofollow" target="_top"><polygon points="421.500000,240.500000 421.500000,240.500000 445.500000,252.500000 445.500000,252.500000 " fill="#999999" stroke="#000000" stroke-width="1"/><polygon points="469.500000,240.500000 469.500000,240.500000 445.500000,252.500000 445.500000,252.500000 " fill="#666666" stroke="#000000" stroke-width="1"/><polygon points="421.500000,240.500000 445.500000,228.500000 469.500000,240.500000 445.500000,252.500000 " fill="#cccccc" stroke="#000000" stroke-width="1"/></a><a href="http://careclubfoundation.in/assets/js/appear.js" aria-label="appear" class="viewsource" data-col="0" data-line="0" data-pageid="37" rel="nofollow" target="_top"><polygon points="357.500000,240.500000 357.500000,240.500000 381.500000,252.500000 381.500000,252.500000 " fill="#999999" stroke="#000000" stroke-width="1"/><polygon points="405.500000,240.500000 405.500000,240.500000 381.500000,252.500000 381.500000,252.500000 " fill="#666666" stroke="#000000" stroke-width="1"/><polygon points="357.500000,240.500000 381.500000,228.500000 405.500000,240.500000 381.500000,252.500000 " fill="#cccccc" stroke="#000000" stroke-width="1"/></a><a href="http://careclubfoundation.in/assets/js/nav-tool.js" aria-label="nav-tool" class="viewsource" data-col="0" data-line="0" data-pageid="43" rel="nofollow" target="_top"><polygon points="485.500000,240.500000 485.500000,240.500000 509.500000,252.500000 509.500000,252.500000 " fill="#999999" stroke="#000000" stroke-width="1"/><polygon points="533.500000,240.500000 533.500000,240.500000 509.500000,252.500000 509.500000,252.500000 " fill="#666666" stroke="#000000" stroke-width="1"/><polygon points="485.500000,240.500000 509.500000,228.500000 533.500000,240.500000 509.500000,252.500000 " fill="#cccccc" stroke="#000000" stroke-width="1"/></a><a href="http://careclubfoundation.in/assets/js/bxslider.js" aria-label="bxslider" class="viewsource" data-col="0" data-line="0" data-pageid="45" rel="nofollow" target="_top"><polygon points="293.500000,240.500000 293.500000,240.500000 317.500000,252.500000 317.500000,252.500000 " fill="#999999" stroke="#000000" stroke-width="1"/><polygon points="341.500000,240.500000 341.500000,240.500000 317.500000,252.500000 317.500000,252.500000 " fill="#666666" stroke="#000000" stroke-width="1"/><polygon points="293.500000,240.500000 317.500000,228.500000 341.500000,240.500000 317.500000,252.500000 " fill="#cccccc" stroke="#000000" stroke-width="1"/></a><a href="http://careclubfoundation.in/assets/images/logo1.png" aria-label="logo1" class="viewsource" data-col="0" data-line="0" data-pageid="52" rel="nofollow" target="_top"><polygon points="549.500000,240.500000 549.500000,240.500000 573.500000,252.500000 573.500000,252.500000 " fill="#999999" stroke="#000000" stroke-width="1"/><polygon points="597.500000,240.500000 597.500000,240.500000 573.500000,252.500000 573.500000,252.500000 " fill="#666666" stroke="#000000" stroke-width="1"/><polygon points="549.500000,240.500000 573.500000,228.500000 597.500000,240.500000 573.500000,252.500000 " fill="#cccccc" stroke="#000000" stroke-width="1"/></a><a href="http://careclubfoundation.in/thekiteflyers.in" aria-label="Not Found /thekiteflyers.in" class="viewsource" data-col="0" data-line="0" data-pageid="24" rel="nofollow" target="_top"><polygon points="229.500000,240.500000 229.500000,240.500000 253.500000,252.500000 253.500000,252.500000 " fill="#999999" stroke="#000000" stroke-width="1"/><polygon points="277.500000,240.500000 277.500000,240.500000 253.500000,252.500000 253.500000,252.500000 " fill="#666666" stroke="#000000" stroke-width="1"/><polygon points="229.500000,240.500000 253.500000,228.500000 277.500000,240.500000 253.500000,252.500000 " fill="#cccccc" stroke="#000000" stroke-width="1"/></a><a href="http://careclubfoundation.in/assets/images/careClub/donate2.jpg" aria-label="donate2" class="viewsource" data-col="0" data-line="0" data-pageid="68" rel="nofollow" target="_top"><polygon points="625.500000,234.500000 625.500000,234.500000 637.500000,240.500000 637.500000,240.500000 " fill="#999999" stroke="#000000" stroke-width="1"/><polygon points="649.500000,234.500000 649.500000,234.500000 637.500000,240.500000 637.500000,240.500000 " fill="#666666" stroke="#000000" stroke-width="1"/><polygon points="625.500000,234.500000 637.500000,228.500000 649.500000,234.500000 637.500000,240.500000 " fill="#cccccc" stroke="#000000" stroke-width="1"/></a><a href="http://careclubfoundation.in/assets/js/scrollbar.js" aria-label="scrollbar" class="viewsource" data-col="0" data-line="0" data-pageid="38" rel="nofollow" target="_top"><polygon points="389.500000,256.500000 389.500000,256.500000 413.500000,268.500000 413.500000,268.500000 " fill="#999999" stroke="#000000" stroke-width="1"/><polygon points="437.500000,256.500000 437.500000,256.500000 413.500000,268.500000 413.500000,268.500000 " fill="#666666" stroke="#000000" stroke-width="1"/><polygon points="389.500000,256.500000 413.500000,244.500000 437.500000,256.500000 413.500000,268.500000 " fill="#cccccc" stroke="#000000" stroke-width="1"/></a><a href="http://careclubfoundation.in/assets/js/jquery.bootstrap-touchspin.js" aria-label="jquery.bootstrap-touchsp" class="viewsource" data-col="0" data-line="0" data-pageid="44" rel="nofollow" target="_top"><polygon points="453.500000,256.500000 453.500000,256.500000 477.500000,268.500000 477.500000,268.500000 " fill="#999999" stroke="#000000" stroke-width="1"/><polygon points="501.500000,256.500000 501.500000,256.500000 477.500000,268.500000 477.500000,268.500000 " fill="#666666" stroke="#000000" stroke-width="1"/><polygon points="453.500000,256.500000 477.500000,244.500000 501.500000,256.500000 477.500000,268.500000 " fill="#cccccc" stroke="#000000" stroke-width="1"/></a><a href="http://careclubfoundation.in/assets/js/script.js" aria-label="script" class="viewsource" data-col="0" data-line="0" data-pageid="46" rel="nofollow" target="_top"><polygon points="325.500000,256.500000 325.500000,256.500000 349.500000,268.500000 349.500000,268.500000 " fill="#999999" stroke="#000000" stroke-width="1"/><polygon points="373.500000,256.500000 373.500000,256.500000 349.500000,268.500000 349.500000,268.500000 " fill="#666666" stroke="#000000" stroke-width="1"/><polygon points="325.500000,256.500000 349.500000,244.500000 373.500000,256.500000 349.500000,268.500000 " fill="#cccccc" stroke="#000000" stroke-width="1"/></a><a href="http://careclubfoundation.in/contact.html" aria-label="HTML 5 Template Preview" class="viewsource" data-col="0" data-line="0" data-pageid="21" rel="nofollow" target="_top"><polygon points="517.500000,256.500000 517.500000,180.500000 541.500000,192.500000 541.500000,268.500000 " fill="#ffaa22" stroke="#000000" stroke-width="1"/><polygon points="565.500000,256.500000 565.500000,180.500000 541.500000,192.500000 541.500000,268.500000 " fill="#cc7700" stroke="#000000" stroke-width="1"/><polygon points="517.500000,180.500000 541.500000,168.500000 565.500000,180.500000 541.500000,192.500000 " fill="#ffdd55" stroke="#000000" stroke-width="1"/><polygon points="517.500000,256.500000 517.500000,220.500000 541.500000,232.500000 541.500000,268.500000 " fill="#dd2222" stroke="#000000" stroke-width="1"/><polygon points="565.500000,256.500000 565.500000,220.500000 541.500000,232.500000 541.500000,268.500000 " fill="#aa0000" stroke="#000000" stroke-width="1"/></a><a href="http://careclubfoundation.in/about.html" aria-label="HTML 5 Template Preview" class="viewsource" data-col="0" data-line="0" data-pageid="19" rel="nofollow" target="_top"><polygon points="261.500000,256.500000 261.500000,196.500000 285.500000,208.500000 285.500000,268.500000 " fill="#ffaa22" stroke="#000000" stroke-width="1"/><polygon points="309.500000,256.500000 309.500000,196.500000 285.500000,208.500000 285.500000,268.500000 " fill="#cc7700" stroke="#000000" stroke-width="1"/><polygon points="261.500000,196.500000 285.500000,184.500000 309.500000,196.500000 285.500000,208.500000 " fill="#ffdd55" stroke="#000000" stroke-width="1"/><polygon points="261.500000,256.500000 261.500000,224.500000 285.500000,236.500000 285.500000,268.500000 " fill="#dd2222" stroke="#000000" stroke-width="1"/><polygon points="309.500000,256.500000 309.500000,224.500000 285.500000,236.500000 285.500000,268.500000 " fill="#aa0000" stroke="#000000" stroke-width="1"/></a><a href="http://careclubfoundation.in/services.html" aria-label="HTML 5 Template Preview" class="viewsource" data-col="0" data-line="0" data-pageid="20" rel="nofollow" target="_top"><polygon points="133.500000,256.500000 133.500000,200.500000 157.500000,212.500000 157.500000,268.500000 " fill="#ffaa22" stroke="#000000" stroke-width="1"/><polygon points="181.500000,256.500000 181.500000,200.500000 157.500000,212.500000 157.500000,268.500000 " fill="#cc7700" stroke="#000000" stroke-width="1"/><polygon points="133.500000,200.500000 157.500000,188.500000 181.500000,200.500000 157.500000,212.500000 " fill="#ffdd55" stroke="#000000" stroke-width="1"/><polygon points="133.500000,256.500000 133.500000,224.500000 157.500000,236.500000 157.500000,268.500000 " fill="#dd2222" stroke="#000000" stroke-width="1"/><polygon points="181.500000,256.500000 181.500000,224.500000 157.500000,236.500000 157.500000,268.500000 " fill="#aa0000" stroke="#000000" stroke-width="1"/></a><a href="http://careclubfoundation.in/assets/images/logo.svg" aria-label="logo" class="viewsource" data-col="0" data-line="0" data-pageid="47" rel="nofollow" target="_top"><polygon points="421.500000,272.500000 421.500000,272.500000 445.500000,284.500000 445.500000,284.500000 " fill="#999999" stroke="#000000" stroke-width="1"/><polygon points="469.500000,272.500000 469.500000,272.500000 445.500000,284.500000 445.500000,284.500000 " fill="#666666" stroke="#000000" stroke-width="1"/><polygon points="421.500000,272.500000 445.500000,260.500000 469.500000,272.500000 445.500000,284.500000 " fill="#cccccc" stroke="#000000" stroke-width="1"/></a><a href="http://careclubfoundation.in/assets/images/careClub/rani.jpg" aria-label="rani" class="viewsource" data-col="0" data-line="0" data-pageid="49" rel="nofollow" target="_top"><polygon points="357.500000,272.500000 357.500000,272.500000 381.500000,284.500000 381.500000,284.500000 " fill="#999999" stroke="#000000" stroke-width="1"/><polygon points="405.500000,272.500000 405.500000,272.500000 381.500000,284.500000 381.500000,284.500000 " fill="#666666" stroke="#000000" stroke-width="1"/><polygon points="357.500000,272.500000 381.500000,260.500000 405.500000,272.500000 381.500000,284.500000 " fill="#cccccc" stroke="#000000" stroke-width="1"/></a><a href="http://careclubfoundation.in/assets/images/careClub/contact.jpg" aria-label="contact" class="viewsource" data-col="0" data-line="0" data-pageid="67" rel="nofollow" target="_top"><polygon points="497.500000,266.500000 497.500000,266.500000 509.500000,272.500000 509.500000,272.500000 " fill="#999999" stroke="#000000" stroke-width="1"/><polygon points="521.500000,266.500000 521.500000,266.500000 509.500000,272.500000 509.500000,272.500000 " fill="#666666" stroke="#000000" stroke-width="1"/><polygon points="497.500000,266.500000 509.500000,260.500000 521.500000,266.500000 509.500000,272.500000 " fill="#cccccc" stroke="#000000" stroke-width="1"/></a><a href="http://careclubfoundation.in/assets/images/careClub/about.jpg" aria-label="about" class="viewsource" data-col="0" data-line="0" data-pageid="55" rel="nofollow" target="_top"><polygon points="305.500000,266.500000 305.500000,266.500000 317.500000,272.500000 317.500000,272.500000 " fill="#999999" stroke="#000000" stroke-width="1"/><polygon points="329.500000,266.500000 329.500000,266.500000 317.500000,272.500000 317.500000,272.500000 " fill="#666666" stroke="#000000" stroke-width="1"/><polygon points="305.500000,266.500000 317.500000,260.500000 329.500000,266.500000 317.500000,272.500000 " fill="#cccccc" stroke="#000000" stroke-width="1"/></a><a href="http://careclubfoundation.in/assets/images/careClub/about3.jpg" aria-label="about3" class="viewsource" data-col="0" data-line="0" data-pageid="56" rel="nofollow" target="_top"><polygon points="241.500000,266.500000 241.500000,266.500000 253.500000,272.500000 253.500000,272.500000 " fill="#999999" stroke="#000000" stroke-width="1"/><polygon points="265.500000,266.500000 265.500000,266.500000 253.500000,272.500000 253.500000,272.500000 " fill="#666666" stroke="#000000" stroke-width="1"/><polygon points="241.500000,266.500000 253.500000,260.500000 265.500000,266.500000 253.500000,272.500000 " fill="#cccccc" stroke="#000000" stroke-width="1"/></a><a href="http://careclubfoundation.in/assets/images/careClub/services.jpg" aria-label="services" class="viewsource" data-col="0" data-line="0" data-pageid="60" rel="nofollow" target="_top"><polygon points="177.500000,266.500000 177.500000,266.500000 189.500000,272.500000 189.500000,272.500000 " fill="#999999" stroke="#000000" stroke-width="1"/><polygon points="201.500000,266.500000 201.500000,266.500000 189.500000,272.500000 189.500000,272.500000 " fill="#666666" stroke="#000000" stroke-width="1"/><polygon points="177.500000,266.500000 189.500000,260.500000 201.500000,266.500000 189.500000,272.500000 " fill="#cccccc" stroke="#000000" stroke-width="1"/></a><a href="http://careclubfoundation.in/assets/images/shape/shape-6.png" aria-label="shape-6" class="viewsource" data-col="0" data-line="0" data-pageid="61" rel="nofollow" target="_top"><polygon points="113.500000,266.500000 113.500000,266.500000 125.500000,272.500000 125.500000,272.500000 " fill="#999999" stroke="#000000" stroke-width="1"/><polygon points="137.500000,266.500000 137.500000,266.500000 125.500000,272.500000 125.500000,272.500000 " fill="#666666" stroke="#000000" stroke-width="1"/><polygon points="113.500000,266.500000 125.500000,260.500000 137.500000,266.500000 125.500000,272.500000 " fill="#cccccc" stroke="#000000" stroke-width="1"/></a><a href="http://careclubfoundation.in/assets/images/logo-2.png" aria-label="logo-2" class="viewsource" data-col="0" data-line="0" data-pageid="57" rel="nofollow" target="_top"><polygon points="257.500000,274.500000 257.500000,274.500000 269.500000,280.500000 269.500000,280.500000 " fill="#999999" stroke="#000000" stroke-width="1"/><polygon points="281.500000,274.500000 281.500000,274.500000 269.500000,280.500000 269.500000,280.500000 " fill="#666666" stroke="#000000" stroke-width="1"/><polygon points="257.500000,274.500000 269.500000,268.500000 281.500000,274.500000 269.500000,280.500000 " fill="#cccccc" stroke="#000000" stroke-width="1"/></a><a href="http://careclubfoundation.in/assets/images/careClub/about1.jpg" aria-label="about1" class="viewsource" data-col="0" data-line="0" data-pageid="58" rel="nofollow" target="_top"><polygon points="289.500000,274.500000 289.500000,274.500000 301.500000,280.500000 301.500000,280.500000 " fill="#999999" stroke="#000000" stroke-width="1"/><polygon points="313.500000,274.500000 313.500000,274.500000 301.500000,280.500000 301.500000,280.500000 " fill="#666666" stroke="#000000" stroke-width="1"/><polygon points="289.500000,274.500000 301.500000,268.500000 313.500000,274.500000 301.500000,280.500000 " fill="#cccccc" stroke="#000000" stroke-width="1"/></a><a href="http://careclubfoundation.in/assets/images/careClub/education.png" aria-label="education" class="viewsource" data-col="0" data-line="0" data-pageid="62" rel="nofollow" target="_top"><polygon points="129.500000,274.500000 129.500000,274.500000 141.500000,280.500000 141.500000,280.500000 " fill="#999999" stroke="#000000" stroke-width="1"/><polygon points="153.500000,274.500000 153.500000,274.500000 141.500000,280.500000 141.500000,280.500000 " fill="#666666" stroke="#000000" stroke-width="1"/><polygon points="129.500000,274.500000 141.500000,268.500000 153.500000,274.500000 141.500000,280.500000 " fill="#cccccc" stroke="#000000" stroke-width="1"/></a><a href="http://careclubfoundation.in/assets/images/careClub/health.png" aria-label="health" class="viewsource" data-col="0" data-line="0" data-pageid="63" rel="nofollow" target="_top"><polygon points="161.500000,274.500000 161.500000,274.500000 173.500000,280.500000 173.500000,280.500000 " fill="#999999" stroke="#000000" stroke-width="1"/><polygon points="185.500000,274.500000 185.500000,274.500000 173.500000,280.500000 173.500000,280.500000 " fill="#666666" stroke="#000000" stroke-width="1"/><polygon points="161.500000,274.500000 173.500000,268.500000 185.500000,274.500000 173.500000,280.500000 " fill="#cccccc" stroke="#000000" stroke-width="1"/></a><a href="http://careclubfoundation.in/assets/images/careClub/rights.png" aria-label="rights" class="viewsource" data-col="0" data-line="0" data-pageid="65" rel="nofollow" target="_top"><polygon points="97.500000,274.500000 97.500000,274.500000 109.500000,280.500000 109.500000,280.500000 " fill="#999999" stroke="#000000" stroke-width="1"/><polygon points="121.500000,274.500000 121.500000,274.500000 109.500000,280.500000 109.500000,280.500000 " fill="#666666" stroke="#000000" stroke-width="1"/><polygon points="97.500000,274.500000 109.500000,268.500000 121.500000,274.500000 109.500000,280.500000 " fill="#cccccc" stroke="#000000" stroke-width="1"/></a><a href="http://careclubfoundation.in/assets/images/careClub/sunita.jpg" aria-label="sunita" class="viewsource" data-col="0" data-line="0" data-pageid="50" rel="nofollow" target="_top"><polygon points="389.500000,288.500000 389.500000,288.500000 413.500000,300.500000 413.500000,300.500000 " fill="#999999" stroke="#000000" stroke-width="1"/><polygon points="437.500000,288.500000 437.500000,288.500000 413.500000,300.500000 413.500000,300.500000 " fill="#666666" stroke="#000000" stroke-width="1"/><polygon points="389.500000,288.500000 413.500000,276.500000 437.500000,288.500000 413.500000,300.500000 " fill="#cccccc" stroke="#000000" stroke-width="1"/></a><a href="http://careclubfoundation.in/assets/images/careClub/about2.jpg" aria-label="about2" class="viewsource" data-col="0" data-line="0" data-pageid="59" rel="nofollow" target="_top"><polygon points="273.500000,282.500000 273.500000,282.500000 285.500000,288.500000 285.500000,288.500000 " fill="#999999" stroke="#000000" stroke-width="1"/><polygon points="297.500000,282.500000 297.500000,282.500000 285.500000,288.500000 285.500000,288.500000 " fill="#666666" stroke="#000000" stroke-width="1"/><polygon points="273.500000,282.500000 285.500000,276.500000 297.500000,282.500000 285.500000,288.500000 " fill="#cccccc" stroke="#000000" stroke-width="1"/></a><a href="http://careclubfoundation.in/assets/images/careClub/skill.png" aria-label="skill" class="viewsource" data-col="0" data-line="0" data-pageid="64" rel="nofollow" target="_top"><polygon points="145.500000,282.500000 145.500000,282.500000 157.500000,288.500000 157.500000,288.500000 " fill="#999999" stroke="#000000" stroke-width="1"/><polygon points="169.500000,282.500000 169.500000,282.500000 157.500000,288.500000 157.500000,288.500000 " fill="#666666" stroke="#000000" stroke-width="1"/><polygon points="145.500000,282.500000 157.500000,276.500000 169.500000,282.500000 157.500000,288.500000 " fill="#cccccc" stroke="#000000" stroke-width="1"/></a><a href="http://careclubfoundation.in/assets/images/careClub/change.png" aria-label="change" class="viewsource" data-col="0" data-line="0" data-pageid="66" rel="nofollow" target="_top"><polygon points="113.500000,282.500000 113.500000,282.500000 125.500000,288.500000 125.500000,288.500000 " fill="#999999" stroke="#000000" stroke-width="1"/><polygon points="137.500000,282.500000 137.500000,282.500000 125.500000,288.500000 125.500000,288.500000 " fill="#666666" stroke="#000000" stroke-width="1"/><polygon points="113.500000,282.500000 125.500000,276.500000 137.500000,282.500000 125.500000,288.500000 " fill="#cccccc" stroke="#000000" stroke-width="1"/></a><text clip-path="url(#cp-1)" x="418" y="21" stroke="#ffffff" stroke-width="2" paint-order="stroke" stroke-opacity="0.75"><tspan x="444.5" text-anchor="middle">Care Club </tspan><tspan x="444.5" text-anchor="middle" dy="14">Foundation</tspan></text><clipPath id="cp-1"><rect x="417" y="9" width="54" height="29"/></clipPath></svg>
